{"glyphs":{"0":{"ha":758,"x_min":57,"x_max":703,"o":"m 378 -17 q 127 100 197 -17 q 57 425 57 217 q 127 752 57 635 q 378 869 197 869 q 633 752 563 869 q 703 425 703 635 q 633 99 703 215 q 378 -17 563 -17 m 378 53 q 497 153 464 53 q 529 425 529 253 q 517 634 529 554 q 472 756 504 714 q 378 799 439 799 q 288 756 319 799 q 244 634 256 714 q 232 425 232 554 q 264 153 232 254 q 378 53 296 53 z "},"1":{"ha":758,"x_min":132,"x_max":660,"o":"m 660 69 l 660 0 l 138 0 l 138 69 l 317 69 l 317 701 l 132 697 l 132 764 q 288 792 204 767 q 421 851 371 817 l 490 851 l 490 69 l 660 69 z "},"2":{"ha":758,"x_min":75,"x_max":676,"o":"m 83 606 q 163 803 93 738 q 368 868 233 868 q 585 811 507 868 q 663 654 663 754 q 633 525 663 585 q 521 386 603 465 l 260 136 l 676 136 l 676 0 l 75 0 l 75 111 l 363 386 q 465 516 440 460 q 489 654 489 572 q 458 760 489 724 q 368 797 426 797 q 270 745 303 797 q 235 582 238 693 l 83 606 z "},"3":{"ha":758,"x_min":65,"x_max":674,"o":"m 465 424 q 617 355 561 407 q 674 214 674 303 q 637 95 674 147 q 528 13 600 43 q 357 -17 457 -17 q 146 38 217 -17 q 65 213 75 93 l 215 231 q 258 99 221 143 q 357 54 294 54 q 501 214 501 54 q 458 344 501 308 q 338 381 414 381 l 246 381 l 246 461 l 338 461 q 456 508 422 461 q 490 649 490 556 q 363 797 490 797 q 231 606 239 797 l 81 625 q 157 810 89 751 q 363 868 225 868 q 586 808 508 868 q 664 649 664 747 q 609 501 664 558 q 465 424 554 444 z "},"4":{"ha":758,"x_min":25,"x_max":694,"o":"m 694 165 l 607 165 l 607 0 l 433 0 l 433 165 l 25 165 l 25 275 l 350 851 l 607 851 l 607 301 l 694 301 l 694 165 m 433 301 l 433 779 l 168 301 l 433 301 z "},"5":{"ha":758,"x_min":96,"x_max":693,"o":"m 247 261 q 283 106 251 160 q 382 53 315 53 q 484 105 450 53 q 518 239 518 157 q 256 442 518 442 l 135 442 l 163 851 l 638 851 l 638 717 l 224 717 l 207 510 l 324 510 q 600 436 507 510 q 693 239 693 363 q 658 113 693 171 q 553 19 624 54 q 382 -17 483 -17 q 96 247 111 -17 l 247 261 z "},"6":{"ha":758,"x_min":67,"x_max":697,"o":"m 418 500 q 630 436 563 500 q 697 258 697 372 q 621 53 697 124 q 389 -17 544 -17 q 144 95 221 -17 q 67 389 67 207 q 139 742 67 617 q 390 868 211 868 q 601 806 529 868 q 678 618 672 744 l 528 603 q 390 799 521 799 q 274 718 306 799 q 239 467 242 638 q 418 500 326 500 m 389 53 q 494 105 461 53 q 528 258 528 157 q 492 381 528 332 q 374 431 456 431 q 239 401 303 431 q 255 194 240 269 q 301 85 269 118 q 389 53 333 53 z "},"7":{"ha":758,"x_min":75,"x_max":668,"o":"m 529 717 l 75 717 l 75 851 l 668 851 l 668 743 l 315 0 l 158 0 l 529 717 z "},"8":{"ha":758,"x_min":64,"x_max":696,"o":"m 532 429 q 653 346 611 400 q 696 215 696 292 q 658 96 696 149 q 547 13 619 43 q 379 -17 475 -17 q 210 13 282 -17 q 101 96 139 43 q 64 215 64 149 q 108 349 64 297 q 240 426 153 400 q 116 507 157 456 q 75 638 75 558 q 153 803 75 738 q 379 868 231 868 q 547 838 478 868 q 651 755 617 807 q 685 638 685 703 q 532 429 685 488 m 379 799 q 281 754 313 799 q 250 638 250 710 q 277 518 250 561 q 376 465 304 475 l 413 458 q 418 457 414 457 q 486 522 463 474 q 510 638 510 571 q 478 754 510 710 q 379 799 446 799 m 378 53 q 483 98 446 53 q 521 215 521 143 q 485 336 521 286 q 386 396 449 386 l 349 400 l 342 401 q 265 341 290 390 q 239 215 239 292 q 274 98 239 143 q 378 53 310 53 z "},"9":{"ha":758,"x_min":57,"x_max":690,"o":"m 379 868 q 690 461 690 868 q 660 195 690 299 q 559 38 631 92 q 364 -17 488 -17 q 153 45 228 -17 q 72 229 78 107 l 222 246 q 364 53 231 53 q 455 87 422 53 q 501 190 488 121 q 515 376 514 260 q 429 346 471 354 q 340 338 388 338 q 124 406 190 338 q 57 585 57 474 q 95 731 57 667 q 206 831 133 794 q 379 868 278 868 m 235 594 q 270 463 235 518 q 386 407 306 407 q 517 438 456 407 q 504 641 515 564 q 463 758 493 718 q 379 799 433 799 q 272 742 308 799 q 235 594 235 686 z "}," ":{"ha":315,"x_min":0,"x_max":0,"o":""},"A":{"ha":765,"x_min":13,"x_max":754,"o":"m 510 244 l 189 244 l 114 0 l 13 0 l 281 851 l 488 851 l 754 0 l 586 0 l 510 244 m 485 328 l 349 767 l 214 328 l 485 328 z "},"Á":{"ha":765,"x_min":13,"x_max":754,"o":"m 510 244 l 189 244 l 114 0 l 13 0 l 281 851 l 488 851 l 754 0 l 586 0 l 510 244 m 485 328 l 349 767 l 214 328 l 485 328 m 458 1192 l 561 1074 l 328 919 l 293 958 l 458 1192 z "},"Ă":{"ha":765,"x_min":13,"x_max":754,"o":"m 510 244 l 189 244 l 114 0 l 13 0 l 281 851 l 488 851 l 754 0 l 586 0 l 510 244 m 485 328 l 349 767 l 214 328 l 485 328 m 558 1128 q 382 925 558 925 q 207 1128 207 925 l 279 1128 q 304 1057 279 1082 q 382 1032 329 1032 q 458 1057 433 1032 q 483 1128 483 1082 l 558 1128 z "},"Â":{"ha":765,"x_min":13,"x_max":754,"o":"m 510 244 l 189 244 l 114 0 l 13 0 l 281 851 l 488 851 l 754 0 l 586 0 l 510 244 m 485 328 l 349 767 l 214 328 l 485 328 m 343 1165 l 422 1165 l 556 954 l 510 914 l 381 1031 l 256 914 l 208 954 l 343 1165 z "},"Ä":{"ha":765,"x_min":13,"x_max":754,"o":"m 510 244 l 189 244 l 114 0 l 13 0 l 281 851 l 488 851 l 754 0 l 586 0 l 510 244 m 485 328 l 349 767 l 214 328 l 485 328 m 246 935 q 179 963 207 935 q 151 1029 151 992 q 179 1098 151 1069 q 246 1126 207 1126 q 313 1097 285 1126 q 342 1029 342 1068 q 313 963 342 990 q 246 935 285 935 m 519 935 q 453 963 482 935 q 425 1029 425 992 q 453 1098 425 1069 q 519 1126 481 1126 q 587 1098 558 1126 q 615 1029 615 1069 q 587 963 615 990 q 519 935 558 935 z "},"À":{"ha":765,"x_min":13,"x_max":754,"o":"m 510 244 l 189 244 l 114 0 l 13 0 l 281 851 l 488 851 l 754 0 l 586 0 l 510 244 m 485 328 l 349 767 l 214 328 l 485 328 m 439 919 l 204 1074 l 308 1192 l 474 958 l 439 919 z "},"Ā":{"ha":765,"x_min":13,"x_max":754,"o":"m 510 244 l 189 244 l 114 0 l 13 0 l 281 851 l 488 851 l 754 0 l 586 0 l 510 244 m 485 328 l 349 767 l 214 328 l 485 328 m 560 1082 l 560 961 l 207 961 l 207 1082 l 560 1082 z "},"Ą":{"ha":765,"x_min":13,"x_max":760,"o":"m 760 -135 q 689 -216 735 -181 q 592 -251 643 -251 q 506 -223 539 -251 q 474 -147 474 -194 q 500 -72 474 -104 q 576 -7 526 -39 l 588 0 l 586 0 l 510 244 l 189 244 l 114 0 l 13 0 l 281 851 l 488 851 l 754 0 l 681 0 l 626 -33 q 577 -76 590 -57 q 564 -119 564 -96 q 578 -152 564 -140 q 614 -164 593 -164 q 704 -99 664 -164 l 760 -135 m 485 328 l 349 767 l 214 328 l 485 328 z "},"Å":{"ha":765,"x_min":13,"x_max":754,"o":"m 510 244 l 189 244 l 114 0 l 13 0 l 281 851 l 488 851 l 754 0 l 586 0 l 510 244 m 485 328 l 349 767 l 214 328 l 485 328 m 382 907 q 276 947 306 907 q 247 1042 247 986 q 276 1137 247 1097 q 382 1176 306 1176 q 490 1137 460 1176 q 519 1042 519 1097 q 490 947 519 986 q 382 907 460 907 m 383 964 q 423 988 413 964 q 433 1042 433 1011 q 383 1121 433 1121 q 336 1042 336 1121 q 383 964 336 964 z "},"Ǻ":{"ha":765,"x_min":13,"x_max":754,"o":"m 510 244 l 189 244 l 114 0 l 13 0 l 281 851 l 488 851 l 754 0 l 586 0 l 510 244 m 485 328 l 349 767 l 214 328 l 485 328 m 503 1117 q 519 1042 519 1085 q 490 947 519 986 q 382 907 460 907 q 276 947 306 907 q 247 1042 247 986 q 276 1137 247 1097 q 382 1176 306 1176 q 443 1167 419 1176 l 514 1260 l 594 1168 l 503 1117 m 383 964 q 423 988 413 964 q 433 1042 433 1011 q 383 1121 433 1121 q 336 1042 336 1121 q 383 964 336 964 z "},"Ã":{"ha":765,"x_min":13,"x_max":754,"o":"m 510 244 l 189 244 l 114 0 l 13 0 l 281 851 l 488 851 l 754 0 l 586 0 l 510 244 m 485 328 l 349 767 l 214 328 l 485 328 m 471 957 q 421 963 444 957 q 369 982 397 969 q 300 1000 325 1000 q 231 946 251 1000 l 176 965 q 220 1082 188 1046 q 296 1118 253 1118 q 344 1112 322 1118 q 394 1093 367 1106 q 431 1080 413 1086 q 465 1074 449 1074 q 508 1085 492 1074 q 533 1122 525 1097 l 588 1104 q 544 992 576 1026 q 471 957 513 957 z "},"Æ":{"ha":1099,"x_min":18,"x_max":1064,"o":"m 1064 86 l 1064 0 l 551 0 l 551 367 l 274 367 l 119 0 l 18 0 l 385 851 l 1040 851 l 1040 765 l 728 765 l 728 453 l 1011 453 l 1011 367 l 728 367 l 728 86 l 1064 86 m 551 453 l 551 767 l 443 767 l 311 453 l 551 453 z "},"Ǽ":{"ha":1099,"x_min":18,"x_max":1064,"o":"m 1064 86 l 1064 0 l 551 0 l 551 367 l 274 367 l 119 0 l 18 0 l 385 851 l 1040 851 l 1040 765 l 728 765 l 728 453 l 1011 453 l 1011 367 l 728 367 l 728 86 l 1064 86 m 551 453 l 551 767 l 443 767 l 311 453 l 551 453 m 765 1193 l 868 1074 l 635 919 l 600 958 l 765 1193 z "},"B":{"ha":733,"x_min":106,"x_max":697,"o":"m 540 439 q 660 356 622 414 q 697 228 697 297 q 635 65 697 131 q 421 0 572 0 l 106 0 l 106 851 l 383 851 q 599 788 535 851 q 663 633 663 725 q 540 439 663 489 m 281 467 l 368 467 q 488 632 488 467 q 456 749 488 711 q 368 788 425 788 l 281 788 l 281 467 m 399 64 q 492 106 463 64 q 522 228 522 147 q 490 353 522 301 q 399 404 458 404 l 281 404 l 281 64 l 399 64 z "},"C":{"ha":726,"x_min":58,"x_max":701,"o":"m 557 607 q 515 747 549 699 q 410 796 481 796 q 302 758 340 796 q 249 640 264 719 q 233 425 233 560 q 249 213 233 292 q 302 95 264 133 q 410 57 340 57 q 524 114 490 57 q 560 281 557 171 l 701 275 q 668 117 694 179 q 580 19 642 54 q 410 -17 518 -17 q 198 33 275 -17 q 90 179 121 83 q 58 425 58 275 q 90 672 58 575 q 198 818 121 768 q 410 868 275 868 q 620 808 557 868 q 697 629 683 747 l 557 607 z "},"Ć":{"ha":726,"x_min":58,"x_max":701,"o":"m 557 607 q 515 747 549 699 q 410 796 481 796 q 302 758 340 796 q 249 640 264 719 q 233 425 233 560 q 249 213 233 292 q 302 95 264 133 q 410 57 340 57 q 524 114 490 57 q 560 281 557 171 l 701 275 q 668 117 694 179 q 580 19 642 54 q 410 -17 518 -17 q 198 33 275 -17 q 90 179 121 83 q 58 425 58 275 q 90 672 58 575 q 198 818 121 768 q 410 868 275 868 q 620 808 557 868 q 697 629 683 747 l 557 607 m 439 1193 l 542 1074 l 308 919 l 274 958 l 439 1193 z "},"Č":{"ha":726,"x_min":58,"x_max":701,"o":"m 557 607 q 515 747 549 699 q 410 796 481 796 q 302 758 340 796 q 249 640 264 719 q 233 425 233 560 q 249 213 233 292 q 302 95 264 133 q 410 57 340 57 q 524 114 490 57 q 560 281 557 171 l 701 275 q 668 117 694 179 q 580 19 642 54 q 410 -17 518 -17 q 198 33 275 -17 q 90 179 121 83 q 58 425 58 275 q 90 672 58 575 q 198 818 121 768 q 410 868 275 868 q 620 808 557 868 q 697 629 683 747 l 557 607 m 239 1165 l 364 1049 l 493 1165 l 539 1125 l 406 914 l 326 914 l 192 1125 l 239 1165 z "},"Ç":{"ha":726,"x_min":58,"x_max":701,"o":"m 701 275 q 669 119 694 181 q 585 21 644 57 q 422 -17 526 -15 l 410 -54 q 503 -91 468 -61 q 538 -171 538 -121 q 505 -258 538 -224 q 399 -293 472 -293 q 295 -262 329 -293 q 261 -174 261 -232 l 357 -162 q 368 -217 357 -197 q 397 -236 379 -236 q 432 -185 432 -236 q 410 -133 432 -153 q 325 -103 388 -114 l 351 -14 q 123 109 188 1 q 58 425 58 217 q 90 672 58 575 q 198 818 121 768 q 410 868 275 868 q 620 808 557 868 q 697 629 683 747 l 557 607 q 515 747 549 699 q 410 796 481 796 q 302 758 340 796 q 249 640 264 719 q 233 425 233 560 q 249 213 233 292 q 302 95 264 133 q 410 57 340 57 q 524 114 490 57 q 560 281 557 171 l 701 275 z "},"Ĉ":{"ha":726,"x_min":58,"x_max":701,"o":"m 557 607 q 515 747 549 699 q 410 796 481 796 q 302 758 340 796 q 249 640 264 719 q 233 425 233 560 q 249 213 233 292 q 302 95 264 133 q 410 57 340 57 q 524 114 490 57 q 560 281 557 171 l 701 275 q 668 117 694 179 q 580 19 642 54 q 410 -17 518 -17 q 198 33 275 -17 q 90 179 121 83 q 58 425 58 275 q 90 672 58 575 q 198 818 121 768 q 410 868 275 868 q 620 808 557 868 q 697 629 683 747 l 557 607 m 324 1167 l 403 1167 l 536 954 l 490 914 l 361 1032 l 236 914 l 189 954 l 324 1167 z "},"Ċ":{"ha":726,"x_min":58,"x_max":701,"o":"m 557 607 q 515 747 549 699 q 410 796 481 796 q 302 758 340 796 q 249 640 264 719 q 233 425 233 560 q 249 213 233 292 q 302 95 264 133 q 410 57 340 57 q 524 114 490 57 q 560 281 557 171 l 701 275 q 668 117 694 179 q 580 19 642 54 q 410 -17 518 -17 q 198 33 275 -17 q 90 179 121 83 q 58 425 58 275 q 90 672 58 575 q 198 818 121 768 q 410 868 275 868 q 620 808 557 868 q 697 629 683 747 l 557 607 m 399 928 q 325 958 356 928 q 294 1032 294 989 q 325 1106 294 1075 q 399 1136 356 1136 q 473 1106 442 1136 q 504 1032 504 1075 q 473 958 504 989 q 399 928 442 928 z "},"D":{"ha":843,"x_min":106,"x_max":767,"o":"m 406 851 q 628 797 549 851 q 737 650 707 743 q 767 425 767 557 q 737 201 767 293 q 628 54 707 108 q 406 0 549 0 l 106 0 l 106 851 l 406 851 m 381 64 q 547 159 503 64 q 590 425 590 254 q 547 692 590 596 q 381 788 503 788 l 281 788 l 281 64 l 381 64 z "},"Ð":{"ha":843,"x_min":25,"x_max":767,"o":"m 406 851 q 628 797 549 851 q 737 650 707 743 q 767 425 767 557 q 737 201 767 293 q 628 54 707 108 q 406 0 549 0 l 106 0 l 106 367 l 25 367 l 25 476 l 106 476 l 106 851 l 406 851 m 381 64 q 547 159 503 64 q 590 425 590 254 q 547 692 590 596 q 381 788 503 788 l 281 788 l 281 476 l 468 476 l 468 367 l 281 367 l 281 64 l 381 64 z "},"Ď":{"ha":843,"x_min":106,"x_max":767,"o":"m 406 851 q 628 797 549 851 q 737 650 707 743 q 767 425 767 557 q 737 201 767 293 q 628 54 707 108 q 406 0 549 0 l 106 0 l 106 851 l 406 851 m 381 64 q 547 159 503 64 q 590 425 590 254 q 547 692 590 596 q 381 788 503 788 l 281 788 l 281 64 l 381 64 m 293 1165 l 418 1049 l 547 1165 l 593 1125 l 460 914 l 381 914 l 246 1125 l 293 1165 z "},"Đ":{"ha":843,"x_min":25,"x_max":767,"o":"m 406 851 q 628 797 549 851 q 737 650 707 743 q 767 425 767 557 q 737 201 767 293 q 628 54 707 108 q 406 0 549 0 l 106 0 l 106 367 l 25 367 l 25 476 l 106 476 l 106 851 l 406 851 m 381 64 q 547 159 503 64 q 590 425 590 254 q 547 692 590 596 q 381 788 503 788 l 281 788 l 281 476 l 468 476 l 468 367 l 281 367 l 281 64 l 381 64 z "},"E":{"ha":653,"x_min":106,"x_max":618,"o":"m 618 86 l 618 0 l 106 0 l 106 851 l 594 851 l 594 765 l 281 765 l 281 476 l 563 476 l 563 390 l 281 390 l 281 86 l 618 86 z "},"É":{"ha":653,"x_min":106,"x_max":618,"o":"m 618 86 l 618 0 l 106 0 l 106 851 l 594 851 l 594 765 l 281 765 l 281 476 l 563 476 l 563 390 l 281 390 l 281 86 l 618 86 m 424 1192 l 526 1074 l 293 919 l 258 958 l 424 1192 z "},"Ĕ":{"ha":653,"x_min":106,"x_max":618,"o":"m 618 86 l 618 0 l 106 0 l 106 851 l 594 851 l 594 765 l 281 765 l 281 476 l 563 476 l 563 390 l 281 390 l 281 86 l 618 86 m 525 1128 q 349 925 525 925 q 174 1128 174 925 l 246 1128 q 271 1057 246 1082 q 349 1032 296 1032 q 425 1057 400 1032 q 450 1128 450 1082 l 525 1128 z "},"Ě":{"ha":653,"x_min":106,"x_max":618,"o":"m 618 86 l 618 0 l 106 0 l 106 851 l 594 851 l 594 765 l 281 765 l 281 476 l 563 476 l 563 390 l 281 390 l 281 86 l 618 86 m 225 1165 l 350 1049 l 479 1165 l 525 1125 l 392 914 l 313 914 l 178 1125 l 225 1165 z "},"Ê":{"ha":653,"x_min":106,"x_max":618,"o":"m 618 86 l 618 0 l 106 0 l 106 851 l 594 851 l 594 765 l 281 765 l 281 476 l 563 476 l 563 390 l 281 390 l 281 86 l 618 86 m 310 1165 l 389 1165 l 522 954 l 476 914 l 347 1031 l 222 914 l 175 954 l 310 1165 z "},"Ë":{"ha":653,"x_min":106,"x_max":618,"o":"m 618 86 l 618 0 l 106 0 l 106 851 l 594 851 l 594 765 l 281 765 l 281 476 l 563 476 l 563 390 l 281 390 l 281 86 l 618 86 m 213 935 q 146 963 174 935 q 118 1029 118 992 q 146 1098 118 1069 q 213 1126 174 1126 q 280 1097 251 1126 q 308 1029 308 1068 q 280 963 308 990 q 213 935 251 935 m 486 935 q 420 963 449 935 q 392 1029 392 992 q 419 1098 392 1069 q 486 1126 447 1126 q 553 1098 525 1126 q 582 1029 582 1069 q 553 963 582 990 q 486 935 525 935 z "},"Ė":{"ha":653,"x_min":106,"x_max":618,"o":"m 618 86 l 618 0 l 106 0 l 106 851 l 594 851 l 594 765 l 281 765 l 281 476 l 563 476 l 563 390 l 281 390 l 281 86 l 618 86 m 350 928 q 276 958 307 928 q 246 1032 246 989 q 276 1106 246 1075 q 350 1136 307 1136 q 424 1106 393 1136 q 456 1032 456 1075 q 424 958 456 989 q 350 928 393 928 z "},"È":{"ha":653,"x_min":106,"x_max":618,"o":"m 618 86 l 618 0 l 106 0 l 106 851 l 594 851 l 594 765 l 281 765 l 281 476 l 563 476 l 563 390 l 281 390 l 281 86 l 618 86 m 406 919 l 171 1074 l 275 1192 l 440 958 l 406 919 z "},"Ē":{"ha":653,"x_min":106,"x_max":618,"o":"m 618 86 l 618 0 l 106 0 l 106 851 l 594 851 l 594 765 l 281 765 l 281 476 l 563 476 l 563 390 l 281 390 l 281 86 l 618 86 m 526 1082 l 526 961 l 174 961 l 174 1082 l 526 1082 z "},"Ę":{"ha":653,"x_min":106,"x_max":697,"o":"m 697 -135 q 626 -216 672 -181 q 529 -251 581 -251 q 444 -223 476 -251 q 411 -147 411 -194 q 438 -72 411 -104 q 514 -7 464 -39 l 525 0 l 106 0 l 106 851 l 594 851 l 594 765 l 281 765 l 281 476 l 563 476 l 563 390 l 281 390 l 281 86 l 618 86 l 618 0 l 564 -33 q 515 -76 528 -57 q 501 -119 501 -96 q 516 -152 501 -140 q 551 -164 531 -164 q 642 -99 601 -164 l 697 -135 z "},"F":{"ha":596,"x_min":106,"x_max":571,"o":"m 281 754 l 281 481 l 529 481 l 529 383 l 281 383 l 281 0 l 106 0 l 106 851 l 571 851 l 571 754 l 281 754 z "},"G":{"ha":811,"x_min":58,"x_max":718,"o":"m 718 0 l 632 0 l 599 92 q 394 -17 525 -17 q 133 94 207 -17 q 58 425 58 204 q 90 672 58 575 q 198 818 121 768 q 410 868 275 868 q 620 808 557 868 q 697 629 683 747 l 557 607 q 515 747 549 699 q 410 796 481 796 q 302 758 340 796 q 249 640 264 719 q 233 425 233 560 q 268 146 233 235 q 394 57 303 57 q 524 115 481 57 q 568 304 567 174 l 568 353 l 425 353 l 425 438 l 718 438 l 718 0 z "},"Ğ":{"ha":811,"x_min":58,"x_max":718,"o":"m 718 0 l 632 0 l 599 92 q 394 -17 525 -17 q 133 94 207 -17 q 58 425 58 204 q 90 672 58 575 q 198 818 121 768 q 410 868 275 868 q 620 808 557 868 q 697 629 683 747 l 557 607 q 515 747 549 699 q 410 796 481 796 q 302 758 340 796 q 249 640 264 719 q 233 425 233 560 q 268 146 233 235 q 394 57 303 57 q 524 115 481 57 q 568 304 567 174 l 568 353 l 425 353 l 425 438 l 718 438 l 718 0 m 582 1128 q 406 925 582 925 q 231 1128 231 925 l 303 1128 q 328 1057 303 1082 q 406 1032 353 1032 q 482 1057 457 1032 q 507 1128 507 1082 l 582 1128 z "},"Ĝ":{"ha":811,"x_min":58,"x_max":718,"o":"m 718 0 l 632 0 l 599 92 q 394 -17 525 -17 q 133 94 207 -17 q 58 425 58 204 q 90 672 58 575 q 198 818 121 768 q 410 868 275 868 q 620 808 557 868 q 697 629 683 747 l 557 607 q 515 747 549 699 q 410 796 481 796 q 302 758 340 796 q 249 640 264 719 q 233 425 233 560 q 268 146 233 235 q 394 57 303 57 q 524 115 481 57 q 568 304 567 174 l 568 353 l 425 353 l 425 438 l 718 438 l 718 0 m 367 1167 l 446 1167 l 579 954 l 533 914 l 404 1032 l 279 914 l 232 954 l 367 1167 z "},"Ģ":{"ha":811,"x_min":58,"x_max":718,"o":"m 718 0 l 632 0 l 599 92 q 394 -17 525 -17 q 133 94 207 -17 q 58 425 58 204 q 90 672 58 575 q 198 818 121 768 q 410 868 275 868 q 620 808 557 868 q 697 629 683 747 l 557 607 q 515 747 549 699 q 410 796 481 796 q 302 758 340 796 q 249 640 264 719 q 233 425 233 560 q 268 146 233 235 q 394 57 303 57 q 524 115 481 57 q 568 304 567 174 l 568 353 l 425 353 l 425 438 l 718 438 l 718 0 m 404 -58 q 465 -86 440 -58 q 490 -157 490 -114 q 447 -290 490 -231 q 336 -389 403 -350 l 306 -351 q 337 -308 328 -329 q 346 -257 346 -287 q 340 -228 346 -244 q 333 -206 335 -211 q 318 -144 318 -169 q 343 -84 318 -110 q 404 -58 368 -58 z "},"Ġ":{"ha":811,"x_min":58,"x_max":718,"o":"m 718 0 l 632 0 l 599 92 q 394 -17 525 -17 q 133 94 207 -17 q 58 425 58 204 q 90 672 58 575 q 198 818 121 768 q 410 868 275 868 q 620 808 557 868 q 697 629 683 747 l 557 607 q 515 747 549 699 q 410 796 481 796 q 302 758 340 796 q 249 640 264 719 q 233 425 233 560 q 268 146 233 235 q 394 57 303 57 q 524 115 481 57 q 568 304 567 174 l 568 353 l 425 353 l 425 438 l 718 438 l 718 0 m 407 928 q 333 958 364 928 q 303 1032 303 989 q 333 1106 303 1075 q 407 1136 364 1136 q 481 1106 450 1136 q 513 1032 513 1075 q 481 958 513 989 q 407 928 450 928 z "},"H":{"ha":853,"x_min":106,"x_max":747,"o":"m 747 851 l 747 0 l 571 0 l 571 383 l 281 383 l 281 0 l 106 0 l 106 851 l 281 851 l 281 468 l 571 468 l 571 851 l 747 851 z "},"Ħ":{"ha":853,"x_min":26,"x_max":824,"o":"m 824 578 l 747 578 l 747 0 l 571 0 l 571 383 l 281 383 l 281 0 l 106 0 l 106 578 l 26 578 l 26 688 l 106 688 l 106 851 l 281 851 l 281 688 l 571 688 l 571 851 l 747 851 l 747 688 l 824 688 l 824 578 m 571 578 l 281 578 l 281 468 l 571 468 l 571 578 z "},"Ĥ":{"ha":853,"x_min":106,"x_max":747,"o":"m 747 851 l 747 0 l 571 0 l 571 383 l 281 383 l 281 0 l 106 0 l 106 851 l 281 851 l 281 468 l 571 468 l 571 851 l 747 851 m 386 1167 l 465 1167 l 599 954 l 553 914 l 424 1032 l 299 914 l 251 954 l 386 1167 z "},"I":{"ha":386,"x_min":106,"x_max":281,"o":"m 281 0 l 106 0 l 106 851 l 281 851 l 281 0 z "},"Ĳ":{"ha":958,"x_min":106,"x_max":869,"o":"m 281 0 l 106 0 l 106 851 l 281 851 l 281 0 m 869 214 q 853 93 869 142 q 780 14 836 44 q 614 -17 724 -17 q 460 15 510 -17 q 399 101 411 47 q 386 247 386 154 l 539 247 q 556 99 539 142 q 618 57 574 57 q 678 92 661 57 q 694 214 694 128 l 694 851 l 869 851 l 869 214 z "},"Í":{"ha":386,"x_min":103,"x_max":371,"o":"m 281 0 l 106 0 l 106 851 l 281 851 l 281 0 m 268 1192 l 371 1074 l 138 919 l 103 958 l 268 1192 z "},"Ĭ":{"ha":386,"x_min":17,"x_max":368,"o":"m 281 0 l 106 0 l 106 851 l 281 851 l 281 0 m 368 1128 q 192 925 368 925 q 17 1128 17 925 l 89 1128 q 114 1057 89 1082 q 192 1032 139 1032 q 268 1057 243 1032 q 293 1128 293 1082 l 368 1128 z "},"Î":{"ha":386,"x_min":18,"x_max":365,"o":"m 281 0 l 106 0 l 106 851 l 281 851 l 281 0 m 153 1165 l 232 1165 l 365 954 l 319 914 l 190 1031 l 65 914 l 18 954 l 153 1165 z "},"Ï":{"ha":386,"x_min":-39,"x_max":425,"o":"m 281 0 l 106 0 l 106 851 l 281 851 l 281 0 m 56 935 q -11 963 17 935 q -39 1029 -39 992 q -11 1098 -39 1069 q 56 1126 17 1126 q 123 1097 94 1126 q 151 1029 151 1068 q 123 963 151 990 q 56 935 94 935 m 329 935 q 263 963 292 935 q 235 1029 235 992 q 263 1098 235 1069 q 329 1126 290 1126 q 397 1098 368 1126 q 425 1029 425 1069 q 397 963 425 990 q 329 935 368 935 z "},"İ":{"ha":386,"x_min":89,"x_max":299,"o":"m 281 0 l 106 0 l 106 851 l 281 851 l 281 0 m 193 928 q 119 958 150 928 q 89 1032 89 989 q 119 1106 89 1075 q 193 1136 150 1136 q 267 1106 236 1136 q 299 1032 299 1075 q 267 958 299 989 q 193 928 236 928 z "},"Ì":{"ha":386,"x_min":14,"x_max":283,"o":"m 281 0 l 106 0 l 106 851 l 281 851 l 281 0 m 249 919 l 14 1074 l 118 1192 l 283 958 l 249 919 z "},"Ī":{"ha":386,"x_min":17,"x_max":369,"o":"m 281 0 l 106 0 l 106 851 l 281 851 l 281 0 m 369 1081 l 369 961 l 17 961 l 17 1081 l 369 1081 z "},"Į":{"ha":386,"x_min":54,"x_max":340,"o":"m 340 -135 q 269 -216 315 -181 q 172 -251 224 -251 q 87 -223 119 -251 q 54 -147 54 -194 q 81 -72 54 -104 q 157 -7 107 -39 l 168 0 l 106 0 l 106 851 l 281 851 l 281 0 l 261 0 l 207 -33 q 158 -76 171 -57 q 144 -119 144 -96 q 159 -152 144 -140 q 194 -164 174 -164 q 285 -99 244 -164 l 340 -135 z "},"Ĩ":{"ha":386,"x_min":-14,"x_max":397,"o":"m 281 0 l 106 0 l 106 851 l 281 851 l 281 0 m 281 957 q 231 963 254 957 q 179 982 207 969 q 110 1000 135 1000 q 68 987 85 1000 q 40 946 51 974 l -14 965 q 30 1083 -3 1047 q 106 1118 63 1118 q 151 1113 131 1118 q 204 1094 172 1107 q 240 1081 222 1088 q 275 1075 258 1075 q 317 1087 301 1075 q 343 1124 332 1099 l 397 1104 q 354 992 386 1028 q 281 957 322 957 z "},"J":{"ha":572,"x_min":0,"x_max":483,"o":"m 483 214 q 467 93 483 142 q 394 14 450 44 q 228 -17 338 -17 q 74 15 124 -17 q 13 101 25 47 q 0 247 0 154 l 153 247 q 170 99 153 142 q 232 57 188 57 q 292 92 275 57 q 308 214 308 128 l 308 851 l 483 851 l 483 214 z "},"Ĵ":{"ha":572,"x_min":0,"x_max":568,"o":"m 483 214 q 467 93 483 142 q 394 14 450 44 q 228 -17 338 -17 q 74 15 124 -17 q 13 101 25 47 q 0 247 0 154 l 153 247 q 170 99 153 142 q 232 57 188 57 q 292 92 275 57 q 308 214 308 128 l 308 851 l 483 851 l 483 214 m 356 1167 l 435 1167 l 568 954 l 522 914 l 393 1032 l 268 914 l 221 954 l 356 1167 z "},"K":{"ha":732,"x_min":106,"x_max":742,"o":"m 308 390 l 281 390 l 281 0 l 106 0 l 106 851 l 281 851 l 281 476 l 376 476 l 618 851 l 721 851 l 458 447 l 742 0 l 557 0 l 308 390 z "},"Ķ":{"ha":732,"x_min":106,"x_max":742,"o":"m 308 390 l 281 390 l 281 0 l 106 0 l 106 851 l 281 851 l 281 476 l 376 476 l 618 851 l 721 851 l 458 447 l 742 0 l 557 0 l 308 390 m 365 -58 q 426 -86 401 -58 q 451 -157 451 -114 q 408 -290 451 -231 q 297 -389 364 -350 l 267 -351 q 298 -308 289 -329 q 307 -257 307 -287 q 301 -228 307 -244 q 294 -206 296 -211 q 279 -144 279 -169 q 304 -84 279 -110 q 365 -58 329 -58 z "},"L":{"ha":564,"x_min":106,"x_max":563,"o":"m 563 86 l 563 0 l 106 0 l 106 851 l 281 851 l 281 86 l 563 86 z "},"Ĺ":{"ha":564,"x_min":103,"x_max":563,"o":"m 563 86 l 563 0 l 106 0 l 106 851 l 281 851 l 281 86 l 563 86 m 268 1193 l 371 1074 l 138 919 l 103 958 l 268 1193 z "},"Ľ":{"ha":564,"x_min":106,"x_max":578,"o":"m 563 86 l 563 0 l 106 0 l 106 851 l 281 851 l 281 86 l 563 86 m 492 914 q 553 886 528 914 q 578 815 578 858 q 533 682 578 742 q 424 583 489 622 l 393 621 q 424 664 415 643 q 432 715 432 685 q 419 767 432 735 q 406 828 406 806 q 431 889 406 864 q 492 914 456 914 z "},"Ļ":{"ha":564,"x_min":106,"x_max":563,"o":"m 563 86 l 563 0 l 106 0 l 106 851 l 281 851 l 281 86 l 563 86 m 314 -58 q 375 -86 350 -58 q 400 -157 400 -114 q 356 -290 400 -231 q 246 -389 313 -350 l 215 -351 q 247 -308 238 -329 q 256 -257 256 -287 q 250 -228 256 -244 q 243 -206 244 -211 q 228 -144 228 -169 q 253 -84 228 -110 q 314 -58 278 -58 z "},"Ŀ":{"ha":564,"x_min":106,"x_max":563,"o":"m 563 86 l 563 0 l 106 0 l 106 851 l 281 851 l 281 86 l 563 86 m 432 378 q 365 406 393 378 q 338 474 338 435 q 365 541 338 514 q 432 568 393 568 q 499 541 472 568 q 526 474 526 514 q 499 406 526 433 q 432 378 471 378 z "},"Ł":{"ha":564,"x_min":28,"x_max":563,"o":"m 563 86 l 563 0 l 106 0 l 106 351 l 28 321 l 28 429 l 106 461 l 106 851 l 281 851 l 281 532 l 365 567 l 365 456 l 281 421 l 281 86 l 563 86 z "},"M":{"ha":1050,"x_min":89,"x_max":963,"o":"m 772 729 l 568 3 l 568 0 l 415 0 l 211 742 l 194 0 l 89 0 l 113 851 l 338 851 l 518 189 l 701 851 l 938 851 l 963 0 l 788 0 l 772 729 z "},"N":{"ha":889,"x_min":106,"x_max":783,"o":"m 783 851 l 783 0 l 597 0 l 210 672 l 210 0 l 106 0 l 106 851 l 290 851 l 679 179 l 679 851 l 783 851 z "},"Ń":{"ha":889,"x_min":106,"x_max":783,"o":"m 783 851 l 783 0 l 597 0 l 210 672 l 210 0 l 106 0 l 106 851 l 290 851 l 679 179 l 679 851 l 783 851 m 518 1193 l 621 1074 l 388 919 l 353 958 l 518 1193 z "},"Ň":{"ha":889,"x_min":106,"x_max":783,"o":"m 783 851 l 783 0 l 597 0 l 210 672 l 210 0 l 106 0 l 106 851 l 290 851 l 679 179 l 679 851 l 783 851 m 319 1165 l 444 1049 l 574 1165 l 619 1125 l 486 914 l 407 914 l 272 1125 l 319 1165 z "},"Ņ":{"ha":889,"x_min":106,"x_max":783,"o":"m 783 851 l 783 0 l 597 0 l 210 672 l 210 0 l 106 0 l 106 851 l 290 851 l 679 179 l 679 851 l 783 851 m 442 -58 q 503 -86 478 -58 q 528 -157 528 -114 q 484 -290 528 -231 q 374 -389 440 -350 l 343 -351 q 374 -308 365 -329 q 383 -257 383 -287 q 378 -228 383 -244 q 371 -206 372 -211 q 356 -144 356 -169 q 381 -84 356 -110 q 442 -58 406 -58 z "},"Ŋ":{"ha":889,"x_min":106,"x_max":783,"o":"m 783 851 l 783 -54 q 547 -282 783 -282 q 376 -236 465 -282 l 429 -111 q 531 -181 471 -181 q 589 -157 568 -181 q 610 -94 610 -133 l 610 -22 l 597 0 l 210 672 l 210 0 l 106 0 l 106 851 l 290 851 l 679 179 l 679 851 l 783 851 z "},"Ñ":{"ha":889,"x_min":106,"x_max":783,"o":"m 783 851 l 783 0 l 597 0 l 210 672 l 210 0 l 106 0 l 106 851 l 290 851 l 679 179 l 679 851 l 783 851 m 532 957 q 482 963 506 957 q 431 982 458 969 q 361 1000 386 1000 q 292 946 313 1000 l 238 965 q 281 1082 249 1046 q 357 1118 314 1118 q 406 1112 383 1118 q 456 1093 428 1106 q 492 1080 474 1086 q 526 1074 510 1074 q 569 1085 553 1074 q 594 1122 586 1097 l 649 1104 q 606 992 638 1026 q 532 957 574 957 z "},"O":{"ha":822,"x_min":58,"x_max":763,"o":"m 410 -17 q 144 91 229 -17 q 58 425 58 199 q 144 761 58 654 q 410 868 229 868 q 676 760 590 868 q 763 425 763 653 q 677 91 763 199 q 410 -17 592 -17 m 410 54 q 544 146 500 54 q 588 425 588 238 q 544 706 588 615 q 410 797 500 797 q 276 707 319 797 q 233 425 233 617 q 276 144 233 235 q 410 54 319 54 z "},"Ó":{"ha":822,"x_min":58,"x_max":763,"o":"m 410 -17 q 144 91 229 -17 q 58 425 58 199 q 144 761 58 654 q 410 868 229 868 q 676 760 590 868 q 763 425 763 653 q 677 91 763 199 q 410 -17 592 -17 m 410 54 q 544 146 500 54 q 588 425 588 238 q 544 706 588 615 q 410 797 500 797 q 276 707 319 797 q 233 425 233 617 q 276 144 233 235 q 410 54 319 54 m 488 1192 l 590 1074 l 357 919 l 322 958 l 488 1192 z "},"Ŏ":{"ha":822,"x_min":58,"x_max":763,"o":"m 410 -17 q 144 91 229 -17 q 58 425 58 199 q 144 761 58 654 q 410 868 229 868 q 676 760 590 868 q 763 425 763 653 q 677 91 763 199 q 410 -17 592 -17 m 410 54 q 544 146 500 54 q 588 425 588 238 q 544 706 588 615 q 410 797 500 797 q 276 707 319 797 q 233 425 233 617 q 276 144 233 235 q 410 54 319 54 m 588 1128 q 411 925 588 925 q 236 1128 236 925 l 308 1128 q 333 1057 308 1082 q 411 1032 358 1032 q 488 1057 463 1032 q 513 1128 513 1082 l 588 1128 z "},"Ô":{"ha":822,"x_min":58,"x_max":763,"o":"m 410 -17 q 144 91 229 -17 q 58 425 58 199 q 144 761 58 654 q 410 868 229 868 q 676 760 590 868 q 763 425 763 653 q 677 91 763 199 q 410 -17 592 -17 m 410 54 q 544 146 500 54 q 588 425 588 238 q 544 706 588 615 q 410 797 500 797 q 276 707 319 797 q 233 425 233 617 q 276 144 233 235 q 410 54 319 54 m 372 1165 l 451 1165 l 585 954 l 539 914 l 410 1031 l 285 914 l 238 954 l 372 1165 z "},"Ö":{"ha":822,"x_min":58,"x_max":763,"o":"m 410 -17 q 144 91 229 -17 q 58 425 58 199 q 144 761 58 654 q 410 868 229 868 q 676 760 590 868 q 763 425 763 653 q 677 91 763 199 q 410 -17 592 -17 m 410 54 q 544 146 500 54 q 588 425 588 238 q 544 706 588 615 q 410 797 500 797 q 276 707 319 797 q 233 425 233 617 q 276 144 233 235 q 410 54 319 54 m 275 935 q 208 963 236 935 q 181 1029 181 992 q 208 1098 181 1069 q 275 1126 236 1126 q 342 1097 314 1126 q 371 1029 371 1068 q 342 963 371 990 q 275 935 314 935 m 549 935 q 483 963 511 935 q 454 1029 454 992 q 482 1098 454 1069 q 549 1126 510 1126 q 616 1098 588 1126 q 644 1029 644 1069 q 616 963 644 990 q 549 935 588 935 z "},"Ò":{"ha":822,"x_min":58,"x_max":763,"o":"m 410 -17 q 144 91 229 -17 q 58 425 58 199 q 144 761 58 654 q 410 868 229 868 q 676 760 590 868 q 763 425 763 653 q 677 91 763 199 q 410 -17 592 -17 m 410 54 q 544 146 500 54 q 588 425 588 238 q 544 706 588 615 q 410 797 500 797 q 276 707 319 797 q 233 425 233 617 q 276 144 233 235 q 410 54 319 54 m 468 919 l 233 1074 l 338 1192 l 503 958 l 468 919 z "},"Ő":{"ha":822,"x_min":58,"x_max":763,"o":"m 410 -17 q 144 91 229 -17 q 58 425 58 199 q 144 761 58 654 q 410 868 229 868 q 676 760 590 868 q 763 425 763 653 q 677 91 763 199 q 410 -17 592 -17 m 410 54 q 544 146 500 54 q 588 425 588 238 q 544 706 588 615 q 410 797 500 797 q 276 707 319 797 q 233 425 233 617 q 276 144 233 235 q 410 54 319 54 m 346 1192 l 449 1074 l 215 919 l 181 958 l 346 1192 m 607 1192 l 708 1074 l 476 919 l 442 958 l 607 1192 z "},"Ō":{"ha":822,"x_min":58,"x_max":763,"o":"m 410 -17 q 144 91 229 -17 q 58 425 58 199 q 144 761 58 654 q 410 868 229 868 q 676 760 590 868 q 763 425 763 653 q 677 91 763 199 q 410 -17 592 -17 m 410 54 q 544 146 500 54 q 588 425 588 238 q 544 706 588 615 q 410 797 500 797 q 276 707 319 797 q 233 425 233 617 q 276 144 233 235 q 410 54 319 54 m 589 1082 l 589 961 l 236 961 l 236 1082 l 589 1082 z "},"Ø":{"ha":822,"x_min":58,"x_max":763,"o":"m 546 849 q 709 709 656 814 q 763 425 763 604 q 677 91 763 199 q 410 -17 592 -17 q 346 -12 375 -17 l 333 -65 l 263 -65 l 278 1 q 112 140 165 36 q 58 425 58 244 q 144 761 58 654 q 410 868 229 868 q 476 864 446 868 l 488 914 l 561 914 l 546 849 m 233 425 q 301 104 233 186 l 458 789 q 410 797 438 797 q 276 707 319 797 q 233 425 233 617 m 410 54 q 544 146 500 54 q 588 425 588 238 q 521 743 588 660 l 363 61 q 410 54 388 54 z "},"Ǿ":{"ha":822,"x_min":58,"x_max":763,"o":"m 518 1193 l 621 1075 l 388 921 l 353 960 l 518 1193 m 546 849 q 709 709 656 814 q 763 425 763 604 q 677 91 763 199 q 410 -17 592 -17 q 346 -12 375 -17 l 333 -65 l 263 -65 l 278 1 q 112 140 165 36 q 58 425 58 244 q 144 761 58 654 q 410 868 229 868 q 476 864 446 868 l 488 914 l 561 914 l 546 849 m 233 425 q 301 104 233 186 l 458 789 q 410 797 438 797 q 276 707 319 797 q 233 425 233 617 m 410 54 q 544 146 500 54 q 588 425 588 238 q 521 743 588 660 l 363 61 q 410 54 388 54 z "},"Õ":{"ha":822,"x_min":58,"x_max":763,"o":"m 410 -17 q 144 91 229 -17 q 58 425 58 199 q 144 761 58 654 q 410 868 229 868 q 676 760 590 868 q 763 425 763 653 q 677 91 763 199 q 410 -17 592 -17 m 410 54 q 544 146 500 54 q 588 425 588 238 q 544 706 588 615 q 410 797 500 797 q 276 707 319 797 q 233 425 233 617 q 276 144 233 235 q 410 54 319 54 m 500 957 q 450 963 474 957 q 399 982 426 969 q 329 1000 354 1000 q 260 946 281 1000 l 206 965 q 249 1082 217 1046 q 325 1118 282 1118 q 374 1112 351 1118 q 424 1093 396 1106 q 460 1080 442 1086 q 494 1074 478 1074 q 538 1085 521 1074 q 563 1122 554 1097 l 617 1104 q 574 992 606 1026 q 500 957 542 957 z "},"Œ":{"ha":1100,"x_min":58,"x_max":1065,"o":"m 1065 86 l 1065 0 l 406 0 q 134 112 210 0 q 58 425 58 224 q 134 739 58 626 q 406 851 210 851 l 407 851 l 407 851 l 1042 851 l 1042 765 l 653 765 q 723 645 700 718 q 750 476 746 572 l 1013 476 l 1013 390 l 750 390 q 725 213 747 289 q 653 86 703 136 l 1065 86 m 233 425 q 271 175 233 264 q 406 86 308 86 q 540 175 503 86 q 576 425 576 264 q 540 676 576 588 q 406 765 503 765 q 272 676 310 765 q 233 425 233 586 z "},"P":{"ha":700,"x_min":106,"x_max":686,"o":"m 411 851 q 623 774 560 851 q 686 574 686 697 q 623 376 686 453 q 411 300 560 300 l 281 300 l 281 0 l 106 0 l 106 851 l 411 851 m 382 363 q 479 417 447 363 q 511 574 511 472 q 479 732 511 676 q 382 788 447 788 l 281 788 l 281 363 l 382 363 z "},"Þ":{"ha":700,"x_min":106,"x_max":686,"o":"m 411 701 q 623 624 560 701 q 686 425 686 547 q 623 227 686 304 q 411 150 560 150 l 281 150 l 281 0 l 106 0 l 106 851 l 281 851 l 281 701 l 411 701 m 382 215 q 479 269 447 215 q 511 425 511 324 q 479 582 511 528 q 382 636 447 636 l 281 636 l 281 215 l 382 215 z "},"Q":{"ha":811,"x_min":58,"x_max":763,"o":"m 763 425 q 709 140 763 244 q 543 1 656 36 l 743 -78 l 682 -192 l 374 -15 q 135 103 213 -4 q 58 425 58 210 q 144 761 58 654 q 410 868 229 868 q 676 760 590 868 q 763 425 763 653 m 233 425 q 276 144 233 235 q 410 54 319 54 q 544 146 500 54 q 588 425 588 238 q 544 706 588 615 q 410 797 500 797 q 276 707 319 797 q 233 425 233 617 z "},"R":{"ha":776,"x_min":106,"x_max":735,"o":"m 735 0 l 546 0 l 425 300 q 392 347 411 336 q 331 357 374 357 l 281 357 l 281 0 l 106 0 l 106 851 l 414 851 q 635 776 571 851 q 699 592 699 700 q 663 459 699 518 q 542 374 628 400 q 606 313 585 356 l 735 0 m 390 421 q 490 472 457 421 q 524 592 524 522 q 490 731 524 674 q 390 788 457 788 l 281 788 l 281 421 l 390 421 z "},"Ŕ":{"ha":776,"x_min":106,"x_max":735,"o":"m 735 0 l 546 0 l 425 300 q 392 347 411 336 q 331 357 374 357 l 281 357 l 281 0 l 106 0 l 106 851 l 414 851 q 635 776 571 851 q 699 592 699 700 q 663 459 699 518 q 542 374 628 400 q 606 313 585 356 l 735 0 m 390 421 q 490 472 457 421 q 524 592 524 522 q 490 731 524 674 q 390 788 457 788 l 281 788 l 281 421 l 390 421 m 463 1193 l 565 1074 l 332 919 l 297 958 l 463 1193 z "},"Ř":{"ha":776,"x_min":106,"x_max":735,"o":"m 735 0 l 546 0 l 425 300 q 392 347 411 336 q 331 357 374 357 l 281 357 l 281 0 l 106 0 l 106 851 l 414 851 q 635 776 571 851 q 699 592 699 700 q 663 459 699 518 q 542 374 628 400 q 606 313 585 356 l 735 0 m 390 421 q 490 472 457 421 q 524 592 524 522 q 490 731 524 674 q 390 788 457 788 l 281 788 l 281 421 l 390 421 m 263 1165 l 388 1049 l 517 1165 l 563 1125 l 429 914 l 350 914 l 215 1125 l 263 1165 z "},"Ŗ":{"ha":776,"x_min":106,"x_max":735,"o":"m 735 0 l 546 0 l 425 300 q 392 347 411 336 q 331 357 374 357 l 281 357 l 281 0 l 106 0 l 106 851 l 414 851 q 635 776 571 851 q 699 592 699 700 q 663 459 699 518 q 542 374 628 400 q 606 313 585 356 l 735 0 m 390 421 q 490 472 457 421 q 524 592 524 522 q 490 731 524 674 q 390 788 457 788 l 281 788 l 281 421 l 390 421 m 385 -58 q 446 -86 421 -58 q 471 -157 471 -114 q 427 -290 471 -231 q 317 -389 383 -350 l 286 -351 q 317 -308 308 -329 q 326 -257 326 -287 q 321 -228 326 -244 q 314 -206 315 -211 q 299 -144 299 -169 q 324 -84 299 -110 q 385 -58 349 -58 z "},"S":{"ha":717,"x_min":47,"x_max":669,"o":"m 363 868 q 572 805 499 868 q 664 610 646 742 l 522 590 q 474 743 515 689 q 361 797 432 797 q 247 760 288 797 q 206 656 206 722 q 221 588 206 614 q 271 545 236 563 q 371 511 306 528 l 444 492 q 618 403 567 461 q 669 236 669 344 q 590 49 669 114 q 360 -17 510 -17 q 139 47 215 -17 q 47 242 63 110 l 186 263 q 240 108 196 161 q 360 54 285 54 q 483 91 440 54 q 526 197 526 128 q 511 264 526 239 q 460 306 496 289 q 353 340 424 324 l 288 357 q 116 444 167 385 q 65 614 65 503 q 140 804 65 740 q 363 868 215 868 z "},"Ś":{"ha":717,"x_min":47,"x_max":669,"o":"m 363 868 q 572 805 499 868 q 664 610 646 742 l 522 590 q 474 743 515 689 q 361 797 432 797 q 247 760 288 797 q 206 656 206 722 q 221 588 206 614 q 271 545 236 563 q 371 511 306 528 l 444 492 q 618 403 567 461 q 669 236 669 344 q 590 49 669 114 q 360 -17 510 -17 q 139 47 215 -17 q 47 242 63 110 l 186 263 q 240 108 196 161 q 360 54 285 54 q 483 91 440 54 q 526 197 526 128 q 511 264 526 239 q 460 306 496 289 q 353 340 424 324 l 288 357 q 116 444 167 385 q 65 614 65 503 q 140 804 65 740 q 363 868 215 868 m 440 1193 l 543 1074 l 310 919 l 275 958 l 440 1193 z "},"Š":{"ha":717,"x_min":47,"x_max":669,"o":"m 363 868 q 572 805 499 868 q 664 610 646 742 l 522 590 q 474 743 515 689 q 361 797 432 797 q 247 760 288 797 q 206 656 206 722 q 221 588 206 614 q 271 545 236 563 q 371 511 306 528 l 444 492 q 618 403 567 461 q 669 236 669 344 q 590 49 669 114 q 360 -17 510 -17 q 139 47 215 -17 q 47 242 63 110 l 186 263 q 240 108 196 161 q 360 54 285 54 q 483 91 440 54 q 526 197 526 128 q 511 264 526 239 q 460 306 496 289 q 353 340 424 324 l 288 357 q 116 444 167 385 q 65 614 65 503 q 140 804 65 740 q 363 868 215 868 m 242 1165 l 367 1049 l 496 1165 l 542 1125 l 408 914 l 329 914 l 194 1125 l 242 1165 z "},"Ş":{"ha":717,"x_min":47,"x_max":669,"o":"m 669 236 q 599 56 669 121 q 393 -15 528 -8 l 381 -54 q 474 -91 439 -61 q 508 -171 508 -121 q 476 -258 508 -224 q 369 -293 443 -293 q 266 -262 300 -293 q 232 -174 232 -232 l 328 -162 q 339 -217 328 -197 q 368 -236 350 -236 q 403 -185 403 -236 q 381 -133 403 -153 q 296 -103 358 -114 l 321 -15 q 129 55 196 -8 q 47 242 63 118 l 186 263 q 240 108 196 161 q 360 54 285 54 q 483 91 440 54 q 526 197 526 128 q 511 264 526 239 q 460 306 496 289 q 353 340 424 324 l 288 357 q 116 444 167 385 q 65 614 65 503 q 140 804 65 740 q 363 868 215 868 q 572 805 499 868 q 664 610 646 742 l 522 590 q 474 743 515 689 q 361 797 432 797 q 247 760 288 797 q 206 656 206 722 q 221 588 206 614 q 271 545 236 563 q 371 511 306 528 l 444 492 q 618 403 567 461 q 669 236 669 344 z "},"Ŝ":{"ha":717,"x_min":47,"x_max":669,"o":"m 363 868 q 572 805 499 868 q 664 610 646 742 l 522 590 q 474 743 515 689 q 361 797 432 797 q 247 760 288 797 q 206 656 206 722 q 221 588 206 614 q 271 545 236 563 q 371 511 306 528 l 444 492 q 618 403 567 461 q 669 236 669 344 q 590 49 669 114 q 360 -17 510 -17 q 139 47 215 -17 q 47 242 63 110 l 186 263 q 240 108 196 161 q 360 54 285 54 q 483 91 440 54 q 526 197 526 128 q 511 264 526 239 q 460 306 496 289 q 353 340 424 324 l 288 357 q 116 444 167 385 q 65 614 65 503 q 140 804 65 740 q 363 868 215 868 m 326 1167 l 406 1167 l 539 954 l 493 914 l 364 1032 l 239 914 l 192 954 l 326 1167 z "},"Ș":{"ha":717,"x_min":47,"x_max":669,"o":"m 363 868 q 572 805 499 868 q 664 610 646 742 l 522 590 q 474 743 515 689 q 361 797 432 797 q 247 760 288 797 q 206 656 206 722 q 221 588 206 614 q 271 545 236 563 q 371 511 306 528 l 444 492 q 618 403 567 461 q 669 236 669 344 q 590 49 669 114 q 360 -17 510 -17 q 139 47 215 -17 q 47 242 63 110 l 186 263 q 240 108 196 161 q 360 54 285 54 q 483 91 440 54 q 526 197 526 128 q 511 264 526 239 q 460 306 496 289 q 353 340 424 324 l 288 357 q 116 444 167 385 q 65 614 65 503 q 140 804 65 740 q 363 868 215 868 m 356 -58 q 417 -86 392 -58 q 442 -157 442 -114 q 398 -290 442 -231 q 288 -389 354 -350 l 257 -351 q 288 -308 279 -329 q 297 -257 297 -287 q 292 -228 297 -244 q 285 -206 286 -211 q 269 -144 269 -169 q 294 -84 269 -110 q 356 -58 319 -58 z "},"T":{"ha":607,"x_min":-7,"x_max":614,"o":"m 614 851 l 614 765 l 392 765 l 392 0 l 217 0 l 217 765 l -7 765 l -7 851 l 614 851 z "},"Ŧ":{"ha":607,"x_min":-7,"x_max":614,"o":"m 392 765 l 392 451 l 571 451 l 571 342 l 392 342 l 392 0 l 217 0 l 217 342 l 39 342 l 39 451 l 217 451 l 217 765 l -7 765 l -7 851 l 614 851 l 614 765 l 392 765 z "},"Ť":{"ha":607,"x_min":-7,"x_max":614,"o":"m 614 851 l 614 765 l 392 765 l 392 0 l 217 0 l 217 765 l -7 765 l -7 851 l 614 851 m 179 1165 l 304 1049 l 433 1165 l 479 1125 l 346 914 l 267 914 l 132 1125 l 179 1165 z "},"Ţ":{"ha":607,"x_min":-7,"x_max":614,"o":"m 344 0 l 326 -54 q 419 -91 385 -61 q 454 -171 454 -121 q 422 -258 454 -224 q 315 -293 389 -293 q 212 -262 246 -293 q 178 -174 178 -232 l 274 -162 q 285 -217 274 -197 q 314 -236 296 -236 q 349 -185 349 -236 q 326 -133 349 -153 q 242 -103 304 -114 l 272 0 l 217 0 l 217 765 l -7 765 l -7 851 l 614 851 l 614 765 l 392 765 l 392 0 l 344 0 z "},"Ț":{"ha":607,"x_min":-7,"x_max":614,"o":"m 614 851 l 614 765 l 392 765 l 392 0 l 217 0 l 217 765 l -7 765 l -7 851 l 614 851 m 301 -58 q 363 -86 338 -58 q 388 -157 388 -114 q 344 -290 388 -231 q 233 -389 300 -350 l 203 -351 q 234 -308 225 -329 q 243 -257 243 -287 q 238 -228 243 -244 q 231 -206 232 -211 q 215 -144 215 -169 q 240 -84 215 -110 q 301 -58 265 -58 z "},"U":{"ha":821,"x_min":89,"x_max":733,"o":"m 733 282 q 687 106 733 172 q 569 11 640 39 q 421 -17 499 -17 q 183 51 276 -17 q 89 282 89 119 l 89 851 l 264 851 l 264 282 q 310 120 264 171 q 432 69 356 69 q 574 121 518 69 q 631 282 631 172 l 631 851 l 733 851 l 733 282 z "},"Ú":{"ha":821,"x_min":89,"x_max":733,"o":"m 733 282 q 687 106 733 172 q 569 11 640 39 q 421 -17 499 -17 q 183 51 276 -17 q 89 282 89 119 l 89 851 l 264 851 l 264 282 q 310 120 264 171 q 432 69 356 69 q 574 121 518 69 q 631 282 631 172 l 631 851 l 733 851 l 733 282 m 499 1192 l 601 1074 l 368 919 l 333 958 l 499 1192 z "},"Ŭ":{"ha":821,"x_min":89,"x_max":733,"o":"m 733 282 q 687 106 733 172 q 569 11 640 39 q 421 -17 499 -17 q 183 51 276 -17 q 89 282 89 119 l 89 851 l 264 851 l 264 282 q 310 120 264 171 q 432 69 356 69 q 574 121 518 69 q 631 282 631 172 l 631 851 l 733 851 l 733 282 m 599 1128 q 422 925 599 925 q 247 1128 247 925 l 319 1128 q 344 1057 319 1082 q 422 1032 369 1032 q 499 1057 474 1032 q 524 1128 524 1082 l 599 1128 z "},"Û":{"ha":821,"x_min":89,"x_max":733,"o":"m 733 282 q 687 106 733 172 q 569 11 640 39 q 421 -17 499 -17 q 183 51 276 -17 q 89 282 89 119 l 89 851 l 264 851 l 264 282 q 310 120 264 171 q 432 69 356 69 q 574 121 518 69 q 631 282 631 172 l 631 851 l 733 851 l 733 282 m 383 1165 l 463 1165 l 596 954 l 550 914 l 421 1031 l 296 914 l 249 954 l 383 1165 z "},"Ü":{"ha":821,"x_min":89,"x_max":733,"o":"m 733 282 q 687 106 733 172 q 569 11 640 39 q 421 -17 499 -17 q 183 51 276 -17 q 89 282 89 119 l 89 851 l 264 851 l 264 282 q 310 120 264 171 q 432 69 356 69 q 574 121 518 69 q 631 282 631 172 l 631 851 l 733 851 l 733 282 m 286 935 q 219 963 247 935 q 192 1029 192 992 q 219 1098 192 1069 q 286 1126 247 1126 q 353 1097 325 1126 q 382 1029 382 1068 q 353 963 382 990 q 286 935 325 935 m 560 935 q 494 963 522 935 q 465 1029 465 992 q 493 1098 465 1069 q 560 1126 521 1126 q 627 1098 599 1126 q 656 1029 656 1069 q 627 963 656 990 q 560 935 599 935 z "},"Ù":{"ha":821,"x_min":89,"x_max":733,"o":"m 733 282 q 687 106 733 172 q 569 11 640 39 q 421 -17 499 -17 q 183 51 276 -17 q 89 282 89 119 l 89 851 l 264 851 l 264 282 q 310 120 264 171 q 432 69 356 69 q 574 121 518 69 q 631 282 631 172 l 631 851 l 733 851 l 733 282 m 479 919 l 244 1074 l 349 1192 l 514 958 l 479 919 z "},"Ű":{"ha":821,"x_min":89,"x_max":733,"o":"m 733 282 q 687 106 733 172 q 569 11 640 39 q 421 -17 499 -17 q 183 51 276 -17 q 89 282 89 119 l 89 851 l 264 851 l 264 282 q 310 120 264 171 q 432 69 356 69 q 574 121 518 69 q 631 282 631 172 l 631 851 l 733 851 l 733 282 m 357 1192 l 460 1074 l 226 919 l 192 958 l 357 1192 m 618 1192 l 719 1074 l 488 919 l 453 958 l 618 1192 z "},"Ū":{"ha":821,"x_min":89,"x_max":733,"o":"m 733 282 q 687 106 733 172 q 569 11 640 39 q 421 -17 499 -17 q 183 51 276 -17 q 89 282 89 119 l 89 851 l 264 851 l 264 282 q 310 120 264 171 q 432 69 356 69 q 574 121 518 69 q 631 282 631 172 l 631 851 l 733 851 l 733 282 m 600 1082 l 600 961 l 247 961 l 247 1082 l 600 1082 z "},"Ų":{"ha":821,"x_min":89,"x_max":733,"o":"m 733 851 l 733 282 q 665 77 733 147 q 492 -11 596 7 l 456 -33 q 406 -76 419 -57 q 393 -119 393 -96 q 408 -152 393 -140 q 443 -164 422 -164 q 533 -99 493 -164 l 589 -135 q 518 -216 564 -181 q 421 -251 472 -251 q 335 -223 368 -251 q 303 -147 303 -194 q 326 -77 303 -108 q 392 -17 349 -46 q 174 60 258 -10 q 89 282 89 129 l 89 851 l 264 851 l 264 282 q 310 120 264 171 q 432 69 356 69 q 574 121 518 69 q 631 282 631 172 l 631 851 l 733 851 z "},"Ů":{"ha":821,"x_min":89,"x_max":733,"o":"m 733 282 q 687 106 733 172 q 569 11 640 39 q 421 -17 499 -17 q 183 51 276 -17 q 89 282 89 119 l 89 851 l 264 851 l 264 282 q 310 120 264 171 q 432 69 356 69 q 574 121 518 69 q 631 282 631 172 l 631 851 l 733 851 l 733 282 m 422 907 q 317 947 346 907 q 288 1042 288 986 q 317 1137 288 1097 q 422 1176 346 1176 q 530 1137 500 1176 q 560 1042 560 1097 q 530 947 560 986 q 422 907 500 907 m 424 964 q 463 988 453 964 q 474 1042 474 1011 q 424 1121 474 1121 q 376 1042 376 1121 q 424 964 376 964 z "},"Ũ":{"ha":821,"x_min":89,"x_max":733,"o":"m 733 282 q 687 106 733 172 q 569 11 640 39 q 421 -17 499 -17 q 183 51 276 -17 q 89 282 89 119 l 89 851 l 264 851 l 264 282 q 310 120 264 171 q 432 69 356 69 q 574 121 518 69 q 631 282 631 172 l 631 851 l 733 851 l 733 282 m 511 957 q 461 963 485 957 q 410 982 438 969 q 340 1000 365 1000 q 299 987 315 1000 q 271 946 282 974 l 217 965 q 260 1083 228 1047 q 336 1118 293 1118 q 382 1113 361 1118 q 435 1094 403 1107 q 471 1081 453 1088 q 506 1075 489 1075 q 547 1087 532 1075 q 574 1124 563 1099 l 628 1104 q 585 992 617 1028 q 511 957 553 957 z "},"V":{"ha":739,"x_min":7,"x_max":733,"o":"m 733 851 l 472 0 l 268 0 l 7 851 l 182 851 l 406 81 l 629 851 l 733 851 z "},"W":{"ha":1071,"x_min":24,"x_max":1047,"o":"m 1047 851 l 867 0 l 711 0 l 542 658 l 371 0 l 204 0 l 24 851 l 199 851 l 328 210 l 492 851 l 653 851 l 814 208 l 943 851 l 1047 851 z "},"Ẃ":{"ha":1071,"x_min":24,"x_max":1047,"o":"m 1047 851 l 867 0 l 711 0 l 542 658 l 371 0 l 204 0 l 24 851 l 199 851 l 328 210 l 492 851 l 653 851 l 814 208 l 943 851 l 1047 851 m 646 1193 l 749 1074 l 515 919 l 481 958 l 646 1193 z "},"Ŵ":{"ha":1071,"x_min":24,"x_max":1047,"o":"m 1047 851 l 867 0 l 711 0 l 542 658 l 371 0 l 204 0 l 24 851 l 199 851 l 328 210 l 492 851 l 653 851 l 814 208 l 943 851 l 1047 851 m 532 1167 l 611 1167 l 744 954 l 699 914 l 569 1032 l 444 914 l 397 954 l 532 1167 z "},"Ẅ":{"ha":1071,"x_min":24,"x_max":1047,"o":"m 1047 851 l 867 0 l 711 0 l 542 658 l 371 0 l 204 0 l 24 851 l 199 851 l 328 210 l 492 851 l 653 851 l 814 208 l 943 851 l 1047 851 m 435 936 q 368 965 396 936 q 340 1032 340 993 q 368 1099 340 1071 q 435 1126 396 1126 q 502 1099 474 1126 q 531 1032 531 1071 q 502 965 531 993 q 435 936 474 936 m 708 936 q 642 965 669 936 q 614 1032 614 993 q 642 1099 614 1071 q 708 1126 669 1126 q 776 1099 747 1126 q 804 1032 804 1071 q 776 965 804 993 q 708 936 749 936 z "},"Ẁ":{"ha":1071,"x_min":24,"x_max":1047,"o":"m 1047 851 l 867 0 l 711 0 l 542 658 l 371 0 l 204 0 l 24 851 l 199 851 l 328 210 l 492 851 l 653 851 l 814 208 l 943 851 l 1047 851 m 628 919 l 393 1074 l 497 1193 l 663 958 l 628 919 z "},"X":{"ha":724,"x_min":-6,"x_max":749,"o":"m 549 0 l 332 332 l 107 0 l 1 0 l 282 408 l -6 851 l 194 851 l 403 531 l 628 851 l 732 851 l 453 453 l 749 0 l 549 0 z "},"Y":{"ha":678,"x_min":-12,"x_max":689,"o":"m 426 293 l 426 0 l 251 0 l 251 293 l -12 851 l 163 851 l 371 390 l 586 851 l 689 851 l 426 293 z "},"Ý":{"ha":678,"x_min":-12,"x_max":689,"o":"m 426 293 l 426 0 l 251 0 l 251 293 l -12 851 l 163 851 l 371 390 l 586 851 l 689 851 l 426 293 m 415 1192 l 518 1074 l 285 919 l 250 958 l 415 1192 z "},"Ŷ":{"ha":678,"x_min":-12,"x_max":689,"o":"m 426 293 l 426 0 l 251 0 l 251 293 l -12 851 l 163 851 l 371 390 l 586 851 l 689 851 l 426 293 m 300 1167 l 379 1167 l 513 954 l 467 914 l 338 1032 l 213 914 l 165 954 l 300 1167 z "},"Ÿ":{"ha":678,"x_min":-12,"x_max":689,"o":"m 426 293 l 426 0 l 251 0 l 251 293 l -12 851 l 163 851 l 371 390 l 586 851 l 689 851 l 426 293 m 204 935 q 138 963 165 935 q 110 1029 110 992 q 138 1098 110 1069 q 204 1126 165 1126 q 272 1097 243 1126 q 300 1029 300 1068 q 272 963 300 990 q 204 935 243 935 m 478 935 q 412 963 440 935 q 383 1029 383 992 q 411 1098 383 1069 q 478 1126 439 1126 q 545 1098 517 1126 q 574 1029 574 1069 q 545 963 574 990 q 478 935 517 935 z "},"Ỳ":{"ha":678,"x_min":-12,"x_max":689,"o":"m 426 293 l 426 0 l 251 0 l 251 293 l -12 851 l 163 851 l 371 390 l 586 851 l 689 851 l 426 293 m 396 919 l 161 1074 l 265 1193 l 431 958 l 396 919 z "},"Z":{"ha":660,"x_min":24,"x_max":636,"o":"m 636 86 l 636 0 l 24 0 l 24 111 l 446 765 l 47 765 l 47 851 l 625 851 l 625 742 l 203 86 l 636 86 z "},"Ź":{"ha":660,"x_min":24,"x_max":636,"o":"m 636 86 l 636 0 l 24 0 l 24 111 l 446 765 l 47 765 l 47 851 l 625 851 l 625 742 l 203 86 l 636 86 m 403 1193 l 506 1074 l 272 919 l 238 958 l 403 1193 z "},"Ž":{"ha":660,"x_min":24,"x_max":636,"o":"m 636 86 l 636 0 l 24 0 l 24 111 l 446 765 l 47 765 l 47 851 l 625 851 l 625 742 l 203 86 l 636 86 m 204 1165 l 329 1049 l 458 1165 l 504 1125 l 371 914 l 292 914 l 157 1125 l 204 1165 z "},"Ż":{"ha":660,"x_min":24,"x_max":636,"o":"m 636 86 l 636 0 l 24 0 l 24 111 l 446 765 l 47 765 l 47 851 l 625 851 l 625 742 l 203 86 l 636 86 m 329 928 q 256 958 286 928 q 225 1032 225 989 q 256 1106 225 1075 q 329 1136 286 1136 q 403 1106 372 1136 q 435 1032 435 1075 q 403 958 435 989 q 329 928 372 928 z "},"a":{"ha":721,"x_min":60,"x_max":628,"o":"m 247 -17 q 110 31 161 -17 q 60 161 60 79 q 124 299 60 250 q 321 369 189 347 l 454 393 l 454 461 q 354 597 454 597 q 266 560 294 597 q 233 442 238 522 l 89 457 q 159 627 99 571 q 357 683 219 683 q 559 625 490 683 q 628 451 628 567 l 628 0 l 515 0 l 465 88 q 367 9 422 35 q 247 -17 311 -17 m 310 74 q 390 97 351 74 q 454 150 429 119 l 454 322 l 344 301 q 217 171 217 276 q 242 100 217 126 q 310 74 267 74 z "},"á":{"ha":721,"x_min":60,"x_max":628,"o":"m 247 -17 q 110 31 161 -17 q 60 161 60 79 q 124 299 60 250 q 321 369 189 347 l 454 393 l 454 461 q 354 597 454 597 q 266 560 294 597 q 233 442 238 522 l 89 457 q 159 627 99 571 q 357 683 219 683 q 559 625 490 683 q 628 451 628 567 l 628 0 l 515 0 l 465 88 q 367 9 422 35 q 247 -17 311 -17 m 310 74 q 390 97 351 74 q 454 150 429 119 l 454 322 l 344 301 q 217 171 217 276 q 242 100 217 126 q 310 74 267 74 m 442 1007 l 544 889 l 311 735 l 276 774 l 442 1007 z "},"ă":{"ha":721,"x_min":60,"x_max":628,"o":"m 247 -17 q 110 31 161 -17 q 60 161 60 79 q 124 299 60 250 q 321 369 189 347 l 454 393 l 454 461 q 354 597 454 597 q 266 560 294 597 q 233 442 238 522 l 89 457 q 159 627 99 571 q 357 683 219 683 q 559 625 490 683 q 628 451 628 567 l 628 0 l 515 0 l 465 88 q 367 9 422 35 q 247 -17 311 -17 m 310 74 q 390 97 351 74 q 454 150 429 119 l 454 322 l 344 301 q 217 171 217 276 q 242 100 217 126 q 310 74 267 74 m 543 943 q 367 740 543 740 q 192 943 192 740 l 264 943 q 289 871 264 897 q 367 844 314 844 q 443 871 418 844 q 468 943 468 897 l 543 943 z "},"â":{"ha":721,"x_min":60,"x_max":628,"o":"m 247 -17 q 110 31 161 -17 q 60 161 60 79 q 124 299 60 250 q 321 369 189 347 l 454 393 l 454 461 q 354 597 454 597 q 266 560 294 597 q 233 442 238 522 l 89 457 q 159 627 99 571 q 357 683 219 683 q 559 625 490 683 q 628 451 628 567 l 628 0 l 515 0 l 465 88 q 367 9 422 35 q 247 -17 311 -17 m 310 74 q 390 97 351 74 q 454 150 429 119 l 454 322 l 344 301 q 217 171 217 276 q 242 100 217 126 q 310 74 267 74 m 328 981 l 407 981 l 540 769 l 494 729 l 365 846 l 240 729 l 193 769 l 328 981 z "},"ä":{"ha":721,"x_min":60,"x_max":628,"o":"m 247 -17 q 110 31 161 -17 q 60 161 60 79 q 124 299 60 250 q 321 369 189 347 l 454 393 l 454 461 q 354 597 454 597 q 266 560 294 597 q 233 442 238 522 l 89 457 q 159 627 99 571 q 357 683 219 683 q 559 625 490 683 q 628 451 628 567 l 628 0 l 515 0 l 465 88 q 367 9 422 35 q 247 -17 311 -17 m 310 74 q 390 97 351 74 q 454 150 429 119 l 454 322 l 344 301 q 217 171 217 276 q 242 100 217 126 q 310 74 267 74 m 231 750 q 164 778 192 750 q 136 844 136 807 q 164 913 136 885 q 231 942 192 942 q 298 913 269 942 q 326 844 326 883 q 298 778 326 806 q 231 750 269 750 m 504 750 q 438 778 467 750 q 410 844 410 807 q 438 913 410 885 q 504 942 465 942 q 572 913 543 942 q 600 844 600 885 q 572 778 600 806 q 504 750 543 750 z "},"à":{"ha":721,"x_min":60,"x_max":628,"o":"m 247 -17 q 110 31 161 -17 q 60 161 60 79 q 124 299 60 250 q 321 369 189 347 l 454 393 l 454 461 q 354 597 454 597 q 266 560 294 597 q 233 442 238 522 l 89 457 q 159 627 99 571 q 357 683 219 683 q 559 625 490 683 q 628 451 628 567 l 628 0 l 515 0 l 465 88 q 367 9 422 35 q 247 -17 311 -17 m 310 74 q 390 97 351 74 q 454 150 429 119 l 454 322 l 344 301 q 217 171 217 276 q 242 100 217 126 q 310 74 267 74 m 424 735 l 189 889 l 293 1007 l 458 774 l 424 735 z "},"ā":{"ha":721,"x_min":60,"x_max":628,"o":"m 247 -17 q 110 31 161 -17 q 60 161 60 79 q 124 299 60 250 q 321 369 189 347 l 454 393 l 454 461 q 354 597 454 597 q 266 560 294 597 q 233 442 238 522 l 89 457 q 159 627 99 571 q 357 683 219 683 q 559 625 490 683 q 628 451 628 567 l 628 0 l 515 0 l 465 88 q 367 9 422 35 q 247 -17 311 -17 m 310 74 q 390 97 351 74 q 454 150 429 119 l 454 322 l 344 301 q 217 171 217 276 q 242 100 217 126 q 310 74 267 74 m 544 896 l 544 776 l 192 776 l 192 896 l 544 896 z "},"ą":{"ha":721,"x_min":60,"x_max":688,"o":"m 688 -135 q 617 -216 663 -181 q 519 -251 571 -251 q 434 -223 467 -251 q 401 -147 401 -194 q 428 -72 401 -104 q 504 -7 454 -39 l 515 0 l 465 88 q 367 9 422 35 q 247 -17 311 -17 q 110 31 161 -17 q 60 161 60 79 q 124 299 60 250 q 321 369 189 347 l 454 393 l 454 461 q 354 597 454 597 q 266 560 294 597 q 233 442 238 522 l 89 457 q 159 627 99 571 q 357 683 219 683 q 559 625 490 683 q 628 451 628 567 l 628 0 l 608 0 l 554 -33 q 505 -76 518 -57 q 492 -119 492 -96 q 506 -152 492 -140 q 542 -164 521 -164 q 632 -99 592 -164 l 688 -135 m 454 322 l 344 301 q 217 171 217 276 q 242 100 217 126 q 310 74 267 74 q 390 97 351 74 q 454 150 429 119 l 454 322 z "},"å":{"ha":721,"x_min":60,"x_max":628,"o":"m 247 -17 q 110 31 161 -17 q 60 161 60 79 q 124 299 60 250 q 321 369 189 347 l 454 393 l 454 461 q 354 597 454 597 q 266 560 294 597 q 233 442 238 522 l 89 457 q 159 627 99 571 q 357 683 219 683 q 559 625 490 683 q 628 451 628 567 l 628 0 l 515 0 l 465 88 q 367 9 422 35 q 247 -17 311 -17 m 310 74 q 390 97 351 74 q 454 150 429 119 l 454 322 l 344 301 q 217 171 217 276 q 242 100 217 126 q 310 74 267 74 m 367 722 q 261 762 290 722 q 232 857 232 801 q 261 952 232 913 q 367 992 290 992 q 474 952 444 992 q 504 857 504 913 q 474 762 504 801 q 367 722 444 722 m 368 779 q 408 803 397 779 q 418 857 418 826 q 368 936 418 936 q 321 857 321 936 q 368 779 321 779 z "},"ǻ":{"ha":721,"x_min":60,"x_max":628,"o":"m 247 -17 q 110 31 161 -17 q 60 161 60 79 q 124 299 60 250 q 321 369 189 347 l 454 393 l 454 461 q 354 597 454 597 q 266 560 294 597 q 233 442 238 522 l 89 457 q 159 627 99 571 q 357 683 219 683 q 559 625 490 683 q 628 451 628 567 l 628 0 l 515 0 l 465 88 q 367 9 422 35 q 247 -17 311 -17 m 310 74 q 390 97 351 74 q 454 150 429 119 l 454 322 l 344 301 q 217 171 217 276 q 242 100 217 126 q 310 74 267 74 m 488 932 q 504 857 504 900 q 474 762 504 801 q 367 722 444 722 q 261 762 290 722 q 232 857 232 801 q 261 952 232 913 q 367 992 290 992 q 428 982 404 992 l 499 1075 l 579 983 l 488 932 m 368 779 q 408 803 397 779 q 418 857 418 826 q 368 936 418 936 q 321 857 321 936 q 368 779 321 779 z "},"ã":{"ha":721,"x_min":60,"x_max":628,"o":"m 247 -17 q 110 31 161 -17 q 60 161 60 79 q 124 299 60 250 q 321 369 189 347 l 454 393 l 454 461 q 354 597 454 597 q 266 560 294 597 q 233 442 238 522 l 89 457 q 159 627 99 571 q 357 683 219 683 q 559 625 490 683 q 628 451 628 567 l 628 0 l 515 0 l 465 88 q 367 9 422 35 q 247 -17 311 -17 m 310 74 q 390 97 351 74 q 454 150 429 119 l 454 322 l 344 301 q 217 171 217 276 q 242 100 217 126 q 310 74 267 74 m 456 772 q 406 778 429 772 q 354 797 382 785 q 285 815 310 815 q 215 761 236 815 l 161 781 q 205 897 172 861 q 281 933 238 933 q 329 927 307 933 q 379 908 351 921 q 415 895 397 901 q 450 889 433 889 q 493 901 476 889 q 518 938 510 913 l 572 919 q 529 807 561 842 q 456 772 497 772 z "},"æ":{"ha":1072,"x_min":60,"x_max":1014,"o":"m 1014 314 l 601 314 q 633 124 601 178 q 738 69 665 69 q 863 197 857 69 l 1006 192 q 933 39 994 94 q 731 -17 871 -17 q 479 96 549 -17 q 374 10 433 38 q 247 -17 314 -17 q 110 31 161 -17 q 60 161 60 79 q 124 299 60 250 q 321 369 189 347 l 431 389 q 451 501 436 457 q 357 597 435 597 q 267 560 296 597 q 233 442 238 522 l 89 457 q 158 627 97 571 q 358 683 219 683 q 539 631 474 683 q 726 683 610 683 q 952 586 890 683 q 1014 333 1014 489 l 1014 314 m 725 597 q 638 552 665 597 q 604 400 610 507 l 846 400 q 813 549 840 500 q 725 597 786 597 m 310 74 q 389 96 350 74 q 454 149 428 118 q 428 317 431 218 l 344 301 q 217 171 217 278 q 242 100 217 126 q 310 74 267 74 z "},"ǽ":{"ha":1043,"x_min":60,"x_max":1014,"o":"m 664 1007 l 767 889 l 533 735 l 499 774 l 664 1007 m 1014 314 l 601 314 q 633 124 601 178 q 738 69 665 69 q 863 197 857 69 l 1006 192 q 933 39 994 94 q 731 -17 871 -17 q 479 96 549 -17 q 374 10 433 38 q 247 -17 314 -17 q 110 31 161 -17 q 60 161 60 79 q 124 299 60 250 q 321 369 189 347 l 431 389 q 451 501 436 457 q 357 597 435 597 q 267 560 296 597 q 233 442 238 522 l 89 457 q 158 627 97 571 q 358 683 219 683 q 539 631 474 683 q 726 683 610 683 q 952 586 890 683 q 1014 333 1014 489 l 1014 314 m 725 597 q 638 552 665 597 q 604 400 610 507 l 846 400 q 813 549 840 500 q 725 597 786 597 m 310 74 q 389 96 350 74 q 454 149 428 118 q 428 317 431 218 l 344 301 q 217 171 217 278 q 242 100 217 126 q 310 74 267 74 z "},"b":{"ha":756,"x_min":106,"x_max":697,"o":"m 422 683 q 638 588 578 683 q 697 333 697 492 q 637 79 697 175 q 422 -17 576 -17 q 235 53 317 -17 l 185 0 l 106 0 l 106 875 l 279 899 l 279 651 q 422 683 350 683 m 374 82 q 489 148 454 82 q 524 333 524 214 q 489 530 524 463 q 374 597 454 597 q 279 578 326 597 l 279 110 q 374 82 321 82 z "},"c":{"ha":678,"x_min":58,"x_max":619,"o":"m 232 333 q 259 131 232 193 q 358 69 286 69 q 442 111 415 69 q 472 239 469 153 l 619 233 q 551 46 611 108 q 350 -17 492 -17 q 120 78 182 -17 q 58 333 58 174 q 120 590 58 496 q 350 683 182 683 q 550 624 490 683 q 618 446 610 564 l 472 429 q 443 557 469 517 q 358 597 417 597 q 259 535 286 597 q 232 333 232 474 z "},"ć":{"ha":678,"x_min":58,"x_max":619,"o":"m 232 333 q 259 131 232 193 q 358 69 286 69 q 442 111 415 69 q 472 239 469 153 l 619 233 q 551 46 611 108 q 350 -17 492 -17 q 120 78 182 -17 q 58 333 58 174 q 120 590 58 496 q 350 683 182 683 q 550 624 490 683 q 618 446 610 564 l 472 429 q 443 557 469 517 q 358 597 417 597 q 259 535 286 597 q 232 333 232 474 m 407 1007 l 510 889 l 276 735 l 242 774 l 407 1007 z "},"č":{"ha":678,"x_min":58,"x_max":619,"o":"m 232 333 q 259 131 232 193 q 358 69 286 69 q 442 111 415 69 q 472 239 469 153 l 619 233 q 551 46 611 108 q 350 -17 492 -17 q 120 78 182 -17 q 58 333 58 174 q 120 590 58 496 q 350 683 182 683 q 550 624 490 683 q 618 446 610 564 l 472 429 q 443 557 469 517 q 358 597 417 597 q 259 535 286 597 q 232 333 232 474 m 208 981 l 333 864 l 463 981 l 508 940 l 375 729 l 296 729 l 161 940 l 208 981 z "},"ç":{"ha":678,"x_min":58,"x_max":619,"o":"m 619 233 q 555 50 611 113 q 368 -17 499 -12 l 356 -54 q 449 -91 414 -61 q 483 -171 483 -121 q 451 -258 483 -224 q 344 -293 418 -293 q 241 -262 275 -293 q 207 -174 207 -232 l 303 -162 q 314 -217 303 -197 q 343 -236 325 -236 q 378 -185 378 -236 q 356 -133 378 -153 q 271 -103 333 -114 l 297 -14 q 110 95 161 3 q 58 333 58 188 q 120 590 58 496 q 350 683 182 683 q 550 624 490 683 q 618 446 610 564 l 472 429 q 443 557 469 517 q 358 597 417 597 q 259 535 286 597 q 232 333 232 474 q 259 131 232 193 q 358 69 286 69 q 442 111 415 69 q 472 239 469 153 l 619 233 z "},"ĉ":{"ha":678,"x_min":58,"x_max":619,"o":"m 232 333 q 259 131 232 193 q 358 69 286 69 q 442 111 415 69 q 472 239 469 153 l 619 233 q 551 46 611 108 q 350 -17 492 -17 q 120 78 182 -17 q 58 333 58 174 q 120 590 58 496 q 350 683 182 683 q 550 624 490 683 q 618 446 610 564 l 472 429 q 443 557 469 517 q 358 597 417 597 q 259 535 286 597 q 232 333 232 474 m 293 981 l 372 981 l 506 769 l 460 729 l 331 846 l 206 729 l 158 769 l 293 981 z "},"ċ":{"ha":678,"x_min":58,"x_max":619,"o":"m 232 333 q 259 131 232 193 q 358 69 286 69 q 442 111 415 69 q 472 239 469 153 l 619 233 q 551 46 611 108 q 350 -17 492 -17 q 120 78 182 -17 q 58 333 58 174 q 120 590 58 496 q 350 683 182 683 q 550 624 490 683 q 618 446 610 564 l 472 429 q 443 557 469 517 q 358 597 417 597 q 259 535 286 597 q 232 333 232 474 m 333 742 q 260 772 290 742 q 229 844 229 803 q 260 919 229 889 q 333 950 290 950 q 408 919 376 950 q 439 844 439 889 q 408 772 439 801 q 333 742 376 742 z "},"d":{"ha":756,"x_min":58,"x_max":651,"o":"m 651 899 l 651 0 l 539 0 l 496 69 q 310 -17 418 -17 q 122 69 185 -17 q 58 322 58 154 q 333 683 58 683 q 478 644 408 683 l 478 875 l 651 899 m 360 69 q 478 132 431 69 l 478 558 q 382 586 436 586 q 232 322 232 586 q 360 69 232 69 z "},"ð":{"ha":746,"x_min":58,"x_max":675,"o":"m 560 740 q 675 310 675 554 q 645 156 675 231 q 547 33 615 82 q 368 -17 478 -17 q 131 72 204 -17 q 58 286 58 161 q 88 433 58 364 q 188 546 118 501 q 368 590 257 590 q 457 574 414 590 q 525 522 500 558 q 444 694 496 617 l 299 636 l 299 744 l 379 778 l 321 838 l 401 926 q 499 826 463 868 l 636 882 l 636 771 l 560 740 m 371 53 q 481 118 447 53 q 514 286 514 183 q 483 456 514 390 q 371 521 453 521 q 265 456 297 521 q 232 286 232 390 q 265 118 232 183 q 371 53 297 53 z "},"ď":{"ha":835,"x_min":58,"x_max":893,"o":"m 651 899 l 651 0 l 539 0 l 496 69 q 310 -17 418 -17 q 122 69 185 -17 q 58 322 58 154 q 333 683 58 683 q 478 644 408 683 l 478 875 l 651 899 m 360 69 q 478 132 431 69 l 478 558 q 382 586 436 586 q 232 322 232 586 q 360 69 232 69 m 807 1043 q 868 1015 843 1043 q 893 944 893 988 q 849 811 893 871 q 739 713 804 751 l 708 750 q 739 793 731 772 q 747 844 747 814 q 735 896 747 864 q 721 957 721 935 q 746 1018 721 993 q 807 1043 771 1043 z "},"đ":{"ha":756,"x_min":58,"x_max":688,"o":"m 688 719 l 651 719 l 651 0 l 539 0 l 496 69 q 310 -17 418 -17 q 122 69 185 -17 q 58 322 58 154 q 333 683 58 683 q 478 644 408 683 l 478 719 l 319 719 l 319 829 l 478 829 l 478 875 l 651 899 l 651 829 l 688 829 l 688 719 m 360 69 q 478 132 431 69 l 478 558 q 382 586 436 586 q 232 322 232 586 q 360 69 232 69 z "},"e":{"ha":703,"x_min":58,"x_max":644,"o":"m 644 314 l 232 314 q 264 124 232 178 q 368 69 296 69 q 493 197 485 69 l 636 192 q 564 39 626 94 q 361 -17 501 -17 q 129 70 200 -17 q 58 333 58 157 q 124 588 58 492 q 358 683 190 683 q 583 586 521 683 q 644 333 644 489 l 644 314 m 357 597 q 269 552 297 597 q 235 400 240 507 l 476 400 q 445 548 472 499 q 357 597 418 597 z "},"é":{"ha":703,"x_min":58,"x_max":644,"o":"m 644 314 l 232 314 q 264 124 232 178 q 368 69 296 69 q 493 197 485 69 l 636 192 q 564 39 626 94 q 361 -17 501 -17 q 129 70 200 -17 q 58 333 58 157 q 124 588 58 492 q 358 683 190 683 q 583 586 521 683 q 644 333 644 489 l 644 314 m 357 597 q 269 552 297 597 q 235 400 240 507 l 476 400 q 445 548 472 499 q 357 597 418 597 m 422 1007 l 525 889 l 292 735 l 257 774 l 422 1007 z "},"ĕ":{"ha":703,"x_min":58,"x_max":644,"o":"m 644 314 l 232 314 q 264 124 232 178 q 368 69 296 69 q 493 197 485 69 l 636 192 q 564 39 626 94 q 361 -17 501 -17 q 129 70 200 -17 q 58 333 58 157 q 124 588 58 492 q 358 683 190 683 q 583 586 521 683 q 644 333 644 489 l 644 314 m 357 597 q 269 552 297 597 q 235 400 240 507 l 476 400 q 445 548 472 499 q 357 597 418 597 m 524 943 q 347 740 524 740 q 172 943 172 740 l 244 943 q 269 871 244 897 q 347 844 294 844 q 424 871 399 844 q 449 943 449 897 l 524 943 z "},"ě":{"ha":703,"x_min":58,"x_max":644,"o":"m 644 314 l 232 314 q 264 124 232 178 q 368 69 296 69 q 493 197 485 69 l 636 192 q 564 39 626 94 q 361 -17 501 -17 q 129 70 200 -17 q 58 333 58 157 q 124 588 58 492 q 358 683 190 683 q 583 586 521 683 q 644 333 644 489 l 644 314 m 357 597 q 269 552 297 597 q 235 400 240 507 l 476 400 q 445 548 472 499 q 357 597 418 597 m 224 981 l 349 864 l 478 981 l 524 940 l 390 729 l 311 729 l 176 940 l 224 981 z "},"ê":{"ha":703,"x_min":58,"x_max":644,"o":"m 644 314 l 232 314 q 264 124 232 178 q 368 69 296 69 q 493 197 485 69 l 636 192 q 564 39 626 94 q 361 -17 501 -17 q 129 70 200 -17 q 58 333 58 157 q 124 588 58 492 q 358 683 190 683 q 583 586 521 683 q 644 333 644 489 l 644 314 m 357 597 q 269 552 297 597 q 235 400 240 507 l 476 400 q 445 548 472 499 q 357 597 418 597 m 308 981 l 388 981 l 521 769 l 475 729 l 346 846 l 221 729 l 174 769 l 308 981 z "},"ë":{"ha":703,"x_min":58,"x_max":644,"o":"m 644 314 l 232 314 q 264 124 232 178 q 368 69 296 69 q 493 197 485 69 l 636 192 q 564 39 626 94 q 361 -17 501 -17 q 129 70 200 -17 q 58 333 58 157 q 124 588 58 492 q 358 683 190 683 q 583 586 521 683 q 644 333 644 489 l 644 314 m 357 597 q 269 552 297 597 q 235 400 240 507 l 476 400 q 445 548 472 499 q 357 597 418 597 m 211 750 q 144 778 172 750 q 117 844 117 807 q 144 913 117 885 q 211 942 172 942 q 278 913 250 942 q 307 844 307 883 q 278 778 307 806 q 211 750 250 750 m 485 750 q 419 778 447 750 q 390 844 390 807 q 418 913 390 885 q 485 942 446 942 q 552 913 524 942 q 581 844 581 885 q 552 778 581 806 q 485 750 524 750 z "},"ė":{"ha":703,"x_min":58,"x_max":644,"o":"m 644 314 l 232 314 q 264 124 232 178 q 368 69 296 69 q 493 197 485 69 l 636 192 q 564 39 626 94 q 361 -17 501 -17 q 129 70 200 -17 q 58 333 58 157 q 124 588 58 492 q 358 683 190 683 q 583 586 521 683 q 644 333 644 489 l 644 314 m 357 597 q 269 552 297 597 q 235 400 240 507 l 476 400 q 445 548 472 499 q 357 597 418 597 m 347 742 q 274 772 304 742 q 243 844 243 803 q 274 919 243 889 q 347 950 304 950 q 422 919 390 950 q 453 844 453 889 q 422 772 453 801 q 347 742 390 742 z "},"è":{"ha":703,"x_min":58,"x_max":644,"o":"m 644 314 l 232 314 q 264 124 232 178 q 368 69 296 69 q 493 197 485 69 l 636 192 q 564 39 626 94 q 361 -17 501 -17 q 129 70 200 -17 q 58 333 58 157 q 124 588 58 492 q 358 683 190 683 q 583 586 521 683 q 644 333 644 489 l 644 314 m 357 597 q 269 552 297 597 q 235 400 240 507 l 476 400 q 445 548 472 499 q 357 597 418 597 m 404 735 l 169 889 l 274 1007 l 439 774 l 404 735 z "},"ē":{"ha":703,"x_min":58,"x_max":644,"o":"m 644 314 l 232 314 q 264 124 232 178 q 368 69 296 69 q 493 197 485 69 l 636 192 q 564 39 626 94 q 361 -17 501 -17 q 129 70 200 -17 q 58 333 58 157 q 124 588 58 492 q 358 683 190 683 q 583 586 521 683 q 644 333 644 489 l 644 314 m 357 597 q 269 552 297 597 q 235 400 240 507 l 476 400 q 445 548 472 499 q 357 597 418 597 m 525 896 l 525 776 l 172 776 l 172 896 l 525 896 z "},"ę":{"ha":703,"x_min":58,"x_max":644,"o":"m 644 314 l 232 314 q 264 124 232 178 q 368 69 296 69 q 493 197 485 69 l 636 192 q 581 55 628 108 q 432 -12 535 1 l 397 -33 q 348 -76 361 -57 q 335 -119 335 -96 q 349 -152 335 -140 q 385 -164 364 -164 q 475 -99 435 -164 l 531 -135 q 460 -216 506 -181 q 363 -251 414 -251 q 277 -223 310 -251 q 244 -147 244 -194 q 267 -77 244 -108 q 333 -17 290 -46 q 122 78 186 -8 q 58 333 58 165 q 124 588 58 492 q 358 683 190 683 q 583 586 521 683 q 644 333 644 489 l 644 314 m 357 597 q 269 552 297 597 q 235 400 240 507 l 476 400 q 445 548 472 499 q 357 597 418 597 z "},"f":{"ha":414,"x_min":13,"x_max":524,"o":"m 351 917 q 524 869 436 917 l 471 746 q 422 795 450 776 q 365 814 394 814 q 310 790 329 814 q 290 729 290 767 l 290 667 l 424 667 l 424 579 l 290 579 l 290 0 l 117 0 l 117 579 l 13 579 l 13 667 l 117 667 l 117 688 q 176 859 117 801 q 351 917 235 917 z "},"g":{"ha":722,"x_min":46,"x_max":678,"o":"m 678 597 l 582 597 q 631 439 631 538 q 574 264 631 336 q 375 192 517 192 q 222 218 283 192 l 189 185 q 157 126 157 158 q 170 95 157 108 q 208 82 183 82 l 464 82 q 615 33 560 82 q 671 -90 671 -15 q 579 -239 671 -196 q 344 -282 488 -282 q 125 -244 204 -282 q 46 -115 46 -206 q 72 -43 46 -78 q 139 7 99 -8 q 81 45 103 18 q 58 111 58 72 q 69 170 58 144 q 111 226 79 196 l 151 265 q 92 439 92 326 q 151 613 92 542 q 360 683 211 683 q 479 667 429 683 l 678 667 l 678 597 m 360 276 q 442 315 418 276 q 465 439 465 354 q 442 560 465 521 q 360 599 418 599 q 281 560 304 599 q 257 439 257 521 q 281 316 257 356 q 360 276 304 276 m 247 0 q 210 -48 225 -19 q 196 -107 196 -76 q 344 -196 196 -196 q 482 -172 442 -196 q 522 -90 522 -147 q 492 -25 522 -50 q 410 0 461 0 l 247 0 z "},"ğ":{"ha":722,"x_min":46,"x_max":678,"o":"m 678 597 l 582 597 q 631 439 631 538 q 574 264 631 336 q 375 192 517 192 q 222 218 283 192 l 189 185 q 157 126 157 158 q 170 95 157 108 q 208 82 183 82 l 464 82 q 615 33 560 82 q 671 -90 671 -15 q 579 -239 671 -196 q 344 -282 488 -282 q 125 -244 204 -282 q 46 -115 46 -206 q 72 -43 46 -78 q 139 7 99 -8 q 81 45 103 18 q 58 111 58 72 q 69 170 58 144 q 111 226 79 196 l 151 265 q 92 439 92 326 q 151 613 92 542 q 360 683 211 683 q 479 667 429 683 l 678 667 l 678 597 m 360 276 q 442 315 418 276 q 465 439 465 354 q 442 560 465 521 q 360 599 418 599 q 281 560 304 599 q 257 439 257 521 q 281 316 257 356 q 360 276 304 276 m 247 0 q 210 -48 225 -19 q 196 -107 196 -76 q 344 -196 196 -196 q 482 -172 442 -196 q 522 -90 522 -147 q 492 -25 522 -50 q 410 0 461 0 l 247 0 m 543 943 q 367 740 543 740 q 192 943 192 740 l 264 943 q 289 871 264 897 q 367 844 314 844 q 443 871 418 844 q 468 943 468 897 l 543 943 z "},"ĝ":{"ha":722,"x_min":46,"x_max":678,"o":"m 678 597 l 582 597 q 631 439 631 538 q 574 264 631 336 q 375 192 517 192 q 222 218 283 192 l 189 185 q 157 126 157 158 q 170 95 157 108 q 208 82 183 82 l 464 82 q 615 33 560 82 q 671 -90 671 -15 q 579 -239 671 -196 q 344 -282 488 -282 q 125 -244 204 -282 q 46 -115 46 -206 q 72 -43 46 -78 q 139 7 99 -8 q 81 45 103 18 q 58 111 58 72 q 69 170 58 144 q 111 226 79 196 l 151 265 q 92 439 92 326 q 151 613 92 542 q 360 683 211 683 q 479 667 429 683 l 678 667 l 678 597 m 360 276 q 442 315 418 276 q 465 439 465 354 q 442 560 465 521 q 360 599 418 599 q 281 560 304 599 q 257 439 257 521 q 281 316 257 356 q 360 276 304 276 m 247 0 q 210 -48 225 -19 q 196 -107 196 -76 q 344 -196 196 -196 q 482 -172 442 -196 q 522 -90 522 -147 q 492 -25 522 -50 q 410 0 461 0 l 247 0 m 328 981 l 407 981 l 540 769 l 494 729 l 365 846 l 240 729 l 193 769 l 328 981 z "},"ģ":{"ha":722,"x_min":46,"x_max":678,"o":"m 371 725 q 310 753 335 725 q 285 824 285 781 q 328 957 285 897 q 439 1056 372 1017 l 469 1018 q 438 975 447 996 q 429 924 429 954 q 435 894 429 911 q 442 872 440 878 q 457 811 457 836 q 432 751 457 776 q 371 725 407 725 m 678 597 l 582 597 q 631 439 631 538 q 574 264 631 336 q 375 192 517 192 q 222 218 283 192 l 189 185 q 157 126 157 158 q 170 95 157 108 q 208 82 183 82 l 464 82 q 615 33 560 82 q 671 -90 671 -15 q 579 -239 671 -196 q 344 -282 488 -282 q 125 -244 204 -282 q 46 -115 46 -206 q 72 -43 46 -78 q 139 7 99 -8 q 81 45 103 18 q 58 111 58 72 q 69 170 58 144 q 111 226 79 196 l 151 265 q 92 439 92 326 q 151 613 92 542 q 360 683 211 683 q 479 667 429 683 l 678 667 l 678 597 m 360 276 q 442 315 418 276 q 465 439 465 354 q 442 560 465 521 q 360 599 418 599 q 281 560 304 599 q 257 439 257 521 q 281 316 257 356 q 360 276 304 276 m 247 0 q 210 -48 225 -19 q 196 -107 196 -76 q 344 -196 196 -196 q 482 -172 442 -196 q 522 -90 522 -147 q 492 -25 522 -50 q 410 0 461 0 l 247 0 z "},"ġ":{"ha":722,"x_min":46,"x_max":678,"o":"m 678 597 l 582 597 q 631 439 631 538 q 574 264 631 336 q 375 192 517 192 q 222 218 283 192 l 189 185 q 157 126 157 158 q 170 95 157 108 q 208 82 183 82 l 464 82 q 615 33 560 82 q 671 -90 671 -15 q 579 -239 671 -196 q 344 -282 488 -282 q 125 -244 204 -282 q 46 -115 46 -206 q 72 -43 46 -78 q 139 7 99 -8 q 81 45 103 18 q 58 111 58 72 q 69 170 58 144 q 111 226 79 196 l 151 265 q 92 439 92 326 q 151 613 92 542 q 360 683 211 683 q 479 667 429 683 l 678 667 l 678 597 m 360 276 q 442 315 418 276 q 465 439 465 354 q 442 560 465 521 q 360 599 418 599 q 281 560 304 599 q 257 439 257 521 q 281 316 257 356 q 360 276 304 276 m 247 0 q 210 -48 225 -19 q 196 -107 196 -76 q 344 -196 196 -196 q 482 -172 442 -196 q 522 -90 522 -147 q 492 -25 522 -50 q 410 0 461 0 l 247 0 m 368 742 q 294 772 325 742 q 264 844 264 803 q 294 919 264 889 q 368 950 325 950 q 442 919 411 950 q 474 844 474 889 q 442 772 474 801 q 368 742 411 742 z "},"h":{"ha":776,"x_min":106,"x_max":685,"o":"m 468 683 q 632 626 579 683 q 685 469 685 568 l 685 0 l 511 0 l 511 450 q 490 553 511 519 q 418 586 468 586 q 279 538 349 586 l 279 0 l 106 0 l 106 875 l 279 899 l 279 624 q 371 667 322 650 q 468 683 419 683 z "},"ħ":{"ha":776,"x_min":42,"x_max":685,"o":"m 468 683 q 632 626 579 683 q 685 469 685 568 l 685 0 l 511 0 l 511 450 q 490 553 511 519 q 418 586 468 586 q 279 538 349 586 l 279 0 l 106 0 l 106 719 l 42 719 l 42 829 l 106 829 l 106 875 l 279 899 l 279 829 l 410 829 l 410 719 l 279 719 l 279 624 q 371 667 322 650 q 468 683 419 683 z "},"ĥ":{"ha":776,"x_min":18,"x_max":685,"o":"m 468 683 q 632 626 579 683 q 685 469 685 568 l 685 0 l 511 0 l 511 450 q 490 553 511 519 q 418 586 468 586 q 279 538 349 586 l 279 0 l 106 0 l 106 875 l 279 899 l 279 624 q 371 667 322 650 q 468 683 419 683 m 153 1167 l 232 1167 l 365 954 l 319 914 l 190 1032 l 65 914 l 18 954 l 153 1167 z "},"i":{"ha":382,"x_min":86,"x_max":296,"o":"m 190 742 q 117 772 147 742 q 86 844 86 803 q 117 919 86 889 q 190 950 147 950 q 265 919 233 950 q 296 844 296 889 q 265 772 296 801 q 190 742 233 742 m 276 0 l 104 0 l 104 667 l 276 667 l 276 0 z "},"ı":{"ha":385,"x_min":106,"x_max":279,"o":"m 279 0 l 106 0 l 106 667 l 279 667 l 279 0 z "},"í":{"ha":385,"x_min":101,"x_max":369,"o":"m 279 0 l 106 0 l 106 667 l 279 667 l 279 0 m 267 1007 l 369 889 l 136 735 l 101 774 l 267 1007 z "},"ĭ":{"ha":385,"x_min":15,"x_max":367,"o":"m 279 0 l 106 0 l 106 667 l 279 667 l 279 0 m 367 943 q 190 740 367 740 q 15 943 15 740 l 88 943 q 113 871 88 897 q 190 844 138 844 q 267 871 242 844 q 292 943 292 897 l 367 943 z "},"î":{"ha":385,"x_min":17,"x_max":364,"o":"m 279 0 l 106 0 l 106 667 l 279 667 l 279 0 m 151 981 l 231 981 l 364 769 l 318 729 l 189 846 l 64 729 l 17 769 l 151 981 z "},"ï":{"ha":385,"x_min":-39,"x_max":425,"o":"m 279 0 l 106 0 l 106 667 l 279 667 l 279 0 m 56 750 q -11 778 17 750 q -39 844 -39 807 q -11 913 -39 885 q 56 942 17 942 q 123 913 94 942 q 151 844 151 883 q 123 778 151 806 q 56 750 94 750 m 329 750 q 263 778 292 750 q 235 844 235 807 q 263 913 235 885 q 329 942 290 942 q 397 913 368 942 q 425 844 425 885 q 397 778 425 806 q 329 750 368 750 z "},"ì":{"ha":385,"x_min":13,"x_max":282,"o":"m 279 0 l 106 0 l 106 667 l 279 667 l 279 0 m 247 735 l 13 889 l 117 1007 l 282 774 l 247 735 z "},"ĳ":{"ha":767,"x_min":86,"x_max":678,"o":"m 190 742 q 117 772 147 742 q 86 844 86 803 q 117 919 86 889 q 190 950 147 950 q 265 919 233 950 q 296 844 296 889 q 265 772 296 801 q 190 742 233 742 m 276 0 l 104 0 l 104 667 l 276 667 l 276 0 m 572 742 q 499 772 529 742 q 468 844 468 803 q 499 919 468 889 q 572 950 529 950 q 647 919 615 950 q 678 844 678 889 q 647 772 678 801 q 572 742 615 742 m 307 -111 q 353 -162 328 -144 q 414 -181 379 -181 q 468 -153 449 -181 q 488 -82 488 -125 l 488 667 l 661 667 l 661 -54 q 426 -282 661 -282 q 253 -236 344 -282 l 307 -111 z "},"ī":{"ha":385,"x_min":15,"x_max":368,"o":"m 279 0 l 106 0 l 106 667 l 279 667 l 279 0 m 368 896 l 368 776 l 15 776 l 15 896 l 368 896 z "},"į":{"ha":385,"x_min":54,"x_max":340,"o":"m 192 742 q 118 772 149 742 q 88 844 88 803 q 118 919 88 889 q 192 950 149 950 q 266 919 235 950 q 297 844 297 889 q 266 772 297 801 q 192 742 235 742 m 340 -135 q 269 -216 315 -181 q 172 -251 224 -251 q 87 -223 119 -251 q 54 -147 54 -194 q 81 -72 54 -104 q 157 -7 107 -39 l 168 0 l 106 0 l 106 667 l 279 667 l 279 0 l 261 0 l 207 -33 q 158 -76 171 -57 q 144 -119 144 -96 q 159 -152 144 -140 q 194 -164 174 -164 q 285 -99 244 -164 l 340 -135 z "},"ĩ":{"ha":385,"x_min":-15,"x_max":396,"o":"m 279 0 l 106 0 l 106 667 l 279 667 l 279 0 m 279 772 q 229 778 253 772 q 178 797 206 785 q 108 815 133 815 q 39 761 60 815 l -15 781 q 28 897 -4 861 q 104 933 61 933 q 153 927 131 933 q 203 908 175 921 q 239 895 221 901 q 274 889 257 889 q 317 901 300 889 q 342 938 333 913 l 396 919 q 353 807 385 842 q 279 772 321 772 z "},"j":{"ha":385,"x_min":-129,"x_max":296,"o":"m 190 742 q 117 772 147 742 q 86 844 86 803 q 117 919 86 889 q 190 950 147 950 q 265 919 233 950 q 296 844 296 889 q 265 772 296 801 q 190 742 233 742 m -75 -111 q -28 -162 -54 -144 q 32 -181 -3 -181 q 86 -153 67 -181 q 106 -82 106 -125 l 106 667 l 279 667 l 279 -54 q 44 -282 279 -282 q -129 -236 -37 -282 l -75 -111 z "},"ȷ":{"ha":385,"x_min":-129,"x_max":279,"o":"m -75 -111 q -28 -162 -54 -144 q 32 -181 -3 -181 q 86 -153 67 -181 q 106 -82 106 -125 l 106 667 l 279 667 l 279 -54 q 44 -282 279 -282 q -129 -236 -37 -282 l -75 -111 z "},"ĵ":{"ha":385,"x_min":-129,"x_max":364,"o":"m -75 -111 q -28 -162 -54 -144 q 32 -181 -3 -181 q 86 -153 67 -181 q 106 -82 106 -125 l 106 667 l 279 667 l 279 -54 q 44 -282 279 -282 q -129 -236 -37 -282 l -75 -111 m 151 981 l 231 981 l 364 769 l 318 729 l 189 846 l 64 729 l 17 769 l 151 981 z "},"k":{"ha":689,"x_min":106,"x_max":682,"o":"m 496 0 l 308 289 l 279 257 l 279 0 l 106 0 l 106 875 l 279 899 l 279 360 l 563 667 l 661 667 l 413 401 l 682 0 l 496 0 z "},"ķ":{"ha":689,"x_min":106,"x_max":682,"o":"m 496 0 l 308 289 l 279 257 l 279 0 l 106 0 l 106 875 l 279 899 l 279 360 l 563 667 l 661 667 l 413 401 l 682 0 l 496 0 m 368 -58 q 429 -86 404 -58 q 454 -157 454 -114 q 410 -290 454 -231 q 300 -389 367 -350 l 269 -351 q 301 -308 292 -329 q 310 -257 310 -287 q 304 -228 310 -244 q 297 -206 299 -211 q 282 -144 282 -169 q 307 -84 282 -110 q 368 -58 332 -58 z "},"ĸ":{"ha":682,"x_min":106,"x_max":693,"o":"m 299 303 l 279 303 l 279 0 l 106 0 l 106 667 l 279 667 l 279 418 l 314 418 l 486 667 l 675 667 l 449 349 l 693 0 l 507 0 l 299 303 z "},"l":{"ha":385,"x_min":106,"x_max":279,"o":"m 279 0 l 106 0 l 106 875 l 279 899 l 279 0 z "},"ĺ":{"ha":385,"x_min":101,"x_max":369,"o":"m 279 0 l 106 0 l 106 875 l 279 899 l 279 0 m 267 1193 l 369 1074 l 136 919 l 101 958 l 267 1193 z "},"ľ":{"ha":463,"x_min":106,"x_max":521,"o":"m 279 0 l 106 0 l 106 875 l 279 899 l 279 0 m 435 1043 q 496 1015 471 1043 q 521 944 521 988 q 476 811 521 871 q 367 713 432 751 l 336 750 q 367 793 358 772 q 375 844 375 814 q 363 896 375 864 q 349 957 349 935 q 374 1018 349 993 q 435 1043 399 1043 z "},"ļ":{"ha":385,"x_min":90,"x_max":279,"o":"m 279 0 l 106 0 l 106 875 l 279 899 l 279 0 m 189 -58 q 250 -86 225 -58 q 275 -157 275 -114 q 231 -290 275 -231 q 121 -389 188 -350 l 90 -351 q 122 -308 113 -329 q 131 -257 131 -287 q 125 -228 131 -244 q 118 -206 119 -211 q 103 -144 103 -169 q 128 -84 103 -110 q 189 -58 153 -58 z "},"ŀ":{"ha":444,"x_min":106,"x_max":503,"o":"m 279 0 l 106 0 l 106 875 l 279 899 l 279 0 m 408 378 q 342 406 369 378 q 314 474 314 435 q 342 541 314 514 q 408 568 369 568 q 476 541 449 568 q 503 474 503 514 q 475 406 503 433 q 408 378 447 378 z "},"ł":{"ha":385,"x_min":22,"x_max":360,"o":"m 360 456 l 279 424 l 279 0 l 106 0 l 106 354 l 22 321 l 22 429 l 106 463 l 106 875 l 279 899 l 279 533 l 360 567 l 360 456 z "},"m":{"ha":1168,"x_min":106,"x_max":1074,"o":"m 858 683 q 1021 626 968 683 q 1074 469 1074 568 l 1074 0 l 901 0 l 901 474 q 799 586 901 586 q 671 540 726 586 q 679 469 679 507 l 679 0 l 506 0 l 506 474 q 401 586 506 586 q 279 544 336 586 l 279 0 l 106 0 l 106 667 l 182 667 l 244 603 q 347 660 290 638 q 461 683 403 683 q 643 604 586 683 q 745 661 689 639 q 858 683 801 683 z "},"n":{"ha":776,"x_min":106,"x_max":685,"o":"m 468 683 q 629 628 574 683 q 685 469 685 572 l 685 0 l 511 0 l 511 450 q 489 554 511 522 q 418 586 467 586 q 279 536 347 586 l 279 0 l 106 0 l 106 667 l 182 667 l 244 603 q 355 661 294 639 q 468 683 415 683 z "},"ń":{"ha":776,"x_min":106,"x_max":685,"o":"m 468 683 q 629 628 574 683 q 685 469 685 572 l 685 0 l 511 0 l 511 450 q 489 554 511 522 q 418 586 467 586 q 279 536 347 586 l 279 0 l 106 0 l 106 667 l 182 667 l 244 603 q 355 661 294 639 q 468 683 415 683 m 461 1007 l 564 889 l 331 735 l 296 774 l 461 1007 z "},"ŉ":{"ha":776,"x_min":106,"x_max":685,"o":"m 468 683 q 629 628 574 683 q 685 469 685 572 l 685 0 l 511 0 l 511 450 q 489 554 511 522 q 418 586 467 586 q 279 536 347 586 l 279 0 l 106 0 l 106 667 l 182 667 l 244 603 q 355 661 294 639 q 468 683 415 683 m 385 -58 q 446 -86 421 -58 q 471 -157 471 -114 q 427 -290 471 -231 q 317 -389 383 -350 l 286 -351 q 317 -308 308 -329 q 326 -257 326 -287 q 321 -228 326 -244 q 314 -206 315 -211 q 299 -144 299 -169 q 324 -84 299 -110 q 385 -58 349 -58 z "},"ň":{"ha":776,"x_min":106,"x_max":685,"o":"m 468 683 q 629 628 574 683 q 685 469 685 572 l 685 0 l 511 0 l 511 450 q 489 554 511 522 q 418 586 467 586 q 279 536 347 586 l 279 0 l 106 0 l 106 667 l 182 667 l 244 603 q 355 661 294 639 q 468 683 415 683 m 263 981 l 388 864 l 517 981 l 563 940 l 429 729 l 350 729 l 215 940 l 263 981 z "},"ņ":{"ha":776,"x_min":106,"x_max":685,"o":"m 468 683 q 629 628 574 683 q 685 469 685 572 l 685 0 l 511 0 l 511 450 q 489 554 511 522 q 418 586 467 586 q 279 536 347 586 l 279 0 l 106 0 l 106 667 l 182 667 l 244 603 q 355 661 294 639 q 468 683 415 683 m 385 -58 q 446 -86 421 -58 q 471 -157 471 -114 q 427 -290 471 -231 q 317 -389 383 -350 l 286 -351 q 317 -308 308 -329 q 326 -257 326 -287 q 321 -228 326 -244 q 314 -206 315 -211 q 299 -144 299 -169 q 324 -84 299 -110 q 385 -58 349 -58 z "},"ŋ":{"ha":776,"x_min":106,"x_max":685,"o":"m 685 0 l 682 0 l 682 -54 q 449 -282 682 -282 q 275 -236 367 -282 l 329 -111 q 431 -181 371 -181 q 489 -157 468 -181 q 510 -94 510 -133 l 510 1 l 511 1 l 511 450 q 489 554 511 522 q 418 586 467 586 q 279 536 347 586 l 279 0 l 106 0 l 106 667 l 182 667 l 244 603 q 355 661 294 639 q 468 683 415 683 q 629 628 574 683 q 685 469 685 572 l 685 0 z "},"ñ":{"ha":776,"x_min":106,"x_max":685,"o":"m 468 683 q 629 628 574 683 q 685 469 685 572 l 685 0 l 511 0 l 511 450 q 489 554 511 522 q 418 586 467 586 q 279 536 347 586 l 279 0 l 106 0 l 106 667 l 182 667 l 244 603 q 355 661 294 639 q 468 683 415 683 m 475 772 q 425 778 449 772 q 374 797 401 785 q 304 815 329 815 q 235 761 256 815 l 181 781 q 224 897 192 861 q 300 933 257 933 q 349 927 326 933 q 399 908 371 921 q 435 895 417 901 q 469 889 453 889 q 513 901 496 889 q 538 938 529 913 l 592 919 q 549 807 581 842 q 475 772 517 772 z "},"o":{"ha":733,"x_min":58,"x_max":675,"o":"m 368 -17 q 58 333 58 -17 q 127 587 58 490 q 368 683 196 683 q 607 588 539 683 q 675 333 675 492 q 607 80 675 176 q 368 -17 539 -17 m 368 69 q 474 135 446 69 q 501 333 501 201 q 474 532 501 467 q 368 597 447 597 q 260 532 288 597 q 232 333 232 467 q 260 135 232 201 q 368 69 288 69 z "},"ó":{"ha":733,"x_min":58,"x_max":675,"o":"m 368 -17 q 58 333 58 -17 q 127 587 58 490 q 368 683 196 683 q 607 588 539 683 q 675 333 675 492 q 607 80 675 176 q 368 -17 539 -17 m 368 69 q 474 135 446 69 q 501 333 501 201 q 474 532 501 467 q 368 597 447 597 q 260 532 288 597 q 232 333 232 467 q 260 135 232 201 q 368 69 288 69 m 440 1007 l 543 889 l 310 735 l 275 774 l 440 1007 z "},"ŏ":{"ha":733,"x_min":58,"x_max":675,"o":"m 368 -17 q 58 333 58 -17 q 127 587 58 490 q 368 683 196 683 q 607 588 539 683 q 675 333 675 492 q 607 80 675 176 q 368 -17 539 -17 m 368 69 q 474 135 446 69 q 501 333 501 201 q 474 532 501 467 q 368 597 447 597 q 260 532 288 597 q 232 333 232 467 q 260 135 232 201 q 368 69 288 69 m 542 943 q 365 740 542 740 q 190 943 190 740 l 263 943 q 288 871 263 897 q 365 844 313 844 q 442 871 417 844 q 467 943 467 897 l 542 943 z "},"ô":{"ha":733,"x_min":58,"x_max":675,"o":"m 368 -17 q 58 333 58 -17 q 127 587 58 490 q 368 683 196 683 q 607 588 539 683 q 675 333 675 492 q 607 80 675 176 q 368 -17 539 -17 m 368 69 q 474 135 446 69 q 501 333 501 201 q 474 532 501 467 q 368 597 447 597 q 260 532 288 597 q 232 333 232 467 q 260 135 232 201 q 368 69 288 69 m 326 981 l 406 981 l 539 769 l 493 729 l 364 846 l 239 729 l 192 769 l 326 981 z "},"ö":{"ha":733,"x_min":58,"x_max":675,"o":"m 368 -17 q 58 333 58 -17 q 127 587 58 490 q 368 683 196 683 q 607 588 539 683 q 675 333 675 492 q 607 80 675 176 q 368 -17 539 -17 m 368 69 q 474 135 446 69 q 501 333 501 201 q 474 532 501 467 q 368 597 447 597 q 260 532 288 597 q 232 333 232 467 q 260 135 232 201 q 368 69 288 69 m 229 750 q 163 778 190 750 q 135 844 135 807 q 163 913 135 885 q 229 942 190 942 q 297 913 268 942 q 325 844 325 883 q 297 778 325 806 q 229 750 268 750 m 503 750 q 437 778 465 750 q 408 844 408 807 q 436 913 408 885 q 503 942 464 942 q 570 913 542 942 q 599 844 599 885 q 570 778 599 806 q 503 750 542 750 z "},"ò":{"ha":733,"x_min":58,"x_max":675,"o":"m 368 -17 q 58 333 58 -17 q 127 587 58 490 q 368 683 196 683 q 607 588 539 683 q 675 333 675 492 q 607 80 675 176 q 368 -17 539 -17 m 368 69 q 474 135 446 69 q 501 333 501 201 q 474 532 501 467 q 368 597 447 597 q 260 532 288 597 q 232 333 232 467 q 260 135 232 201 q 368 69 288 69 m 422 735 l 188 889 l 292 1007 l 457 774 l 422 735 z "},"ő":{"ha":733,"x_min":58,"x_max":675,"o":"m 368 -17 q 58 333 58 -17 q 127 587 58 490 q 368 683 196 683 q 607 588 539 683 q 675 333 675 492 q 607 80 675 176 q 368 -17 539 -17 m 368 69 q 474 135 446 69 q 501 333 501 201 q 474 532 501 467 q 368 597 447 597 q 260 532 288 597 q 232 333 232 467 q 260 135 232 201 q 368 69 288 69 m 300 1007 l 403 889 l 169 735 l 135 774 l 300 1007 m 561 1007 l 663 889 l 431 735 l 396 774 l 561 1007 z "},"ō":{"ha":733,"x_min":58,"x_max":675,"o":"m 368 -17 q 58 333 58 -17 q 127 587 58 490 q 368 683 196 683 q 607 588 539 683 q 675 333 675 492 q 607 80 675 176 q 368 -17 539 -17 m 368 69 q 474 135 446 69 q 501 333 501 201 q 474 532 501 467 q 368 597 447 597 q 260 532 288 597 q 232 333 232 467 q 260 135 232 201 q 368 69 288 69 m 543 896 l 543 776 l 190 776 l 190 896 l 543 896 z "},"ø":{"ha":733,"x_min":58,"x_max":675,"o":"m 492 665 q 634 545 593 632 q 675 333 675 458 q 607 80 675 176 q 368 -17 539 -17 q 310 -14 346 -17 l 289 -92 l 218 -92 l 243 1 q 58 333 58 63 q 127 587 58 490 q 368 683 196 683 q 422 681 389 683 l 443 760 l 517 760 l 492 665 m 232 333 q 241 200 232 254 q 272 114 250 146 l 399 594 q 368 597 382 597 q 260 532 288 597 q 232 333 232 467 m 368 69 q 474 135 446 69 q 501 333 501 201 q 492 467 501 413 q 461 553 483 521 l 333 74 q 368 69 349 69 z "},"ǿ":{"ha":688,"x_min":58,"x_max":675,"o":"m 469 1007 l 572 889 l 339 735 l 304 774 l 469 1007 m 492 665 q 634 545 593 632 q 675 333 675 458 q 607 80 675 176 q 368 -17 539 -17 q 310 -14 346 -17 l 289 -92 l 218 -92 l 243 1 q 58 333 58 63 q 127 587 58 490 q 368 683 196 683 q 422 681 389 683 l 443 760 l 517 760 l 492 665 m 232 333 q 241 200 232 254 q 272 114 250 146 l 399 594 q 368 597 382 597 q 260 532 288 597 q 232 333 232 467 m 368 69 q 474 135 446 69 q 501 333 501 201 q 492 467 501 413 q 461 553 483 521 l 333 74 q 368 69 349 69 z "},"õ":{"ha":733,"x_min":58,"x_max":675,"o":"m 368 -17 q 58 333 58 -17 q 127 587 58 490 q 368 683 196 683 q 607 588 539 683 q 675 333 675 492 q 607 80 675 176 q 368 -17 539 -17 m 368 69 q 474 135 446 69 q 501 333 501 201 q 474 532 501 467 q 368 597 447 597 q 260 532 288 597 q 232 333 232 467 q 260 135 232 201 q 368 69 288 69 m 454 772 q 404 778 428 772 q 353 797 381 785 q 283 815 308 815 q 214 761 235 815 l 160 781 q 203 897 171 861 q 279 933 236 933 q 328 927 306 933 q 378 908 350 921 q 414 895 396 901 q 449 889 432 889 q 492 901 475 889 q 517 938 508 913 l 571 919 q 528 807 560 842 q 454 772 496 772 z "},"œ":{"ha":1147,"x_min":58,"x_max":1089,"o":"m 1089 314 l 676 314 q 708 124 676 178 q 813 69 740 69 q 938 197 929 69 l 1081 192 q 1008 39 1071 94 q 806 -17 946 -17 q 586 57 657 -17 q 368 -17 510 -17 q 58 333 58 -17 q 127 587 58 490 q 368 683 196 683 q 588 608 510 683 q 803 683 663 683 q 1027 586 965 683 q 1089 333 1089 489 l 1089 314 m 368 69 q 474 135 446 69 q 501 333 501 201 q 474 532 501 467 q 368 597 447 597 q 260 532 288 597 q 232 333 232 467 q 260 135 232 201 q 368 69 288 69 m 801 597 q 714 552 742 597 q 679 400 686 507 l 921 400 q 890 549 917 500 q 801 597 863 597 z "},"p":{"ha":758,"x_min":106,"x_max":699,"o":"m 424 683 q 638 587 576 683 q 699 333 699 490 q 638 80 699 176 q 421 -17 576 -17 q 279 4 346 -17 l 279 -258 l 106 -282 l 106 667 l 185 667 l 239 617 q 424 683 333 683 m 375 69 q 490 136 456 69 q 525 333 525 203 q 489 518 525 450 q 374 586 453 586 q 279 560 328 586 l 279 81 q 324 72 303 74 q 375 69 344 69 z "},"þ":{"ha":758,"x_min":106,"x_max":699,"o":"m 424 683 q 638 587 576 683 q 699 333 699 490 q 638 80 699 176 q 421 -17 576 -17 q 279 4 346 -17 l 279 -258 l 106 -282 l 106 875 l 279 899 l 279 642 q 424 683 351 683 m 375 69 q 490 136 456 69 q 525 333 525 203 q 489 518 525 450 q 374 586 453 586 q 279 560 328 586 l 279 81 q 324 72 303 74 q 375 69 344 69 z "},"q":{"ha":756,"x_min":58,"x_max":651,"o":"m 651 667 l 651 -233 l 478 -257 l 478 15 q 333 -17 399 -17 q 119 80 181 -17 q 58 333 58 176 q 119 587 58 490 q 333 683 181 683 q 524 614 439 683 l 574 667 l 651 667 m 383 69 q 478 89 431 69 l 478 558 q 382 586 435 586 q 232 333 232 586 q 267 137 232 204 q 383 69 303 69 z "},"r":{"ha":476,"x_min":106,"x_max":476,"o":"m 258 540 q 347 636 292 600 q 476 672 403 672 l 476 547 q 324 507 369 547 q 279 386 279 467 l 279 0 l 106 0 l 106 667 l 182 667 l 258 540 z "},"ŕ":{"ha":476,"x_min":106,"x_max":476,"o":"m 258 540 q 347 636 292 600 q 476 672 403 672 l 476 547 q 324 507 369 547 q 279 386 279 467 l 279 0 l 106 0 l 106 667 l 182 667 l 258 540 m 349 1007 l 451 889 l 218 735 l 183 774 l 349 1007 z "},"ř":{"ha":476,"x_min":103,"x_max":476,"o":"m 258 540 q 347 636 292 600 q 476 672 403 672 l 476 547 q 324 507 369 547 q 279 386 279 467 l 279 0 l 106 0 l 106 667 l 182 667 l 258 540 m 150 981 l 275 864 l 404 981 l 450 940 l 317 729 l 238 729 l 103 940 l 150 981 z "},"ŗ":{"ha":476,"x_min":90,"x_max":476,"o":"m 258 540 q 347 636 292 600 q 476 672 403 672 l 476 547 q 324 507 369 547 q 279 386 279 467 l 279 0 l 106 0 l 106 667 l 182 667 l 258 540 m 189 -58 q 250 -86 225 -58 q 275 -157 275 -114 q 231 -290 275 -231 q 121 -389 188 -350 l 90 -351 q 122 -308 113 -329 q 131 -257 131 -287 q 125 -228 131 -244 q 118 -206 119 -211 q 103 -144 103 -169 q 128 -84 103 -110 q 189 -58 153 -58 z "},"s":{"ha":642,"x_min":47,"x_max":594,"o":"m 399 394 q 546 322 497 367 q 594 193 594 276 q 524 39 594 94 q 336 -17 453 -17 q 130 38 197 -17 q 47 196 63 92 l 190 210 q 233 106 197 143 q 336 69 269 69 q 416 95 385 69 q 447 157 447 121 q 415 215 447 192 q 306 258 382 239 l 243 278 q 106 350 153 303 q 60 482 60 397 q 129 631 60 578 q 314 683 199 683 q 510 631 446 683 q 589 474 574 578 l 444 464 q 404 563 438 528 q 314 597 371 597 q 235 576 263 597 q 207 519 207 556 q 239 456 207 479 q 339 413 271 432 l 399 394 z "},"ś":{"ha":642,"x_min":47,"x_max":594,"o":"m 399 394 q 546 322 497 367 q 594 193 594 276 q 524 39 594 94 q 336 -17 453 -17 q 130 38 197 -17 q 47 196 63 92 l 190 210 q 233 106 197 143 q 336 69 269 69 q 416 95 385 69 q 447 157 447 121 q 415 215 447 192 q 306 258 382 239 l 243 278 q 106 350 153 303 q 60 482 60 397 q 129 631 60 578 q 314 683 199 683 q 510 631 446 683 q 589 474 574 578 l 444 464 q 404 563 438 528 q 314 597 371 597 q 235 576 263 597 q 207 519 207 556 q 239 456 207 479 q 339 413 271 432 l 399 394 m 394 1007 l 497 889 l 264 735 l 229 774 l 394 1007 z "},"š":{"ha":642,"x_min":47,"x_max":594,"o":"m 399 394 q 546 322 497 367 q 594 193 594 276 q 524 39 594 94 q 336 -17 453 -17 q 130 38 197 -17 q 47 196 63 92 l 190 210 q 233 106 197 143 q 336 69 269 69 q 416 95 385 69 q 447 157 447 121 q 415 215 447 192 q 306 258 382 239 l 243 278 q 106 350 153 303 q 60 482 60 397 q 129 631 60 578 q 314 683 199 683 q 510 631 446 683 q 589 474 574 578 l 444 464 q 404 563 438 528 q 314 597 371 597 q 235 576 263 597 q 207 519 207 556 q 239 456 207 479 q 339 413 271 432 l 399 394 m 196 981 l 321 864 l 450 981 l 496 940 l 363 729 l 283 729 l 149 940 l 196 981 z "},"ş":{"ha":642,"x_min":47,"x_max":594,"o":"m 594 193 q 533 47 594 101 q 369 -15 472 -8 l 356 -54 q 449 -91 414 -61 q 483 -171 483 -121 q 451 -258 483 -224 q 344 -293 418 -293 q 241 -262 275 -293 q 207 -174 207 -232 l 303 -162 q 314 -217 303 -197 q 343 -236 325 -236 q 378 -185 378 -236 q 356 -133 378 -153 q 271 -103 333 -114 l 296 -15 q 119 47 178 -7 q 47 196 61 100 l 190 210 q 233 106 197 143 q 336 69 269 69 q 416 95 385 69 q 447 157 447 121 q 415 215 447 192 q 306 258 382 239 l 243 278 q 106 350 153 303 q 60 482 60 397 q 129 631 60 578 q 314 683 199 683 q 510 631 446 683 q 589 474 574 578 l 444 464 q 404 563 438 528 q 314 597 371 597 q 235 576 263 597 q 207 519 207 556 q 239 456 207 479 q 339 413 271 432 l 399 394 q 546 322 497 367 q 594 193 594 276 z "},"ŝ":{"ha":642,"x_min":47,"x_max":594,"o":"m 399 394 q 546 322 497 367 q 594 193 594 276 q 524 39 594 94 q 336 -17 453 -17 q 130 38 197 -17 q 47 196 63 92 l 190 210 q 233 106 197 143 q 336 69 269 69 q 416 95 385 69 q 447 157 447 121 q 415 215 447 192 q 306 258 382 239 l 243 278 q 106 350 153 303 q 60 482 60 397 q 129 631 60 578 q 314 683 199 683 q 510 631 446 683 q 589 474 574 578 l 444 464 q 404 563 438 528 q 314 597 371 597 q 235 576 263 597 q 207 519 207 556 q 239 456 207 479 q 339 413 271 432 l 399 394 m 281 981 l 360 981 l 493 769 l 447 729 l 318 846 l 193 729 l 146 769 l 281 981 z "},"ș":{"ha":642,"x_min":47,"x_max":594,"o":"m 399 394 q 546 322 497 367 q 594 193 594 276 q 524 39 594 94 q 336 -17 453 -17 q 130 38 197 -17 q 47 196 63 92 l 190 210 q 233 106 197 143 q 336 69 269 69 q 416 95 385 69 q 447 157 447 121 q 415 215 447 192 q 306 258 382 239 l 243 278 q 106 350 153 303 q 60 482 60 397 q 129 631 60 578 q 314 683 199 683 q 510 631 446 683 q 589 474 574 578 l 444 464 q 404 563 438 528 q 314 597 371 597 q 235 576 263 597 q 207 519 207 556 q 239 456 207 479 q 339 413 271 432 l 399 394 m 331 -58 q 392 -86 367 -58 q 417 -157 417 -114 q 373 -290 417 -231 q 263 -389 329 -350 l 232 -351 q 263 -308 254 -329 q 272 -257 272 -287 q 267 -228 272 -244 q 260 -206 261 -211 q 244 -144 244 -169 q 269 -84 244 -110 q 331 -58 294 -58 z "},"ß":{"ha":776,"x_min":117,"x_max":764,"o":"m 547 454 q 708 378 651 443 q 764 208 764 314 q 706 47 764 111 q 536 -17 649 -17 q 382 45 438 -17 q 326 232 326 107 l 467 232 q 481 95 467 138 q 529 53 494 53 q 578 95 567 53 q 590 222 590 138 q 556 371 590 328 q 453 414 521 414 l 358 414 l 358 476 l 408 476 q 485 513 460 476 q 511 607 511 550 q 485 752 511 706 q 399 799 458 799 q 315 753 339 799 q 290 607 290 707 l 290 0 l 117 0 l 117 607 q 188 806 117 743 q 399 868 258 868 q 610 803 536 868 q 685 631 685 738 q 648 525 685 572 q 547 454 611 478 z "},"t":{"ha":438,"x_min":18,"x_max":449,"o":"m 449 24 q 370 -7 410 3 q 299 -17 331 -17 q 181 13 219 -17 q 133 83 142 43 q 124 181 124 124 l 124 579 l 18 579 l 18 667 l 124 667 l 124 767 l 297 828 l 297 667 l 431 667 l 431 579 l 297 579 l 297 153 q 309 95 297 111 q 346 79 321 79 q 426 103 386 79 l 449 24 z "},"ŧ":{"ha":438,"x_min":6,"x_max":449,"o":"m 449 24 q 370 -7 410 3 q 299 -17 331 -17 q 181 13 219 -17 q 133 83 142 43 q 124 181 124 124 l 124 306 l 6 306 l 6 415 l 124 415 l 124 579 l 18 579 l 18 667 l 124 667 l 124 767 l 297 828 l 297 667 l 431 667 l 431 579 l 297 579 l 297 415 l 390 415 l 390 306 l 297 306 l 297 153 q 309 95 297 111 q 346 79 321 79 q 426 103 386 79 l 449 24 z "},"ť":{"ha":460,"x_min":18,"x_max":528,"o":"m 449 24 q 370 -7 410 3 q 299 -17 331 -17 q 181 13 219 -17 q 133 83 142 43 q 124 181 124 124 l 124 579 l 18 579 l 18 667 l 124 667 l 124 767 l 297 828 l 297 667 l 431 667 l 431 579 l 297 579 l 297 153 q 309 95 297 111 q 346 79 321 79 q 426 103 386 79 l 449 24 m 442 1043 q 503 1015 478 1043 q 528 944 528 988 q 483 811 528 871 q 374 713 439 751 l 343 750 q 374 793 365 772 q 382 844 382 814 q 369 896 382 864 q 356 957 356 935 q 381 1018 356 993 q 442 1043 406 1043 z "},"ţ":{"ha":438,"x_min":18,"x_max":449,"o":"m 246 -54 q 339 -91 304 -61 q 374 -171 374 -121 q 341 -258 374 -224 q 235 -293 308 -293 q 131 -262 165 -293 q 97 -174 97 -232 l 193 -162 q 204 -217 193 -197 q 233 -236 215 -236 q 268 -185 268 -236 q 246 -133 268 -153 q 161 -103 224 -114 l 193 6 q 136 73 149 29 q 124 181 124 117 l 124 579 l 18 579 l 18 667 l 124 667 l 124 767 l 297 828 l 297 667 l 431 667 l 431 579 l 297 579 l 297 153 q 309 95 297 111 q 346 79 321 79 q 426 103 386 79 l 449 24 q 370 -7 410 3 q 299 -17 331 -17 q 260 -14 282 -17 l 246 -54 z "},"ț":{"ha":438,"x_min":18,"x_max":449,"o":"m 449 24 q 370 -7 410 3 q 299 -17 331 -17 q 181 13 219 -17 q 133 83 142 43 q 124 181 124 124 l 124 579 l 18 579 l 18 667 l 124 667 l 124 767 l 297 828 l 297 667 l 431 667 l 431 579 l 297 579 l 297 153 q 309 95 297 111 q 346 79 321 79 q 426 103 386 79 l 449 24 m 222 -58 q 283 -86 258 -58 q 308 -157 308 -114 q 265 -290 308 -231 q 154 -389 221 -350 l 124 -351 q 155 -308 146 -329 q 164 -257 164 -287 q 158 -228 164 -244 q 151 -206 153 -211 q 136 -144 136 -169 q 161 -84 136 -110 q 222 -58 186 -58 z "},"u":{"ha":776,"x_min":93,"x_max":671,"o":"m 671 667 l 671 0 l 558 0 l 513 75 q 307 -17 428 -17 q 93 197 93 -17 l 93 667 l 267 667 l 267 217 q 291 110 267 146 q 371 74 315 74 q 497 142 443 74 l 497 667 l 671 667 z "},"ú":{"ha":776,"x_min":93,"x_max":671,"o":"m 671 667 l 671 0 l 558 0 l 513 75 q 307 -17 428 -17 q 93 197 93 -17 l 93 667 l 267 667 l 267 217 q 291 110 267 146 q 371 74 315 74 q 497 142 443 74 l 497 667 l 671 667 m 464 1007 l 567 889 l 333 735 l 299 774 l 464 1007 z "},"ŭ":{"ha":776,"x_min":93,"x_max":671,"o":"m 671 667 l 671 0 l 558 0 l 513 75 q 307 -17 428 -17 q 93 197 93 -17 l 93 667 l 267 667 l 267 217 q 291 110 267 146 q 371 74 315 74 q 497 142 443 74 l 497 667 l 671 667 m 564 943 q 388 740 564 740 q 213 943 213 740 l 285 943 q 310 871 285 897 q 388 844 335 844 q 464 871 439 844 q 489 943 489 897 l 564 943 z "},"û":{"ha":776,"x_min":93,"x_max":671,"o":"m 671 667 l 671 0 l 558 0 l 513 75 q 307 -17 428 -17 q 93 197 93 -17 l 93 667 l 267 667 l 267 217 q 291 110 267 146 q 371 74 315 74 q 497 142 443 74 l 497 667 l 671 667 m 349 981 l 428 981 l 561 769 l 515 729 l 386 846 l 261 729 l 214 769 l 349 981 z "},"ü":{"ha":776,"x_min":93,"x_max":671,"o":"m 671 667 l 671 0 l 558 0 l 513 75 q 307 -17 428 -17 q 93 197 93 -17 l 93 667 l 267 667 l 267 217 q 291 110 267 146 q 371 74 315 74 q 497 142 443 74 l 497 667 l 671 667 m 251 750 q 185 778 213 750 q 157 844 157 807 q 185 913 157 885 q 251 942 213 942 q 319 913 290 942 q 347 844 347 883 q 319 778 347 806 q 251 750 290 750 m 525 750 q 459 778 488 750 q 431 844 431 807 q 458 913 431 885 q 525 942 486 942 q 592 913 564 942 q 621 844 621 885 q 592 778 621 806 q 525 750 564 750 z "},"ù":{"ha":776,"x_min":93,"x_max":671,"o":"m 671 667 l 671 0 l 558 0 l 513 75 q 307 -17 428 -17 q 93 197 93 -17 l 93 667 l 267 667 l 267 217 q 291 110 267 146 q 371 74 315 74 q 497 142 443 74 l 497 667 l 671 667 m 444 735 l 210 889 l 314 1007 l 479 774 l 444 735 z "},"ű":{"ha":776,"x_min":93,"x_max":685,"o":"m 671 667 l 671 0 l 558 0 l 513 75 q 307 -17 428 -17 q 93 197 93 -17 l 93 667 l 267 667 l 267 217 q 291 110 267 146 q 371 74 315 74 q 497 142 443 74 l 497 667 l 671 667 m 322 1007 l 425 889 l 192 735 l 157 774 l 322 1007 m 583 1007 l 685 889 l 453 735 l 418 774 l 583 1007 z "},"ū":{"ha":776,"x_min":93,"x_max":671,"o":"m 671 667 l 671 0 l 558 0 l 513 75 q 307 -17 428 -17 q 93 197 93 -17 l 93 667 l 267 667 l 267 217 q 291 110 267 146 q 371 74 315 74 q 497 142 443 74 l 497 667 l 671 667 m 565 896 l 565 776 l 213 776 l 213 896 l 565 896 z "},"ų":{"ha":776,"x_min":93,"x_max":733,"o":"m 733 -135 q 663 -216 708 -181 q 565 -251 617 -251 q 480 -223 513 -251 q 447 -147 447 -194 q 474 -72 447 -104 q 550 -7 500 -39 l 561 0 l 558 0 l 513 75 q 307 -17 428 -17 q 93 197 93 -17 l 93 667 l 267 667 l 267 217 q 291 110 267 146 q 371 74 315 74 q 497 142 443 74 l 497 667 l 671 667 l 671 0 l 654 0 l 600 -33 q 551 -76 564 -57 q 538 -119 538 -96 q 552 -152 538 -140 q 588 -164 567 -164 q 678 -99 638 -164 l 733 -135 z "},"ů":{"ha":776,"x_min":93,"x_max":671,"o":"m 671 667 l 671 0 l 558 0 l 513 75 q 307 -17 428 -17 q 93 197 93 -17 l 93 667 l 267 667 l 267 217 q 291 110 267 146 q 371 74 315 74 q 497 142 443 74 l 497 667 l 671 667 m 388 722 q 282 762 311 722 q 253 857 253 801 q 282 952 253 913 q 388 992 311 992 q 495 952 465 992 q 525 857 525 913 q 495 762 525 801 q 388 722 465 722 m 389 779 q 428 803 418 779 q 439 857 439 826 q 389 936 439 936 q 342 857 342 936 q 389 779 342 779 z "},"ũ":{"ha":776,"x_min":93,"x_max":671,"o":"m 671 667 l 671 0 l 558 0 l 513 75 q 307 -17 428 -17 q 93 197 93 -17 l 93 667 l 267 667 l 267 217 q 291 110 267 146 q 371 74 315 74 q 497 142 443 74 l 497 667 l 671 667 m 476 772 q 426 778 450 772 q 375 797 403 785 q 306 815 331 815 q 236 761 257 815 l 182 781 q 226 897 193 861 q 301 933 258 933 q 350 927 328 933 q 400 908 372 921 q 436 895 418 901 q 471 889 454 889 q 514 901 497 889 q 539 938 531 913 l 593 919 q 550 807 582 842 q 476 772 518 772 z "},"v":{"ha":651,"x_min":7,"x_max":646,"o":"m 646 667 l 422 0 l 229 0 l 7 667 l 181 667 l 364 86 l 547 667 l 646 667 z "},"w":{"ha":906,"x_min":13,"x_max":896,"o":"m 896 667 l 729 0 l 536 0 l 449 414 l 347 0 l 154 0 l 13 667 l 188 667 l 290 133 l 411 667 l 510 667 l 510 665 l 511 667 l 568 667 l 672 129 l 796 667 l 896 667 z "},"ẃ":{"ha":906,"x_min":13,"x_max":896,"o":"m 896 667 l 729 0 l 536 0 l 449 414 l 347 0 l 154 0 l 13 667 l 188 667 l 290 133 l 411 667 l 510 667 l 510 665 l 511 667 l 568 667 l 672 129 l 796 667 l 896 667 m 532 1007 l 635 889 l 401 735 l 367 774 l 532 1007 z "},"ŵ":{"ha":906,"x_min":13,"x_max":896,"o":"m 896 667 l 729 0 l 536 0 l 449 414 l 347 0 l 154 0 l 13 667 l 188 667 l 290 133 l 411 667 l 510 667 l 510 665 l 511 667 l 568 667 l 672 129 l 796 667 l 896 667 m 417 981 l 496 981 l 629 769 l 583 729 l 454 846 l 329 729 l 282 769 l 417 981 z "},"ẅ":{"ha":906,"x_min":13,"x_max":896,"o":"m 896 667 l 729 0 l 536 0 l 449 414 l 347 0 l 154 0 l 13 667 l 188 667 l 290 133 l 411 667 l 510 667 l 510 665 l 511 667 l 568 667 l 672 129 l 796 667 l 896 667 m 321 750 q 254 778 282 750 q 226 844 226 807 q 254 913 226 885 q 321 942 282 942 q 388 913 360 942 q 417 844 417 883 q 388 778 417 806 q 321 750 360 750 m 594 750 q 528 778 557 750 q 500 844 500 807 q 528 913 500 885 q 594 942 556 942 q 662 913 633 942 q 690 844 690 885 q 662 778 690 806 q 594 750 633 750 z "},"ẁ":{"ha":906,"x_min":13,"x_max":896,"o":"m 896 667 l 729 0 l 536 0 l 449 414 l 347 0 l 154 0 l 13 667 l 188 667 l 290 133 l 411 667 l 510 667 l 510 665 l 511 667 l 568 667 l 672 129 l 796 667 l 896 667 m 513 735 l 278 889 l 382 1007 l 547 774 l 513 735 z "},"x":{"ha":626,"x_min":-6,"x_max":621,"o":"m 431 0 l 275 243 l 94 0 l -6 0 l 232 310 l 3 667 l 193 667 l 340 436 l 513 667 l 613 667 l 383 369 l 621 0 l 431 0 z "},"y":{"ha":642,"x_min":7,"x_max":638,"o":"m 638 667 l 308 -282 l 174 -265 l 301 -29 l 7 667 l 181 667 l 379 179 l 538 667 l 638 667 z "},"ý":{"ha":642,"x_min":7,"x_max":638,"o":"m 638 667 l 308 -282 l 174 -265 l 301 -29 l 7 667 l 181 667 l 379 179 l 538 667 l 638 667 m 429 1007 l 532 889 l 299 735 l 264 774 l 429 1007 z "},"ŷ":{"ha":642,"x_min":7,"x_max":638,"o":"m 638 667 l 308 -282 l 174 -265 l 301 -29 l 7 667 l 181 667 l 379 179 l 538 667 l 638 667 m 315 981 l 394 981 l 528 769 l 482 729 l 353 846 l 228 729 l 181 769 l 315 981 z "},"ÿ":{"ha":642,"x_min":7,"x_max":638,"o":"m 638 667 l 308 -282 l 174 -265 l 301 -29 l 7 667 l 181 667 l 379 179 l 538 667 l 638 667 m 218 750 q 151 778 179 750 q 124 844 124 807 q 151 913 124 885 q 218 942 179 942 q 285 913 257 942 q 314 844 314 883 q 285 778 314 806 q 218 750 257 750 m 492 750 q 426 778 454 750 q 397 844 397 807 q 425 913 397 885 q 492 942 453 942 q 559 913 531 942 q 588 844 588 885 q 559 778 588 806 q 492 750 531 750 z "},"ỳ":{"ha":642,"x_min":7,"x_max":638,"o":"m 638 667 l 308 -282 l 174 -265 l 301 -29 l 7 667 l 181 667 l 379 179 l 538 667 l 638 667 m 411 735 l 176 889 l 281 1007 l 446 774 l 411 735 z "},"z":{"ha":590,"x_min":35,"x_max":556,"o":"m 556 88 l 556 0 l 35 0 l 35 104 l 365 579 l 46 579 l 46 667 l 544 667 l 544 563 l 218 88 l 556 88 z "},"ź":{"ha":590,"x_min":35,"x_max":556,"o":"m 556 88 l 556 0 l 35 0 l 35 104 l 365 579 l 46 579 l 46 667 l 544 667 l 544 563 l 218 88 l 556 88 m 371 1007 l 474 889 l 240 735 l 206 774 l 371 1007 z "},"ž":{"ha":590,"x_min":35,"x_max":556,"o":"m 556 88 l 556 0 l 35 0 l 35 104 l 365 579 l 46 579 l 46 667 l 544 667 l 544 563 l 218 88 l 556 88 m 171 981 l 296 864 l 425 981 l 471 940 l 338 729 l 258 729 l 124 940 l 171 981 z "},"ż":{"ha":590,"x_min":35,"x_max":556,"o":"m 556 88 l 556 0 l 35 0 l 35 104 l 365 579 l 46 579 l 46 667 l 544 667 l 544 563 l 218 88 l 556 88 m 296 742 q 222 772 253 742 q 192 844 192 803 q 222 919 192 889 q 296 950 253 950 q 370 919 339 950 q 401 844 401 889 q 370 772 401 801 q 296 742 339 742 z "},"ﬀ":{"ha":828,"x_min":13,"x_max":938,"o":"m 765 917 q 938 869 850 917 l 885 746 q 836 795 864 776 q 779 814 808 814 q 724 790 743 814 q 704 729 704 767 l 704 667 l 838 667 l 838 579 l 704 579 l 704 0 l 531 0 l 531 579 l 290 579 l 290 0 l 117 0 l 117 579 l 13 579 l 13 667 l 117 667 q 192 854 118 792 q 404 917 265 917 q 601 869 507 917 q 765 917 658 917 m 531 688 q 540 771 531 736 q 404 814 485 814 q 322 778 353 814 q 290 683 290 742 l 290 667 l 531 667 l 531 688 z "},"ﬃ":{"ha":1213,"x_min":13,"x_max":1107,"o":"m 1107 0 l 933 0 l 933 579 l 704 579 l 704 0 l 531 0 l 531 579 l 290 579 l 290 0 l 117 0 l 117 579 l 13 579 l 13 667 l 117 667 q 192 854 118 792 q 404 917 265 917 q 617 863 514 917 q 818 917 690 917 q 951 896 886 917 q 1064 842 1015 875 l 1003 722 q 818 814 931 814 q 735 778 767 814 q 704 683 704 742 l 704 667 l 1107 667 l 1107 0 m 531 667 q 546 765 531 722 q 404 814 489 814 q 322 778 353 814 q 290 683 290 742 l 290 667 l 531 667 z "},"ﬄ":{"ha":1213,"x_min":13,"x_max":1107,"o":"m 1107 899 l 1107 0 l 933 0 l 933 785 q 818 814 882 814 q 735 778 767 814 q 704 683 704 742 l 704 667 l 844 667 l 844 579 l 704 579 l 704 0 l 531 0 l 531 579 l 290 579 l 290 0 l 117 0 l 117 579 l 13 579 l 13 667 l 117 667 q 192 854 118 792 q 404 917 265 917 q 617 863 514 917 q 818 917 690 917 q 988 882 904 917 l 1107 899 m 531 667 q 546 765 531 722 q 404 814 489 814 q 322 778 353 814 q 290 683 290 742 l 290 667 l 531 667 z "},"ﬁ":{"ha":799,"x_min":13,"x_max":692,"o":"m 692 0 l 518 0 l 518 579 l 290 579 l 290 0 l 117 0 l 117 579 l 13 579 l 13 667 l 117 667 q 192 854 118 792 q 404 917 265 917 q 537 896 472 917 q 650 842 601 875 l 589 722 q 404 814 517 814 q 322 778 353 814 q 290 683 290 742 l 290 667 l 692 667 l 692 0 z "},"ﬂ":{"ha":799,"x_min":13,"x_max":693,"o":"m 693 899 l 693 0 l 519 0 l 519 785 q 404 814 472 814 q 322 778 353 814 q 290 683 290 742 l 290 667 l 431 667 l 431 579 l 290 579 l 290 0 l 117 0 l 117 579 l 13 579 l 13 667 l 117 667 q 192 854 118 792 q 404 917 265 917 q 574 882 490 917 l 693 899 z "},"ª":{"ha":508,"x_min":35,"x_max":460,"o":"m 68 744 q 126 850 76 814 q 256 886 175 886 q 454 725 454 886 l 454 408 l 376 408 l 332 458 q 265 414 301 431 q 176 397 229 397 q 77 432 110 397 q 44 526 44 467 q 85 619 44 582 q 210 667 125 656 l 307 678 l 307 724 q 294 804 307 781 q 256 828 281 828 q 207 805 224 828 q 185 715 190 782 l 68 744 m 242 467 q 282 474 265 467 q 307 490 299 481 l 307 632 l 265 628 q 196 591 214 621 q 178 529 178 561 q 195 484 178 501 q 242 467 213 467 m 460 328 l 460 229 l 35 229 l 35 328 l 460 328 z "},"º":{"ha":519,"x_min":35,"x_max":483,"o":"m 258 397 q 35 642 35 397 q 258 886 35 886 q 434 819 385 886 q 483 642 483 751 q 434 465 483 532 q 258 397 385 397 m 258 457 q 323 499 307 457 q 339 642 339 540 q 323 785 339 743 q 258 828 307 828 q 197 785 213 828 q 181 642 181 742 q 197 499 181 542 q 258 457 213 457 m 472 328 l 472 229 l 47 229 l 47 328 l 472 328 z "},"Δ":{"ha":803,"x_min":7,"x_max":796,"o":"m 796 0 l 7 0 l 306 851 l 497 851 l 796 0 m 583 113 l 365 761 l 149 113 l 583 113 z "},"Ω":{"ha":926,"x_min":57,"x_max":869,"o":"m 679 113 l 833 113 l 833 0 l 551 0 l 551 217 q 704 506 704 293 q 647 718 704 638 q 463 799 589 799 q 278 718 336 799 q 221 506 221 638 q 375 217 221 294 l 375 0 l 92 0 l 92 113 l 247 113 l 247 194 q 103 333 150 246 q 57 510 57 421 q 97 687 57 606 q 228 819 138 768 q 463 869 319 869 q 698 819 607 869 q 829 687 789 768 q 869 510 869 606 q 822 334 869 422 q 679 194 775 246 l 679 113 z "},"Ω":{"ha":926,"x_min":57,"x_max":869,"o":"m 679 113 l 833 113 l 833 0 l 551 0 l 551 217 q 704 506 704 293 q 647 718 704 638 q 463 799 589 799 q 278 718 336 799 q 221 506 221 638 q 375 217 221 294 l 375 0 l 92 0 l 92 113 l 247 113 l 247 194 q 103 333 150 246 q 57 510 57 421 q 97 687 57 606 q 228 819 138 768 q 463 869 319 869 q 698 819 607 869 q 829 687 789 768 q 869 510 869 606 q 822 334 869 422 q 679 194 775 246 l 679 113 z "},"µ":{"ha":776,"x_min":106,"x_max":683,"o":"m 683 667 l 683 197 q 633 41 683 99 q 468 -17 582 -17 q 274 65 353 -17 l 217 -282 l 106 -282 l 106 667 l 279 667 l 279 142 q 406 74 333 74 q 485 110 460 74 q 510 217 510 146 l 510 667 l 683 667 z "},"μ":{"ha":776,"x_min":106,"x_max":683,"o":"m 683 667 l 683 197 q 633 41 683 99 q 468 -17 582 -17 q 274 65 353 -17 l 217 -282 l 106 -282 l 106 667 l 279 667 l 279 142 q 406 74 333 74 q 485 110 460 74 q 510 217 510 146 l 510 667 l 683 667 z "},"π":{"ha":765,"x_min":47,"x_max":717,"o":"m 717 579 l 647 579 l 647 0 l 474 0 l 474 579 l 290 579 l 290 0 l 117 0 l 117 579 l 47 579 l 47 667 l 717 667 l 717 579 z "},"ऄ":{"ha":1167,"x_min":65,"x_max":1183,"o":"m 1183 833 l 1183 783 l 1050 783 l 1050 0 l 875 0 l 875 336 q 768 313 828 313 q 719 317 743 313 q 735 233 735 281 q 688 108 735 165 q 559 17 640 50 q 381 -17 478 -17 q 217 10 289 -17 q 105 81 144 36 q 65 183 65 126 q 115 269 65 235 q 250 303 164 303 q 240 217 240 264 q 281 95 240 146 q 381 44 321 44 q 500 98 458 44 q 542 233 542 151 q 513 337 542 290 q 435 410 485 383 q 328 438 386 438 q 219 421 268 438 l 264 503 q 427 549 371 503 q 483 683 483 596 q 453 765 483 732 q 378 797 422 797 q 292 769 326 797 q 257 699 257 742 q 292 624 257 654 q 235 577 267 593 q 169 561 203 561 q 108 587 133 561 q 82 660 82 613 q 122 755 82 711 q 229 824 161 799 q 378 850 297 850 q 533 828 465 850 q 639 767 601 806 q 676 683 676 729 q 622 571 676 624 q 469 490 568 518 q 629 432 565 476 q 768 382 692 382 q 875 411 822 382 l 875 783 l 792 783 l 792 833 l 1183 833 m 928 833 q 892 949 928 910 q 802 1001 856 988 q 654 1026 749 1015 q 510 1050 565 1038 q 406 1096 454 1063 q 333 1192 357 1129 q 386 1231 356 1217 q 465 1246 417 1246 q 537 1140 490 1178 q 636 1088 583 1103 q 769 1063 689 1074 q 897 1036 850 1050 q 974 984 943 1022 q 1006 874 1006 946 q 974 844 992 854 q 928 833 957 833 z "},"ॲ":{"ha":1167,"x_min":65,"x_max":1242,"o":"m 1183 833 l 1183 783 l 1050 783 l 1050 0 l 875 0 l 875 336 q 768 313 828 313 q 719 317 743 313 q 735 233 735 281 q 688 108 735 165 q 559 17 640 50 q 381 -17 478 -17 q 217 10 289 -17 q 105 81 144 36 q 65 183 65 126 q 115 269 65 235 q 250 303 164 303 q 240 217 240 264 q 281 95 240 146 q 381 44 321 44 q 500 98 458 44 q 542 233 542 151 q 513 337 542 290 q 435 410 485 383 q 328 438 386 438 q 219 421 268 438 l 264 503 q 427 549 371 503 q 483 683 483 596 q 453 765 483 732 q 378 797 422 797 q 292 769 326 797 q 257 699 257 742 q 292 624 257 654 q 235 577 267 593 q 169 561 203 561 q 108 587 133 561 q 82 660 82 613 q 122 755 82 711 q 229 824 161 799 q 378 850 297 850 q 533 828 465 850 q 639 767 601 806 q 676 683 676 729 q 622 571 676 624 q 469 490 568 518 q 629 432 565 476 q 768 382 692 382 q 875 411 822 382 l 875 783 l 792 783 l 792 833 l 1183 833 m 1242 1163 q 1137 992 1211 1050 q 963 933 1063 933 q 779 986 858 933 q 674 1132 700 1039 l 824 1186 q 885 1051 838 1100 q 997 1003 932 1003 q 1128 1050 1074 1003 q 1208 1186 1182 1097 l 1242 1163 z "},"अ":{"ha":1167,"x_min":65,"x_max":1183,"o":"m 1183 833 l 1183 783 l 1050 783 l 1050 0 l 875 0 l 875 336 q 768 313 828 313 q 719 317 743 313 q 735 233 735 281 q 688 108 735 165 q 559 17 640 50 q 381 -17 478 -17 q 217 10 289 -17 q 105 81 144 36 q 65 183 65 126 q 115 269 65 235 q 250 303 164 303 q 240 217 240 264 q 281 95 240 146 q 381 44 321 44 q 500 98 458 44 q 542 233 542 151 q 513 337 542 290 q 435 410 485 383 q 328 438 386 438 q 219 421 268 438 l 264 503 q 427 549 371 503 q 483 683 483 596 q 453 765 483 732 q 378 797 422 797 q 292 769 326 797 q 257 699 257 742 q 292 624 257 654 q 235 577 267 593 q 169 561 203 561 q 108 587 133 561 q 82 660 82 613 q 122 755 82 711 q 229 824 161 799 q 378 850 297 850 q 533 828 465 850 q 639 767 601 806 q 676 683 676 729 q 622 571 676 624 q 469 490 568 518 q 629 432 565 476 q 768 382 692 382 q 875 411 822 382 l 875 783 l 792 783 l 792 833 l 1183 833 z "},"आ":{"ha":1575,"x_min":65,"x_max":1592,"o":"m 1592 783 l 1458 783 l 1458 0 l 1283 0 l 1283 783 l 1050 783 l 1050 0 l 875 0 l 875 336 q 768 313 828 313 q 719 317 743 313 q 735 233 735 281 q 688 108 735 165 q 559 17 640 50 q 381 -17 478 -17 q 217 10 289 -17 q 105 81 144 36 q 65 183 65 126 q 115 269 65 235 q 250 303 164 303 q 240 217 240 264 q 281 95 240 146 q 381 44 321 44 q 500 98 458 44 q 542 233 542 151 q 513 337 542 290 q 435 410 485 383 q 328 438 386 438 q 219 421 268 438 l 264 503 q 427 549 371 503 q 483 683 483 596 q 453 765 483 732 q 378 797 422 797 q 292 769 326 797 q 257 699 257 742 q 292 624 257 654 q 235 577 267 593 q 169 561 203 561 q 108 587 133 561 q 82 660 82 613 q 122 755 82 711 q 229 824 161 799 q 378 850 297 850 q 533 828 465 850 q 639 767 601 806 q 676 683 676 729 q 622 571 676 624 q 469 490 568 518 q 629 432 565 476 q 768 382 692 382 q 875 411 822 382 l 875 783 l 792 783 l 792 833 l 1592 833 l 1592 783 z "},"इ":{"ha":851,"x_min":-17,"x_max":868,"o":"m 404 664 q 343 648 369 664 q 317 601 317 632 q 360 542 317 564 q 499 493 403 521 q 660 439 596 465 q 769 363 724 413 q 815 236 815 313 q 749 90 815 149 q 574 6 682 32 q 649 -60 606 -36 q 754 -83 692 -83 q 705 -133 739 -115 q 624 -150 671 -150 q 511 -114 558 -150 q 428 -15 464 -78 q 382 -17 413 -17 q 223 7 294 -17 q 110 74 151 31 q 68 172 68 117 q 120 270 68 235 q 257 306 172 306 q 375 278 328 306 q 450 212 422 251 q 513 107 478 172 l 535 65 q 610 123 582 88 q 638 206 638 158 q 606 278 638 249 q 528 326 575 308 q 403 367 482 343 q 263 413 315 392 q 174 469 210 433 q 138 561 138 506 q 201 678 138 639 q 364 717 265 717 q 461 709 417 717 q 556 679 506 701 l 556 783 l -17 783 l -17 833 l 868 833 l 868 783 l 731 783 l 731 628 l 589 583 q 503 642 553 621 q 404 664 454 664 m 400 36 q 369 104 394 49 q 313 217 336 182 q 257 253 289 253 q 221 233 233 253 q 208 188 208 213 q 263 76 208 115 q 393 36 318 36 l 400 36 z "},"ई":{"ha":851,"x_min":-17,"x_max":878,"o":"m 404 664 q 343 648 369 664 q 317 601 317 632 q 360 542 317 564 q 499 493 403 521 q 660 439 596 465 q 769 363 724 413 q 815 236 815 313 q 749 90 815 149 q 574 6 682 32 q 649 -60 606 -36 q 754 -83 692 -83 q 705 -133 739 -115 q 624 -150 671 -150 q 511 -114 558 -150 q 428 -15 464 -78 q 382 -17 413 -17 q 223 7 294 -17 q 110 74 151 31 q 68 172 68 117 q 120 270 68 235 q 257 306 172 306 q 375 278 328 306 q 450 212 422 251 q 513 107 478 172 l 535 65 q 610 123 582 88 q 638 206 638 158 q 606 278 638 249 q 528 326 575 308 q 403 367 482 343 q 263 413 315 392 q 174 469 210 433 q 138 561 138 506 q 201 678 138 639 q 364 717 265 717 q 461 709 417 717 q 556 679 506 701 l 556 783 l -17 783 l -17 833 l 868 833 l 868 783 l 731 783 l 731 628 l 589 583 q 503 642 553 621 q 404 664 454 664 m 400 36 q 369 104 394 49 q 313 217 336 182 q 257 253 289 253 q 221 233 233 253 q 208 188 208 213 q 263 76 208 115 q 393 36 318 36 l 400 36 m 585 833 q 474 928 514 867 q 433 1063 433 989 q 505 1216 433 1158 q 683 1274 576 1274 q 878 1232 781 1274 q 857 1161 878 1186 q 817 1136 836 1136 q 762 1193 797 1174 q 685 1213 726 1213 q 610 1174 638 1213 q 582 1081 582 1135 q 608 962 582 1017 q 681 874 633 907 q 585 833 646 833 z "},"उ":{"ha":782,"x_min":-17,"x_max":799,"o":"m 799 783 l 572 783 q 650 732 622 763 q 678 667 678 701 q 624 563 678 611 q 471 490 569 515 q 668 400 600 471 q 736 233 736 329 q 689 108 736 165 q 560 17 642 50 q 382 -17 479 -17 q 217 10 289 -17 q 106 81 146 36 q 67 183 67 126 q 115 269 67 235 q 251 303 164 303 q 242 217 242 264 q 281 95 242 146 q 382 44 321 44 q 501 98 460 44 q 543 233 543 151 q 515 337 543 290 q 437 410 486 383 q 329 438 388 438 q 221 421 268 438 l 265 503 q 428 544 372 503 q 485 667 485 586 q 454 750 485 717 q 379 783 424 783 l -17 783 l -17 833 l 799 833 l 799 783 z "},"ऊ":{"ha":1172,"x_min":-17,"x_max":1189,"o":"m 1189 783 l 572 783 q 650 732 622 763 q 678 667 678 701 q 624 563 678 611 q 471 490 569 515 q 644 421 578 474 q 860 575 711 575 q 1001 536 936 575 q 1103 430 1065 497 q 1140 282 1140 363 q 1107 126 1140 193 q 1014 21 1074 58 q 876 -17 954 -17 q 789 8 824 -17 q 754 69 754 32 q 911 140 857 69 q 965 333 965 211 q 933 463 965 404 q 843 522 901 522 q 753 480 793 522 q 694 368 714 438 q 736 233 736 308 q 689 108 736 165 q 560 17 642 50 q 382 -17 479 -17 q 217 10 289 -17 q 106 81 146 36 q 67 183 67 126 q 115 269 67 235 q 251 303 164 303 q 242 217 242 264 q 281 95 242 146 q 382 44 321 44 q 501 98 460 44 q 543 233 543 151 q 515 337 543 290 q 437 410 486 383 q 329 438 388 438 q 221 421 268 438 l 265 503 q 428 544 372 503 q 485 667 485 586 q 454 750 485 717 q 379 783 424 783 l -17 783 l -17 833 l 1189 833 l 1189 783 z "},"ऋ":{"ha":1390,"x_min":-17,"x_max":1407,"o":"m 1407 783 l 822 783 l 822 422 l 956 496 q 935 563 935 529 q 975 646 935 617 q 1071 675 1015 675 q 1167 647 1126 675 q 1207 567 1207 618 l 1076 494 q 1278 377 1200 444 q 1356 217 1356 310 q 1317 107 1356 157 q 1211 28 1278 57 q 1064 0 1144 0 q 997 19 1022 0 q 972 69 972 38 q 1124 97 1068 69 q 1181 186 1181 125 q 1136 317 1181 246 q 999 450 1092 388 l 822 354 l 822 0 l 647 0 l 647 257 l 167 -10 l 142 43 l 260 110 q 372 226 338 154 q 407 397 407 297 q 375 560 407 499 q 275 622 343 622 q 177 572 215 622 q 139 439 139 521 q 142 396 139 426 q 54 428 89 396 q 19 507 19 461 q 96 633 19 592 q 275 675 172 675 q 499 610 415 675 q 582 435 582 546 q 560 334 582 383 q 486 233 539 285 l 647 325 l 647 783 l -17 783 l -17 833 l 1407 833 l 1407 783 z "},"ॠ":{"ha":1390,"x_min":-17,"x_max":1407,"o":"m 1407 783 l 822 783 l 822 422 l 961 500 q 940 567 940 532 q 978 647 940 618 q 1071 675 1017 675 q 1167 647 1126 675 q 1207 567 1207 618 l 822 354 l 822 0 l 647 0 l 647 257 l 167 -10 l 142 43 l 260 110 q 372 226 338 154 q 407 397 407 297 q 375 560 407 499 q 275 622 343 622 q 177 572 215 622 q 139 439 139 521 q 142 396 139 426 q 54 428 89 396 q 19 507 19 461 q 96 633 19 592 q 275 675 172 675 q 499 610 415 675 q 582 435 582 546 q 560 334 582 383 q 486 233 539 285 l 647 325 l 647 783 l -17 783 l -17 833 l 1407 833 l 1407 783 m 999 450 l 1064 364 q 980 277 1011 328 q 949 176 949 226 q 1006 49 949 99 q 1149 0 1064 0 q 1363 107 1288 0 l 1328 168 q 1270 115 1306 135 q 1194 96 1235 96 q 1126 124 1153 96 q 1099 201 1099 151 q 1118 297 1099 257 q 1172 369 1138 338 l 1076 494 l 999 450 z "},"ऌ":{"ha":1093,"x_min":-17,"x_max":1110,"o":"m 872 783 l 872 636 q 994 537 949 604 q 1039 386 1039 469 q 1014 265 1039 317 q 953 177 989 213 q 858 97 917 142 q 779 31 808 58 q 731 -32 750 4 q 711 -114 711 -68 q 742 -221 711 -185 q 828 -257 774 -257 q 932 -200 894 -257 q 969 -56 969 -143 q 1058 -85 1022 -56 q 1093 -157 1093 -114 q 1017 -268 1093 -226 q 825 -310 942 -310 q 678 -285 744 -310 q 574 -215 613 -260 q 536 -114 536 -171 q 554 -40 536 -72 q 599 15 572 -8 q 672 71 625 39 q 772 151 735 115 q 837 244 810 186 q 864 386 864 303 q 850 485 864 435 q 808 571 836 536 q 742 606 781 606 q 669 575 703 606 q 614 493 635 544 q 593 381 593 442 l 501 381 q 481 493 501 442 q 426 575 460 544 q 353 606 392 606 q 286 571 314 606 q 244 485 258 536 q 231 386 231 435 q 295 173 231 250 q 474 96 360 96 q 435 24 472 56 q 339 -8 399 -8 q 197 35 261 -8 q 94 156 132 78 q 56 335 56 233 q 93 498 56 424 q 194 615 131 572 q 336 658 258 658 q 547 506 489 658 q 697 651 593 626 l 697 783 l -17 783 l -17 833 l 1110 833 l 1110 783 l 872 783 z "},"ॡ":{"ha":1093,"x_min":-17,"x_max":1110,"o":"m 872 783 l 872 636 q 994 537 949 604 q 1039 386 1039 469 q 1010 279 1039 324 q 943 208 982 235 q 847 150 904 181 q 783 111 804 126 q 763 78 763 96 q 786 28 763 50 q 844 3 810 7 q 903 4 864 4 l 903 -49 q 759 -83 806 -49 q 713 -172 713 -117 q 747 -251 713 -221 q 828 -282 781 -282 q 928 -237 890 -282 q 967 -115 967 -193 q 1040 -135 1010 -115 q 1069 -185 1069 -156 q 993 -294 1069 -254 q 815 -335 917 -335 q 676 -313 740 -335 q 575 -254 613 -292 q 538 -172 538 -217 q 577 -80 538 -118 q 689 -21 617 -42 q 615 22 642 -4 q 588 78 588 47 q 608 114 588 99 q 676 156 629 129 q 771 211 733 185 q 836 281 808 238 q 864 386 864 325 q 850 485 864 435 q 808 571 836 536 q 742 606 781 606 q 669 575 703 606 q 614 493 635 544 q 593 381 593 442 l 501 381 q 481 493 501 442 q 426 575 460 544 q 353 606 392 606 q 286 571 314 606 q 244 485 258 536 q 231 386 231 435 q 295 173 231 250 q 474 96 360 96 q 435 24 472 56 q 339 -8 399 -8 q 198 35 263 -8 q 94 156 133 78 q 56 335 56 233 q 93 498 56 424 q 194 615 131 572 q 336 658 258 658 q 547 506 489 658 q 697 651 593 626 l 697 783 l -17 783 l -17 833 l 1110 833 l 1110 783 l 872 783 z "},"ऍ":{"ha":865,"x_min":-17,"x_max":882,"o":"m 442 -383 q 278 -357 350 -383 q 166 -285 206 -331 q 126 -183 126 -240 q 176 -98 126 -132 q 311 -64 225 -64 q 301 -150 301 -112 q 342 -272 301 -221 q 442 -322 382 -322 q 567 -281 517 -322 q 617 -167 617 -240 q 584 -75 617 -119 q 503 8 551 -31 q 372 103 454 47 q 228 210 282 167 q 138 306 175 253 q 100 417 100 358 l 100 783 l -17 783 l -17 833 l 882 833 l 882 783 l 765 783 l 765 575 q 729 440 765 503 q 624 337 693 378 q 458 286 554 296 q 556 413 522 335 q 590 578 590 492 l 590 783 l 275 783 l 275 453 q 302 362 275 403 q 369 290 329 321 q 479 213 408 258 q 615 116 563 158 q 703 12 667 74 q 739 -131 739 -50 q 699 -258 739 -200 q 590 -349 658 -315 q 442 -383 522 -383 m 756 1163 q 651 992 725 1050 q 476 933 576 933 q 293 986 372 933 q 188 1132 214 1039 l 338 1186 q 399 1051 351 1100 q 511 1003 446 1003 q 642 1050 588 1003 q 722 1186 696 1097 l 756 1163 z "},"ऎ":{"ha":865,"x_min":-17,"x_max":882,"o":"m 442 -383 q 278 -357 350 -383 q 166 -285 206 -331 q 126 -183 126 -240 q 176 -98 126 -132 q 311 -64 225 -64 q 301 -150 301 -112 q 342 -272 301 -221 q 442 -322 382 -322 q 567 -281 517 -322 q 617 -167 617 -240 q 584 -75 617 -119 q 503 8 551 -31 q 372 103 454 47 q 228 210 282 167 q 138 306 175 253 q 100 417 100 358 l 100 783 l -17 783 l -17 833 l 882 833 l 882 783 l 765 783 l 765 575 q 729 440 765 503 q 624 337 693 378 q 458 286 554 296 q 556 413 522 335 q 590 578 590 492 l 590 783 l 275 783 l 275 453 q 302 362 275 403 q 369 290 329 321 q 479 213 408 258 q 615 116 563 158 q 703 12 667 74 q 739 -131 739 -50 q 699 -258 739 -200 q 590 -349 658 -315 q 442 -383 522 -383 m 643 833 q 607 949 643 910 q 517 1001 571 988 q 369 1026 464 1015 q 225 1050 281 1038 q 121 1096 169 1063 q 49 1192 72 1129 q 101 1231 71 1217 q 181 1246 132 1246 q 252 1140 206 1178 q 351 1088 299 1103 q 485 1063 404 1074 q 612 1036 565 1050 q 690 984 658 1022 q 721 874 721 946 q 690 844 707 854 q 643 833 672 833 z "},"ए":{"ha":865,"x_min":-17,"x_max":882,"o":"m 442 -383 q 278 -357 350 -383 q 166 -285 206 -331 q 126 -183 126 -240 q 176 -98 126 -132 q 311 -64 225 -64 q 301 -150 301 -112 q 342 -272 301 -221 q 442 -322 382 -322 q 567 -281 517 -322 q 617 -167 617 -240 q 584 -75 617 -119 q 503 8 551 -31 q 372 103 454 47 q 228 210 282 167 q 138 306 175 253 q 100 417 100 358 l 100 783 l -17 783 l -17 833 l 882 833 l 882 783 l 765 783 l 765 575 q 729 440 765 503 q 624 337 693 378 q 458 286 554 296 q 556 413 522 335 q 590 578 590 492 l 590 783 l 275 783 l 275 453 q 302 362 275 403 q 369 290 329 321 q 479 213 408 258 q 615 116 563 158 q 703 12 667 74 q 739 -131 739 -50 q 699 -258 739 -200 q 590 -349 658 -315 q 442 -383 522 -383 z "},"ऐ":{"ha":865,"x_min":-17,"x_max":882,"o":"m 442 -383 q 278 -357 350 -383 q 166 -285 206 -331 q 126 -183 126 -240 q 176 -98 126 -132 q 311 -64 225 -64 q 301 -150 301 -112 q 342 -272 301 -221 q 442 -322 382 -322 q 567 -281 517 -322 q 617 -167 617 -240 q 584 -75 617 -119 q 503 8 551 -31 q 372 103 454 47 q 228 210 282 167 q 138 306 175 253 q 100 417 100 358 l 100 783 l -17 783 l -17 833 l 882 833 l 882 783 l 765 783 l 765 575 q 729 440 765 503 q 624 337 693 378 q 458 286 554 296 q 556 413 522 335 q 590 578 590 492 l 590 783 l 275 783 l 275 453 q 302 362 275 403 q 369 290 329 321 q 479 213 408 258 q 615 116 563 158 q 703 12 667 74 q 739 -131 739 -50 q 699 -258 739 -200 q 590 -349 658 -315 q 442 -383 522 -383 m 289 1269 q 343 1308 308 1294 q 440 1322 378 1322 l 721 874 q 643 833 692 833 l 289 1269 z "},"ऑ":{"ha":1575,"x_min":65,"x_max":1592,"o":"m 1592 783 l 1458 783 l 1458 0 l 1283 0 l 1283 783 l 1050 783 l 1050 0 l 875 0 l 875 336 q 768 313 828 313 q 719 317 743 313 q 735 233 735 281 q 688 108 735 165 q 559 17 640 50 q 381 -17 478 -17 q 217 10 289 -17 q 105 81 144 36 q 65 183 65 126 q 115 269 65 235 q 250 303 164 303 q 240 217 240 264 q 281 95 240 146 q 381 44 321 44 q 500 98 458 44 q 542 233 542 151 q 513 337 542 290 q 435 410 485 383 q 328 438 386 438 q 219 421 268 438 l 264 503 q 427 549 371 503 q 483 683 483 596 q 453 765 483 732 q 378 797 422 797 q 292 769 326 797 q 257 699 257 742 q 292 624 257 654 q 235 577 267 593 q 169 561 203 561 q 108 587 133 561 q 82 660 82 613 q 122 755 82 711 q 229 824 161 799 q 378 850 297 850 q 533 828 465 850 q 639 767 601 806 q 676 683 676 729 q 622 571 676 624 q 469 490 568 518 q 629 432 565 476 q 768 382 692 382 q 875 411 822 382 l 875 783 l 792 783 l 792 833 l 1592 833 l 1592 783 m 1460 1163 q 1355 992 1429 1050 q 1181 933 1281 933 q 997 986 1076 933 q 892 1132 918 1039 l 1042 1186 q 1103 1051 1056 1100 q 1215 1003 1150 1003 q 1346 1050 1292 1003 q 1426 1186 1400 1097 l 1460 1163 z "},"ऒ":{"ha":1575,"x_min":65,"x_max":1592,"o":"m 1414 874 q 1383 844 1400 854 q 1336 833 1365 833 q 1300 949 1336 910 q 1210 1001 1264 988 q 1063 1026 1157 1015 q 918 1050 974 1038 q 814 1096 863 1063 q 742 1192 765 1129 q 794 1231 764 1217 q 874 1246 825 1246 q 945 1140 899 1178 q 1044 1088 992 1103 q 1178 1063 1097 1074 q 1305 1036 1258 1050 q 1383 984 1351 1022 q 1414 874 1414 946 m 1592 783 l 1458 783 l 1458 0 l 1283 0 l 1283 783 l 1050 783 l 1050 0 l 875 0 l 875 336 q 768 313 828 313 q 719 317 743 313 q 735 233 735 281 q 688 108 735 165 q 559 17 640 50 q 381 -17 478 -17 q 217 10 289 -17 q 105 81 144 36 q 65 183 65 126 q 115 269 65 235 q 250 303 164 303 q 240 217 240 264 q 281 95 240 146 q 381 44 321 44 q 500 98 458 44 q 542 233 542 151 q 513 337 542 290 q 435 410 485 383 q 328 438 386 438 q 219 421 268 438 l 264 503 q 427 549 371 503 q 483 683 483 596 q 453 765 483 732 q 378 797 422 797 q 292 769 326 797 q 257 699 257 742 q 292 624 257 654 q 235 577 267 593 q 169 561 203 561 q 108 587 133 561 q 82 660 82 613 q 122 755 82 711 q 229 824 161 799 q 378 850 297 850 q 533 828 465 850 q 639 767 601 806 q 676 683 676 729 q 622 571 676 624 q 469 490 568 518 q 629 432 565 476 q 768 382 692 382 q 875 411 822 382 l 875 783 l 792 783 l 792 833 l 1592 833 l 1592 783 z "},"ओ":{"ha":1575,"x_min":65,"x_max":1592,"o":"m 1592 783 l 1458 783 l 1458 0 l 1283 0 l 1283 783 l 1050 783 l 1050 0 l 875 0 l 875 336 q 768 313 828 313 q 719 317 743 313 q 735 233 735 281 q 688 108 735 165 q 559 17 640 50 q 381 -17 478 -17 q 217 10 289 -17 q 105 81 144 36 q 65 183 65 126 q 115 269 65 235 q 250 303 164 303 q 240 217 240 264 q 281 95 240 146 q 381 44 321 44 q 500 98 458 44 q 542 233 542 151 q 513 337 542 290 q 435 410 485 383 q 328 438 386 438 q 219 421 268 438 l 264 503 q 427 549 371 503 q 483 683 483 596 q 453 765 483 732 q 378 797 422 797 q 292 769 326 797 q 257 699 257 742 q 292 624 257 654 q 235 577 267 593 q 169 561 203 561 q 108 587 133 561 q 82 660 82 613 q 122 755 82 711 q 229 824 161 799 q 378 850 297 850 q 533 828 465 850 q 639 767 601 806 q 676 683 676 729 q 622 571 676 624 q 469 490 568 518 q 629 432 565 476 q 768 382 692 382 q 875 411 822 382 l 875 783 l 792 783 l 792 833 l 1592 833 l 1592 783 m 981 1269 q 1035 1308 1000 1294 q 1132 1322 1069 1322 l 1413 874 q 1335 833 1383 833 l 981 1269 z "},"औ":{"ha":1575,"x_min":65,"x_max":1592,"o":"m 1592 783 l 1458 783 l 1458 0 l 1283 0 l 1283 783 l 1050 783 l 1050 0 l 875 0 l 875 336 q 768 313 828 313 q 719 317 743 313 q 735 233 735 281 q 688 108 735 165 q 559 17 640 50 q 381 -17 478 -17 q 217 10 289 -17 q 105 81 144 36 q 65 183 65 126 q 115 269 65 235 q 250 303 164 303 q 240 217 240 264 q 281 95 240 146 q 381 44 321 44 q 500 98 458 44 q 542 233 542 151 q 513 337 542 290 q 435 410 485 383 q 328 438 386 438 q 219 421 268 438 l 264 503 q 427 549 371 503 q 483 683 483 596 q 453 765 483 732 q 378 797 422 797 q 292 769 326 797 q 257 699 257 742 q 292 624 257 654 q 235 577 267 593 q 169 561 203 561 q 108 587 133 561 q 82 660 82 613 q 122 755 82 711 q 229 824 161 799 q 378 850 297 850 q 533 828 465 850 q 639 767 601 806 q 676 683 676 729 q 622 571 676 624 q 469 490 568 518 q 629 432 565 476 q 768 382 692 382 q 875 411 822 382 l 875 783 l 792 783 l 792 833 l 1592 833 l 1592 783 m 1407 867 q 1379 844 1401 854 q 1338 833 1357 833 l 840 1024 q 903 1156 836 1108 l 1310 904 l 981 1269 q 1035 1308 1000 1294 q 1132 1322 1069 1322 l 1407 867 z "},"ॳ":{"ha":1167,"x_min":65,"x_max":1183,"o":"m 1183 833 l 1183 783 l 1050 783 l 1050 0 l 875 0 l 875 336 q 768 313 828 313 q 719 317 743 313 q 735 233 735 281 q 688 108 735 165 q 559 17 640 50 q 381 -17 478 -17 q 217 10 289 -17 q 105 81 144 36 q 65 183 65 126 q 115 269 65 235 q 250 303 164 303 q 240 217 240 264 q 281 95 240 146 q 381 44 321 44 q 500 98 458 44 q 542 233 542 151 q 513 337 542 290 q 435 410 485 383 q 328 438 386 438 q 219 421 268 438 l 264 503 q 427 549 371 503 q 483 683 483 596 q 453 765 483 732 q 378 797 422 797 q 292 769 326 797 q 257 699 257 742 q 292 624 257 654 q 235 577 267 593 q 169 561 203 561 q 108 587 133 561 q 82 660 82 613 q 122 755 82 711 q 229 824 161 799 q 378 850 297 850 q 533 828 465 850 q 639 767 601 806 q 676 683 676 729 q 622 571 676 624 q 469 490 568 518 q 629 432 565 476 q 768 382 692 382 q 875 411 822 382 l 875 783 l 792 783 l 792 833 l 1183 833 m 1050 833 l 875 833 l 875 1036 l 1050 1036 l 1050 833 z "},"ॴ":{"ha":1575,"x_min":65,"x_max":1592,"o":"m 1592 783 l 1458 783 l 1458 0 l 1283 0 l 1283 783 l 1050 783 l 1050 0 l 875 0 l 875 336 q 768 313 828 313 q 719 317 743 313 q 735 233 735 281 q 688 108 735 165 q 559 17 640 50 q 381 -17 478 -17 q 217 10 289 -17 q 105 81 144 36 q 65 183 65 126 q 115 269 65 235 q 250 303 164 303 q 240 217 240 264 q 281 95 240 146 q 381 44 321 44 q 500 98 458 44 q 542 233 542 151 q 513 337 542 290 q 435 410 485 383 q 328 438 386 438 q 219 421 268 438 l 264 503 q 427 549 371 503 q 483 683 483 596 q 453 765 483 732 q 378 797 422 797 q 292 769 326 797 q 257 699 257 742 q 292 624 257 654 q 235 577 267 593 q 169 561 203 561 q 108 587 133 561 q 82 660 82 613 q 122 755 82 711 q 229 824 161 799 q 378 850 297 850 q 533 828 465 850 q 639 767 601 806 q 676 683 676 729 q 622 571 676 624 q 469 490 568 518 q 629 432 565 476 q 768 382 692 382 q 875 411 822 382 l 875 783 l 792 783 l 792 833 l 1592 833 l 1592 783 m 1458 833 l 1283 833 l 1283 1036 l 1458 1036 l 1458 833 z "},"ॶ":{"ha":1118,"x_min":65,"x_max":1183,"o":"m 1183 833 l 1183 783 l 1050 783 l 1050 0 l 875 0 l 875 336 q 768 313 828 313 q 719 317 743 313 q 735 233 735 281 q 688 108 735 165 q 559 17 640 50 q 381 -17 478 -17 q 217 10 289 -17 q 105 81 144 36 q 65 183 65 126 q 115 269 65 235 q 250 303 164 303 q 240 217 240 264 q 281 95 240 146 q 381 44 321 44 q 500 98 458 44 q 542 233 542 151 q 513 337 542 290 q 435 410 485 383 q 328 438 386 438 q 219 421 268 438 l 264 503 q 427 549 371 503 q 483 683 483 596 q 453 765 483 732 q 378 797 422 797 q 292 769 326 797 q 257 699 257 742 q 292 624 257 654 q 235 577 267 593 q 169 561 203 561 q 108 587 133 561 q 82 660 82 613 q 122 755 82 711 q 229 824 161 799 q 378 850 297 850 q 533 828 465 850 q 639 767 601 806 q 676 683 676 729 q 622 571 676 624 q 469 490 568 518 q 629 432 565 476 q 768 382 692 382 q 875 411 822 382 l 875 783 l 792 783 l 792 833 l 1183 833 m 850 -135 q 745 -269 819 -218 q 568 -321 671 -321 q 383 -279 465 -321 q 275 -175 301 -237 l 406 -119 q 471 -213 419 -175 q 593 -251 522 -251 q 725 -215 668 -251 q 813 -119 782 -179 l 850 -135 z "},"ॷ":{"ha":1118,"x_min":65,"x_max":1183,"o":"m 1183 833 l 1183 783 l 1050 783 l 1050 0 l 875 0 l 875 336 q 768 313 828 313 q 719 317 743 313 q 735 233 735 281 q 688 108 735 165 q 559 17 640 50 q 381 -17 478 -17 q 217 10 289 -17 q 105 81 144 36 q 65 183 65 126 q 115 269 65 235 q 250 303 164 303 q 240 217 240 264 q 281 95 240 146 q 381 44 321 44 q 500 98 458 44 q 542 233 542 151 q 513 337 542 290 q 435 410 485 383 q 328 438 386 438 q 219 421 268 438 l 264 503 q 427 549 371 503 q 483 683 483 596 q 453 765 483 732 q 378 797 422 797 q 292 769 326 797 q 257 699 257 742 q 292 624 257 654 q 235 577 267 593 q 169 561 203 561 q 108 587 133 561 q 82 660 82 613 q 122 755 82 711 q 229 824 161 799 q 378 850 297 850 q 533 828 465 850 q 639 767 601 806 q 676 683 676 729 q 622 571 676 624 q 469 490 568 518 q 629 432 565 476 q 768 382 692 382 q 875 411 822 382 l 875 783 l 792 783 l 792 833 l 1183 833 m 850 -135 q 745 -269 819 -218 q 568 -321 671 -321 q 383 -279 465 -321 q 275 -175 301 -237 l 406 -119 q 471 -213 419 -175 q 593 -251 522 -251 q 725 -215 668 -251 q 813 -119 782 -179 l 850 -135 m 850 -368 q 745 -503 819 -451 q 568 -554 671 -554 q 383 -512 465 -554 q 275 -408 301 -471 l 406 -353 q 471 -447 419 -408 q 593 -485 522 -485 q 725 -449 668 -485 q 813 -353 782 -412 l 850 -368 z "},"ा":{"ha":408,"x_min":-17,"x_max":425,"o":"m 425 783 l 292 783 l 292 0 l 117 0 l 117 783 l -17 783 l -17 833 l 425 833 l 425 783 z "},"ि":{"ha":408,"x_min":-17,"x_max":999,"o":"m 399 1233 q 721 1145 564 1233 q 999 906 878 1057 l 936 858 q 704 1070 831 994 q 436 1146 578 1146 q 274 1108 329 1146 q 219 1007 219 1069 q 247 925 219 964 q 318 867 274 886 l 251 833 l 425 833 l 425 783 l 292 783 l 292 0 l 117 0 l 117 783 l -17 783 l -17 833 l 126 833 q 66 915 88 868 q 44 1007 44 961 q 86 1122 44 1071 q 208 1203 128 1174 q 399 1233 289 1233 z "},"ी":{"ha":408,"x_min":-236,"x_max":425,"o":"m 425 833 l 425 783 l 292 783 l 292 0 l 117 0 l 117 783 l -17 783 l -17 833 l 149 833 l 82 867 q 153 928 126 888 q 181 1014 181 969 q 147 1110 181 1074 q 49 1146 114 1146 q -48 1111 0 1146 q -130 1006 -96 1076 q -172 833 -164 936 l -236 867 q -175 1088 -228 1006 q -52 1201 -122 1169 q 85 1233 18 1233 q 284 1172 213 1233 q 356 1014 356 1111 q 334 917 356 964 q 274 833 313 869 l 425 833 z "},"ॉ":{"ha":408,"x_min":-85,"x_max":483,"o":"m 425 783 l 292 783 l 292 0 l 117 0 l 117 783 l -17 783 l -17 833 l 425 833 l 425 783 m 483 1163 q 378 992 453 1050 q 204 933 304 933 q 21 986 100 933 q -85 1132 -58 1039 l 65 1186 q 126 1051 79 1100 q 239 1003 174 1003 q 369 1050 315 1003 q 450 1186 424 1097 l 483 1163 z "},"ॊ":{"ha":408,"x_min":-425,"x_max":425,"o":"m 425 783 l 292 783 l 292 0 l 117 0 l 117 783 l -17 783 l -17 833 l 425 833 l 425 783 m 169 833 q 133 949 169 910 q 44 1001 97 988 q -104 1026 -10 1015 q -249 1050 -193 1038 q -353 1096 -304 1063 q -425 1192 -401 1129 q -372 1231 -403 1217 q -293 1246 -342 1246 q -222 1140 -268 1178 q -122 1088 -175 1103 q 11 1063 -69 1074 q 138 1036 92 1050 q 216 984 185 1022 q 247 874 247 946 q 216 844 233 854 q 169 833 199 833 z "},"ो":{"ha":408,"x_min":-185,"x_max":425,"o":"m 425 783 l 292 783 l 292 0 l 117 0 l 117 783 l -17 783 l -17 833 l 425 833 l 425 783 m -185 1269 q -131 1308 -165 1294 q -33 1322 -96 1322 l 247 874 q 169 833 218 833 l -185 1269 z "},"ौ":{"ha":408,"x_min":-329,"x_max":425,"o":"m 425 783 l 292 783 l 292 0 l 117 0 l 117 783 l -17 783 l -17 833 l 425 833 l 425 783 m 242 867 q 214 844 236 854 q 172 833 192 833 l -325 1024 q -262 1156 -329 1108 l 144 904 l -185 1269 q -131 1308 -165 1294 q -33 1322 -96 1322 l 242 867 z "},"ऻ":{"ha":408,"x_min":-17,"x_max":425,"o":"m 425 783 l 292 783 l 292 0 l 117 0 l 117 783 l -17 783 l -17 833 l 425 833 l 425 783 m 292 833 l 117 833 l 117 1036 l 292 1036 l 292 833 z "},"क":{"ha":1333,"x_min":-17,"x_max":1350,"o":"m 801 783 l 801 607 q 994 700 871 700 q 1144 664 1079 700 q 1245 561 1210 628 q 1281 407 1281 494 q 1247 238 1281 311 q 1153 124 1214 164 q 1017 83 1093 83 q 930 108 964 83 q 894 169 896 132 q 1051 232 996 169 q 1106 390 1106 294 q 1061 564 1106 497 q 942 631 1017 631 q 801 533 858 631 l 801 0 l 626 0 l 626 261 q 518 131 592 179 q 353 83 444 83 q 196 120 264 83 q 90 223 128 157 q 53 376 53 289 q 91 544 53 471 q 194 659 129 618 q 340 700 260 700 q 505 661 440 700 q 569 551 569 622 q 527 473 569 500 q 425 446 485 446 q 403 592 425 536 q 340 647 382 647 q 260 579 292 647 q 228 410 228 511 q 276 226 228 300 q 406 153 325 153 q 538 215 476 153 q 626 375 599 276 l 626 783 l -17 783 l -17 833 l 1350 833 l 1350 783 l 801 783 z "},"ख":{"ha":1525,"x_min":-17,"x_max":1542,"o":"m 1542 783 l 1406 783 l 1406 0 l 1231 0 l 1231 261 q 1123 131 1196 179 q 958 83 1050 83 q 788 128 857 83 q 651 21 724 56 q 482 -14 579 -14 q 343 22 403 -14 q 243 107 283 57 q 153 236 203 157 q 67 355 100 317 q -10 401 33 393 q 40 452 10 435 q 106 469 69 469 q 147 464 131 469 q 188 446 163 458 q 224 428 207 435 q 267 422 242 422 q 356 458 321 422 q 390 564 390 494 q 362 692 390 635 q 285 783 333 749 l -17 783 l -17 833 l 1542 833 l 1542 783 m 1231 783 l 438 783 q 531 689 497 749 q 565 563 565 629 q 507 417 565 475 q 347 358 449 358 q 279 369 313 358 q 401 181 350 246 q 490 95 453 117 q 565 74 528 74 q 650 97 604 74 q 738 167 696 119 q 658 376 658 246 q 696 544 658 471 q 799 659 733 618 q 946 700 865 700 q 1110 661 1044 700 q 1175 551 1175 622 q 1133 473 1175 500 q 1031 446 1090 446 q 1008 591 1031 535 q 946 647 986 647 q 865 579 897 647 q 833 410 833 511 q 882 226 833 300 q 1011 153 931 153 q 1142 215 1082 153 q 1231 375 1203 276 l 1231 783 z "},"ग":{"ha":1049,"x_min":-17,"x_max":1065,"o":"m 1065 833 l 1065 783 l 932 783 l 932 0 l 757 0 l 757 783 l 450 783 q 592 625 543 715 q 640 442 640 535 q 603 288 640 358 q 492 175 565 217 q 318 133 419 133 q 174 164 236 133 q 79 247 113 194 q 46 367 46 300 q 84 497 46 438 q 188 590 122 556 q 332 625 253 625 q 359 610 350 625 q 368 572 368 594 q 295 545 329 572 q 241 472 261 518 q 221 375 221 426 q 254 238 221 288 q 336 188 288 188 q 428 253 392 188 q 465 442 465 319 q 410 656 465 565 q 265 783 356 746 l -17 783 l -17 833 l 1065 833 z "},"घ":{"ha":886,"x_min":-17,"x_max":903,"o":"m 903 783 l 764 783 l 764 0 l 589 0 l 589 208 q 485 111 553 147 q 338 75 418 75 q 199 108 263 75 q 97 196 135 140 q 60 317 60 251 q 118 463 60 403 q 267 542 176 522 q 103 678 103 567 q 124 738 103 708 q 188 783 146 768 l -17 783 l -17 833 l 903 833 l 903 783 m 401 783 q 310 753 343 783 q 278 676 278 722 q 310 599 278 629 q 401 568 342 568 l 483 568 l 483 515 l 408 515 q 322 489 361 515 q 258 417 282 463 q 235 317 235 371 q 272 181 235 233 q 382 128 308 128 q 514 185 454 128 q 589 328 574 242 l 589 783 l 401 783 z "},"ङ":{"ha":910,"x_min":-17,"x_max":926,"o":"m 389 36 q 535 78 479 36 q 592 196 592 121 q 560 273 592 243 q 483 320 529 303 q 357 358 436 338 q 219 401 272 381 q 131 458 167 421 q 94 553 94 494 q 155 674 94 631 q 317 717 215 717 q 414 709 369 717 q 508 679 458 701 l 508 783 l -17 783 l -17 833 l 926 833 l 926 783 l 683 783 l 683 628 l 542 583 q 456 642 506 621 q 357 664 407 664 q 297 647 324 664 q 271 594 271 631 q 317 528 271 551 q 465 476 364 504 q 622 426 563 450 q 725 355 682 401 q 768 236 768 308 q 711 94 768 151 q 565 10 654 38 q 375 -17 475 -17 q 200 10 276 -17 q 81 81 124 36 q 39 183 39 126 q 90 268 39 233 q 231 303 140 303 q 214 217 214 261 q 260 88 214 139 q 389 36 306 36 m 788 588 q 848 562 822 588 q 874 501 874 536 q 848 442 874 467 q 788 417 822 417 q 727 442 753 417 q 701 501 701 467 q 727 563 701 538 q 788 588 753 588 z "},"च":{"ha":949,"x_min":-17,"x_max":965,"o":"m 965 783 l 828 783 l 828 0 l 653 0 l 653 233 q 549 127 618 171 q 399 83 481 83 q 199 149 274 83 q 124 325 124 215 q 154 444 124 388 q 238 539 185 500 q 356 590 290 578 l 15 590 l 15 643 l 585 643 l 585 590 q 442 555 507 590 q 338 460 376 519 q 299 328 299 400 q 333 188 299 240 q 438 136 368 136 q 576 202 515 136 q 653 369 636 268 l 653 783 l -17 783 l -17 833 l 965 833 l 965 783 z "},"छ":{"ha":1025,"x_min":-17,"x_max":1042,"o":"m 813 783 l 813 671 q 946 575 900 646 q 992 397 992 504 q 930 189 992 283 q 759 39 868 94 q 514 -17 650 -17 q 283 25 386 -17 q 120 138 179 67 q 61 292 61 208 q 119 433 61 369 q 261 517 176 497 q 138 583 179 540 q 97 675 97 626 q 113 735 97 706 q 156 783 128 764 l -17 783 l -17 833 l 1042 833 l 1042 783 l 813 783 m 638 783 l 328 783 q 288 742 303 772 q 272 675 272 713 q 312 589 272 624 q 431 543 351 554 l 431 490 q 300 427 346 481 q 254 292 254 374 q 289 164 254 222 q 383 71 324 106 q 514 36 443 36 q 769 182 696 36 q 619 238 686 194 q 515 343 553 281 q 478 475 478 406 q 520 591 478 535 q 638 669 563 647 l 638 783 m 790 235 q 817 439 817 321 q 793 574 817 518 q 731 629 769 629 q 675 581 697 629 q 653 475 653 533 q 689 333 653 399 q 790 235 725 267 z "},"ज":{"ha":1139,"x_min":-17,"x_max":1156,"o":"m 847 583 l 501 583 q 656 468 606 539 q 707 321 707 397 q 663 183 707 243 q 542 91 618 124 q 375 58 467 58 q 212 85 283 58 q 101 156 140 111 q 61 258 61 201 q 112 356 61 315 q 250 397 163 397 q 236 292 236 346 q 274 166 236 213 q 375 119 313 119 q 488 163 444 119 q 532 286 532 206 q 501 414 532 350 q 414 527 469 478 q 286 600 358 576 l 321 636 l 847 636 l 847 783 l -17 783 l -17 833 l 1156 833 l 1156 783 l 1022 783 l 1022 0 l 847 0 l 847 583 z "},"झ":{"ha":1213,"x_min":-17,"x_max":1229,"o":"m 1229 783 l 1096 783 l 1096 0 l 921 0 l 921 319 q 828 301 876 301 q 768 308 796 301 q 772 267 772 288 q 709 130 772 185 q 542 47 646 75 q 615 -15 574 7 q 714 -37 656 -37 q 667 -85 699 -68 q 590 -101 635 -101 q 483 -67 528 -101 q 404 28 439 -32 q 361 26 389 26 q 211 49 279 26 q 103 113 143 72 q 64 206 64 154 q 113 299 64 265 q 243 332 163 332 q 353 306 310 332 q 424 243 397 281 q 485 143 451 206 l 506 106 q 572 160 547 126 q 597 236 597 194 q 567 306 597 278 q 494 351 538 333 q 376 390 451 368 q 247 433 296 414 q 163 488 197 453 q 129 575 129 522 q 190 686 129 649 q 344 724 250 724 q 436 716 394 724 q 526 688 478 708 l 526 783 l -17 783 l -17 833 l 1229 833 l 1229 783 m 828 371 q 921 393 876 371 l 921 783 l 701 783 l 701 639 l 558 597 q 476 652 522 632 q 382 672 431 672 q 327 658 350 672 q 304 613 304 643 q 344 558 304 578 q 475 510 385 538 q 613 463 557 486 q 710 406 669 440 q 828 371 767 371 m 379 76 q 349 144 372 89 q 296 248 318 215 q 243 281 274 281 q 208 263 219 281 q 196 219 196 244 q 249 115 196 153 q 374 76 303 76 l 379 76 z "},"ञ":{"ha":1083,"x_min":-17,"x_max":1100,"o":"m 1100 833 l 1100 783 l 967 783 l 967 0 l 792 0 l 792 308 l 783 308 q 679 335 724 308 q 622 192 668 253 q 508 99 576 131 q 361 67 440 67 q 193 100 267 67 q 79 188 119 133 q 39 301 39 242 q 78 407 39 365 q 186 449 117 449 q 297 417 253 449 q 235 352 253 389 q 217 269 217 315 q 253 163 217 207 q 361 119 289 119 q 469 151 425 119 q 536 231 514 182 q 558 333 558 279 q 472 517 558 449 q 211 586 385 586 q 245 659 211 626 q 333 692 279 692 q 503 657 426 692 q 628 558 581 622 q 682 408 676 493 q 783 378 729 378 l 792 378 l 792 783 l -17 783 l -17 833 l 1100 833 z "},"ट":{"ha":851,"x_min":-17,"x_max":868,"o":"m 592 236 q 510 383 592 332 q 622 415 554 415 q 731 374 692 415 q 771 268 771 332 q 726 145 771 203 q 603 52 682 88 q 425 17 525 17 q 148 101 244 17 q 51 333 51 186 q 105 505 51 431 q 245 619 158 579 q 432 658 332 658 q 518 650 476 658 l 518 783 l -17 783 l -17 833 l 868 833 l 868 783 l 693 783 l 693 622 l 560 581 q 461 597 508 597 q 290 526 354 597 q 226 333 226 456 q 282 136 226 203 q 425 69 338 69 q 548 119 504 69 q 592 236 592 168 z "},"ठ":{"ha":885,"x_min":-17,"x_max":901,"o":"m 442 17 q 233 56 321 17 q 99 166 146 94 q 51 333 51 238 q 105 505 51 431 q 245 619 158 579 q 432 658 332 658 q 518 650 476 658 l 518 783 l -17 783 l -17 833 l 901 833 l 901 783 l 693 783 l 693 622 l 560 581 q 461 597 508 597 q 290 526 354 597 q 226 333 226 456 q 287 136 226 203 q 442 69 347 69 q 602 131 538 69 q 667 310 667 192 q 608 449 667 392 q 461 511 549 507 q 606 564 521 564 q 725 535 671 564 q 810 456 779 507 q 842 342 842 406 q 786 168 842 242 q 639 56 731 94 q 442 17 547 17 z "},"ड":{"ha":804,"x_min":-17,"x_max":821,"o":"m 389 36 q 535 78 479 36 q 592 196 592 121 q 560 273 592 243 q 483 320 529 303 q 357 358 436 338 q 219 401 272 381 q 131 458 167 421 q 94 553 94 494 q 155 674 94 631 q 317 717 215 717 q 414 709 369 717 q 508 679 458 701 l 508 783 l -17 783 l -17 833 l 821 833 l 821 783 l 683 783 l 683 628 l 542 583 q 456 642 506 621 q 357 664 407 664 q 297 647 324 664 q 271 594 271 631 q 317 528 271 551 q 465 476 364 504 q 622 426 563 450 q 725 355 682 401 q 768 236 768 308 q 711 94 768 151 q 565 10 654 38 q 375 -17 475 -17 q 200 10 276 -17 q 81 81 124 36 q 39 183 39 126 q 90 268 39 233 q 231 303 140 303 q 214 217 214 261 q 260 88 214 139 q 389 36 306 36 z "},"ढ":{"ha":851,"x_min":-17,"x_max":868,"o":"m 576 467 q 749 415 679 467 q 819 275 819 363 q 781 153 819 213 q 659 56 743 94 q 444 17 575 17 q 153 101 256 17 q 51 333 51 186 q 105 504 51 431 q 246 618 158 578 q 432 658 333 658 q 518 650 476 658 l 518 783 l -17 783 l -17 833 l 868 833 l 868 783 l 693 783 l 693 622 l 560 581 q 461 597 508 597 q 290 526 354 597 q 226 333 226 454 q 288 137 226 204 q 444 69 350 69 q 598 125 535 69 q 661 286 661 181 q 635 378 661 340 q 574 415 610 415 q 519 385 540 415 q 497 317 497 356 q 515 237 497 268 q 578 194 532 206 q 555 164 578 178 q 503 150 532 150 q 388 193 426 150 q 349 300 349 236 q 412 419 349 372 q 576 467 475 467 z "},"ण":{"ha":1126,"x_min":-17,"x_max":1143,"o":"m 1143 783 l 1010 783 l 1010 0 l 835 0 l 835 783 l 582 783 q 696 634 653 717 q 739 467 739 551 q 692 319 739 383 q 567 219 646 254 q 390 183 488 183 q 220 219 297 183 q 98 319 143 254 q 53 467 53 383 q 90 637 53 554 q 193 783 126 719 l -17 783 l -17 833 l 1143 833 l 1143 783 m 328 783 q 254 662 281 733 q 228 508 228 590 q 249 365 228 426 q 308 269 271 303 q 392 236 346 236 q 479 271 440 236 q 541 369 518 306 q 564 517 564 433 q 447 783 564 661 l 328 783 z "},"त":{"ha":864,"x_min":-17,"x_max":881,"o":"m 881 783 l 747 783 l 747 0 l 572 0 l 572 496 q 497 563 540 539 q 401 588 454 588 q 278 529 324 588 q 233 363 233 471 q 259 202 233 271 q 320 97 285 133 q 385 61 356 61 q 351 8 375 25 q 283 -8 326 -8 q 164 39 219 -8 q 74 168 108 86 q 40 350 40 250 q 77 507 40 438 q 189 617 114 576 q 371 658 264 658 q 485 643 431 658 q 572 600 539 628 l 572 783 l -17 783 l -17 833 l 881 833 l 881 783 z "},"थ":{"ha":938,"x_min":61,"x_max":958,"o":"m 646 257 q 529 153 599 189 q 376 117 460 117 q 223 153 292 117 q 115 254 154 190 q 75 394 75 318 q 102 451 75 435 q 188 481 129 467 q 288 513 249 494 q 356 578 328 532 q 385 710 385 625 q 361 790 385 758 q 297 822 338 822 q 235 789 260 822 q 210 710 210 756 q 233 620 210 658 q 306 571 256 582 q 298 538 306 551 q 274 525 290 525 q 160 549 208 525 q 86 610 111 572 q 61 692 61 649 q 93 784 61 742 q 180 851 125 826 q 297 875 235 875 q 415 851 361 875 q 501 785 469 828 q 533 692 533 743 q 469 538 533 599 q 296 447 404 478 q 259 420 268 439 q 250 376 250 401 q 290 227 250 285 q 403 169 331 169 q 511 196 460 169 q 598 267 563 222 q 646 361 633 311 l 646 783 l 572 783 l 572 833 l 958 833 l 958 783 l 821 783 l 821 0 l 646 0 l 646 257 z "},"द":{"ha":851,"x_min":-17,"x_max":868,"o":"m 461 597 q 290 526 354 597 q 226 333 226 454 q 273 156 226 222 q 396 74 319 90 q 356 251 356 161 q 423 411 356 356 q 586 467 490 467 q 752 415 685 467 q 819 275 819 363 q 763 129 819 197 q 590 33 707 61 q 682 -43 631 -17 q 781 -69 733 -69 q 755 -127 781 -104 q 675 -150 729 -150 q 539 -104 604 -150 q 426 17 474 -58 q 149 106 246 21 q 51 333 51 190 q 105 504 51 431 q 246 618 158 578 q 432 658 333 658 q 518 650 476 658 l 518 783 l -17 783 l -17 833 l 868 833 l 868 783 l 693 783 l 693 622 l 560 581 q 461 597 508 597 m 590 414 q 535 378 558 414 q 513 272 513 343 q 551 93 513 174 q 632 167 603 118 q 661 286 661 215 q 640 376 661 339 q 590 414 618 414 z "},"ध":{"ha":950,"x_min":88,"x_max":967,"o":"m 406 733 q 386 802 406 772 q 336 832 367 832 q 280 794 300 832 q 260 700 260 757 q 335 552 260 603 q 528 501 411 501 l 528 449 q 396 424 457 449 q 299 358 335 399 q 263 276 263 318 q 308 175 263 213 q 421 138 353 138 q 557 172 494 138 q 658 269 619 207 l 658 783 l 588 783 l 588 833 l 967 833 l 967 783 l 833 783 l 833 0 l 658 0 l 658 192 q 524 92 601 126 q 361 58 447 58 q 166 113 244 58 q 88 260 88 168 q 158 397 88 338 q 328 471 228 457 q 165 553 226 493 q 103 700 103 614 q 135 792 103 750 q 220 858 167 833 q 336 883 274 883 q 493 840 432 883 q 554 733 554 797 q 503 615 554 664 q 356 567 453 567 q 333 580 340 567 q 325 613 325 593 q 389 654 372 624 q 406 733 406 685 z "},"न":{"ha":1000,"x_min":-17,"x_max":1017,"o":"m 1017 783 l 883 783 l 883 0 l 708 0 l 708 529 q 583 587 646 567 q 464 607 519 607 q 277 531 349 607 q 206 311 206 454 q 238 179 206 240 q 318 118 269 118 q 396 165 368 118 q 424 269 424 211 q 385 398 424 349 q 286 447 347 447 q 338 493 307 476 q 406 510 368 510 q 543 455 488 510 q 599 319 599 400 q 563 196 599 254 q 463 101 528 138 q 318 65 399 65 q 169 101 235 65 q 67 198 103 138 q 31 328 31 258 q 86 507 31 432 q 235 621 142 582 q 438 660 328 660 q 708 593 592 660 l 708 783 l -17 783 l -17 833 l 1017 833 l 1017 783 z "},"ऩ":{"ha":1000,"x_min":-17,"x_max":1017,"o":"m 1017 783 l 883 783 l 883 0 l 708 0 l 708 529 q 583 587 646 567 q 464 607 519 607 q 277 531 349 607 q 206 311 206 454 q 238 179 206 240 q 318 118 269 118 q 396 165 368 118 q 424 269 424 211 q 385 398 424 349 q 286 447 347 447 q 338 493 307 476 q 406 510 368 510 q 543 455 488 510 q 599 319 599 400 q 563 196 599 254 q 463 101 528 138 q 318 65 399 65 q 169 101 235 65 q 67 198 103 138 q 31 328 31 258 q 86 507 31 432 q 235 621 142 582 q 438 660 328 660 q 708 593 592 660 l 708 783 l -17 783 l -17 833 l 1017 833 l 1017 783 m 311 11 q 385 -19 354 11 q 417 -94 417 -50 q 385 -169 417 -139 q 311 -200 354 -200 q 236 -169 267 -200 q 206 -94 206 -139 q 236 -19 206 -50 q 311 11 267 11 z "},"प":{"ha":883,"x_min":-17,"x_max":900,"o":"m 900 783 l 767 783 l 767 0 l 592 0 l 592 299 q 498 189 567 236 q 343 142 429 142 q 158 209 226 142 q 89 393 89 276 l 89 783 l -17 783 l -17 833 l 900 833 l 900 783 m 264 783 l 264 393 q 297 265 264 310 q 389 221 331 221 q 515 278 460 221 q 592 426 569 336 l 592 783 l 264 783 z "},"फ":{"ha":1299,"x_min":-17,"x_max":1315,"o":"m 767 783 l 767 614 q 958 700 836 700 q 1110 664 1044 700 q 1210 561 1175 628 q 1246 407 1246 494 q 1213 238 1246 311 q 1119 124 1179 164 q 982 83 1058 83 q 895 108 929 83 q 860 169 861 132 q 1016 232 961 169 q 1071 390 1071 294 q 1026 564 1071 497 q 907 631 982 631 q 767 535 822 631 l 767 0 l 592 0 l 592 299 q 498 189 567 236 q 343 142 429 142 q 158 209 226 142 q 89 393 89 276 l 89 783 l -17 783 l -17 833 l 1315 833 l 1315 783 l 767 783 m 592 783 l 264 783 l 264 393 q 297 265 264 310 q 389 221 331 221 q 515 277 460 221 q 592 424 569 333 l 592 783 z "},"ब":{"ha":919,"x_min":-17,"x_max":936,"o":"m 936 833 l 936 783 l 800 783 l 800 0 l 625 0 l 625 261 q 518 131 592 179 q 353 83 444 83 q 196 120 264 83 q 90 223 128 157 q 53 376 53 289 q 91 544 53 471 q 194 659 129 618 q 340 700 260 700 q 504 661 439 700 q 569 551 569 622 q 527 473 569 500 q 425 446 485 446 q 403 591 425 535 q 340 647 381 647 q 268 596 300 647 l 524 203 q 585 276 558 232 q 625 375 611 321 l 625 783 l -17 783 l -17 833 l 936 833 m 228 410 q 276 226 228 300 q 406 153 325 153 q 458 163 429 153 l 236 506 q 228 410 228 463 z "},"भ":{"ha":1017,"x_min":50,"x_max":1033,"o":"m 1033 833 l 1033 783 l 900 783 l 900 0 l 725 0 l 725 457 l 579 457 q 542 280 576 361 q 442 149 508 199 q 282 100 376 100 q 165 126 218 100 q 81 195 111 151 q 50 293 50 239 q 136 453 50 397 q 379 510 222 510 l 404 510 l 404 692 q 380 801 404 764 q 315 839 356 839 q 255 812 276 839 q 233 742 233 785 q 258 676 233 703 q 315 647 282 649 q 193 596 260 596 q 110 631 143 596 q 76 717 76 665 q 144 846 76 800 q 315 892 213 892 q 448 863 388 892 q 544 785 508 835 q 579 675 579 735 l 579 510 l 725 510 l 725 783 l 626 783 l 626 833 l 1033 833 m 404 457 l 379 457 q 260 417 296 457 q 225 303 225 378 q 244 199 225 244 q 306 153 263 153 q 379 212 354 153 q 404 368 404 271 l 404 457 z "},"म":{"ha":1006,"x_min":-17,"x_max":1022,"o":"m 1022 833 l 1022 783 l 889 783 l 889 0 l 714 0 l 714 457 l 567 457 q 530 280 564 361 q 429 149 496 199 q 268 100 363 100 q 151 125 204 100 q 69 194 99 150 q 39 293 39 239 q 125 453 39 397 q 367 510 211 510 l 386 510 q 330 672 368 600 q 242 783 292 743 l -17 783 l -17 833 l 1022 833 m 714 783 l 390 783 q 511 667 467 740 q 564 510 556 594 l 714 510 l 714 783 m 400 368 q 394 457 400 418 l 367 457 q 249 417 283 457 q 214 303 214 378 q 233 199 214 244 q 294 153 251 153 q 374 213 347 153 q 400 368 400 272 z "},"य":{"ha":911,"x_min":-17,"x_max":928,"o":"m 928 783 l 790 783 l 790 0 l 615 0 l 615 250 q 509 151 572 186 q 372 117 446 117 q 206 153 281 117 q 88 254 131 190 q 44 394 44 318 q 69 467 44 439 q 143 494 93 494 q 283 530 232 494 q 335 635 335 565 q 315 719 335 678 q 251 783 296 760 l -17 783 l -17 833 l 928 833 l 928 783 m 403 783 q 482 722 454 764 q 510 635 510 679 q 476 538 510 582 q 383 467 442 493 q 258 442 325 442 q 227 423 235 442 q 219 376 219 404 q 267 227 219 285 q 399 169 315 169 q 493 196 447 169 q 572 265 539 222 q 615 354 604 307 l 615 783 l 403 783 z "},"र":{"ha":606,"x_min":-17,"x_max":622,"o":"m 622 783 l 438 783 q 531 689 497 749 q 565 563 565 629 q 507 417 565 475 q 347 358 449 358 q 279 369 313 358 q 404 187 353 247 q 491 109 456 126 q 565 92 526 92 q 413 -14 518 -14 q 292 44 347 -14 q 165 214 238 103 q 69 347 107 301 q -10 401 31 392 q 40 452 10 435 q 106 469 69 469 q 147 464 131 469 q 188 446 163 458 q 224 428 207 435 q 267 422 242 422 q 356 458 321 422 q 390 564 390 494 q 362 692 390 635 q 285 783 333 749 l -17 783 l -17 833 l 622 833 l 622 783 z "},"ऱ":{"ha":606,"x_min":-17,"x_max":622,"o":"m 622 783 l 438 783 q 531 689 497 749 q 565 563 565 629 q 507 417 565 475 q 347 358 449 358 q 279 369 313 358 q 404 187 353 247 q 491 109 456 126 q 565 92 526 92 q 413 -14 518 -14 q 292 44 347 -14 q 165 214 238 103 q 69 347 107 301 q -10 401 31 392 q 40 452 10 435 q 106 469 69 469 q 147 464 131 469 q 188 446 163 458 q 224 428 207 435 q 267 422 242 422 q 356 458 321 422 q 390 564 390 494 q 362 692 390 635 q 285 783 333 749 l -17 783 l -17 833 l 622 833 l 622 783 m 111 106 q 185 75 154 106 q 217 0 217 44 q 185 -75 217 -44 q 111 -106 154 -106 q 36 -75 67 -106 q 6 0 6 -44 q 36 75 6 44 q 111 106 67 106 z "},"ल":{"ha":1072,"x_min":-17,"x_max":1089,"o":"m 1089 833 l 1089 783 l 956 783 l 956 0 l 781 0 l 781 599 q 742 606 760 606 q 669 575 703 606 q 614 493 635 544 q 593 381 593 442 l 501 381 q 481 493 501 442 q 426 575 460 544 q 353 606 392 606 q 263 537 294 606 q 231 386 231 468 q 295 172 231 247 q 474 96 360 96 q 435 24 472 56 q 339 -8 399 -8 q 197 35 261 -8 q 94 156 132 78 q 56 335 56 233 q 93 498 56 424 q 194 615 131 572 q 336 658 258 658 q 547 506 489 658 q 758 658 604 658 q 781 657 774 658 l 781 783 l -17 783 l -17 833 l 1089 833 z "},"ळ":{"ha":1147,"x_min":-17,"x_max":1164,"o":"m 940 783 l 940 640 q 1046 525 1006 600 q 1086 350 1086 450 q 1044 175 1086 256 q 929 47 1001 94 q 772 0 857 0 q 647 32 704 0 q 560 118 589 64 q 458 30 518 60 q 335 0 399 0 q 204 39 267 0 q 103 152 142 78 q 65 325 65 226 q 107 500 65 419 q 221 628 149 581 q 378 675 293 675 q 503 643 446 675 q 590 557 560 611 q 668 633 622 604 q 765 671 714 661 l 765 783 l -17 783 l -17 833 l 1164 833 l 1164 783 l 940 783 m 406 81 q 472 103 438 81 q 540 168 507 126 l 539 176 l 539 178 q 471 462 496 372 q 422 587 446 551 q 360 622 397 622 q 300 594 328 622 q 256 517 272 565 q 240 411 240 468 q 285 174 240 268 q 406 81 329 81 m 792 53 q 851 81 824 53 q 895 158 879 110 q 911 264 911 207 q 891 431 911 356 q 833 551 871 507 q 744 594 794 594 q 610 508 682 594 l 613 499 l 611 494 q 679 213 654 301 q 729 88 704 124 q 792 53 754 53 z "},"ऴ":{"ha":1147,"x_min":-17,"x_max":1164,"o":"m 940 783 l 940 640 q 1046 525 1006 600 q 1086 350 1086 450 q 1044 175 1086 256 q 929 47 1001 94 q 772 0 857 0 q 647 32 704 0 q 560 118 589 64 q 458 30 518 60 q 335 0 399 0 q 204 39 267 0 q 103 152 142 78 q 65 325 65 226 q 107 500 65 419 q 221 628 149 581 q 378 675 293 675 q 503 643 446 675 q 590 557 560 611 q 668 633 622 604 q 765 671 714 661 l 765 783 l -17 783 l -17 833 l 1164 833 l 1164 783 l 940 783 m 406 81 q 472 103 438 81 q 540 168 507 126 l 539 176 l 539 178 q 471 462 496 372 q 422 587 446 551 q 360 622 397 622 q 300 594 328 622 q 256 517 272 565 q 240 411 240 468 q 285 174 240 268 q 406 81 329 81 m 792 53 q 851 81 824 53 q 895 158 879 110 q 911 264 911 207 q 891 431 911 356 q 833 551 871 507 q 744 594 794 594 q 610 508 682 594 l 613 499 l 611 494 q 679 213 654 301 q 729 88 704 124 q 792 53 754 53 m 582 -28 q 656 -58 625 -28 q 688 -133 688 -89 q 656 -208 688 -178 q 582 -239 625 -239 q 507 -208 538 -239 q 476 -133 476 -178 q 507 -58 476 -89 q 582 -28 538 -28 z "},"व":{"ha":919,"x_min":-17,"x_max":936,"o":"m 625 261 q 518 131 592 179 q 353 83 444 83 q 196 120 264 83 q 90 223 128 157 q 53 376 53 289 q 91 544 53 471 q 194 659 129 618 q 340 700 260 700 q 504 661 439 700 q 569 551 569 622 q 527 473 569 500 q 425 446 485 446 q 403 591 425 535 q 340 647 381 647 q 260 579 292 647 q 228 410 228 511 q 276 226 228 300 q 406 153 325 153 q 537 215 476 153 q 625 375 597 276 l 625 783 l -17 783 l -17 833 l 936 833 l 936 783 l 800 783 l 800 0 l 625 0 l 625 261 z "},"श":{"ha":1121,"x_min":29,"x_max":1138,"o":"m 399 883 q 555 849 485 883 q 666 753 625 815 q 707 614 707 692 q 647 447 707 524 q 483 326 586 371 q 256 282 379 282 q 468 136 381 181 q 647 90 556 92 q 497 -14 599 -14 q 376 26 444 -14 q 208 138 307 65 q 94 215 135 190 q 29 239 53 239 q 169 335 29 335 q 344 369 261 335 q 480 469 428 404 q 532 617 532 533 q 513 726 532 681 q 463 796 493 772 q 399 819 432 819 q 315 778 350 819 q 279 667 279 736 q 326 538 279 590 q 443 485 374 485 q 404 449 436 465 q 331 432 372 432 q 213 461 264 432 q 133 540 161 490 q 104 650 104 590 q 143 774 104 721 q 249 855 182 826 q 399 883 317 883 m 1138 783 l 1004 783 l 1004 0 l 829 0 l 829 783 l 713 783 l 713 833 l 1138 833 l 1138 783 z "},"ष":{"ha":883,"x_min":-17,"x_max":900,"o":"m 900 833 l 900 783 l 767 783 l 767 0 l 592 0 l 592 299 q 498 189 567 236 q 343 142 429 142 q 158 209 226 142 q 89 393 89 276 l 89 783 l -17 783 l -17 833 l 900 833 m 264 783 l 264 778 l 592 438 l 592 783 l 264 783 m 389 221 q 489 256 443 221 q 565 353 535 292 l 264 667 l 264 393 q 297 265 264 310 q 389 221 331 221 z "},"स":{"ha":1014,"x_min":-17,"x_max":1031,"o":"m 1031 783 l 897 783 l 897 0 l 722 0 l 722 344 q 614 333 675 333 q 428 369 513 333 q 347 358 388 358 q 279 369 313 358 q 404 187 353 247 q 491 109 456 126 q 565 92 526 92 q 413 -14 518 -14 q 292 44 347 -14 q 165 214 238 103 q 69 347 107 301 q -10 401 31 392 q 40 452 10 435 q 106 469 69 469 q 147 464 131 469 q 188 446 163 458 q 224 428 207 435 q 267 422 242 422 q 356 458 321 422 q 390 564 390 494 q 362 692 390 635 q 285 783 333 749 l -17 783 l -17 833 l 1031 833 l 1031 783 m 614 403 q 722 418 669 403 l 722 783 l 438 783 q 531 689 497 749 q 565 563 565 629 q 507 417 565 475 q 614 403 560 403 z "},"ह":{"ha":828,"x_min":-17,"x_max":844,"o":"m 414 -83 q 232 -47 314 -83 q 104 53 150 -10 q 58 192 58 117 q 101 324 58 260 q 217 431 143 389 q 128 490 158 454 q 97 568 97 526 q 124 641 97 607 q 205 696 151 675 q 333 717 258 717 q 431 709 386 717 q 525 679 475 701 l 525 783 l -17 783 l -17 833 l 844 833 l 844 783 l 700 783 l 700 628 l 558 583 q 473 642 521 621 q 374 664 425 664 q 299 639 325 664 q 272 576 272 614 q 286 523 272 550 q 325 478 300 496 q 493 503 392 503 q 641 473 574 503 q 748 393 708 443 q 788 283 788 343 q 763 200 788 239 q 697 139 739 161 q 608 117 656 117 q 506 150 533 117 q 583 201 553 164 q 613 283 613 239 q 563 401 613 353 q 442 450 513 450 q 337 421 385 450 q 261 340 289 392 q 233 225 233 289 q 525 -31 233 -31 l 736 -31 l 686 -83 l 414 -83 z "},"क़":{"ha":1333,"x_min":-17,"x_max":1350,"o":"m 801 783 l 801 607 q 994 700 871 700 q 1144 664 1079 700 q 1245 561 1210 628 q 1281 407 1281 494 q 1247 238 1281 311 q 1153 124 1214 164 q 1017 83 1093 83 q 930 108 964 83 q 894 169 896 132 q 1051 232 996 169 q 1106 390 1106 294 q 1061 564 1106 497 q 942 631 1017 631 q 801 533 858 631 l 801 0 l 626 0 l 626 261 q 518 131 592 179 q 353 83 444 83 q 196 120 264 83 q 90 223 128 157 q 53 376 53 289 q 91 544 53 471 q 194 659 129 618 q 340 700 260 700 q 505 661 440 700 q 569 551 569 622 q 527 473 569 500 q 425 446 485 446 q 403 592 425 536 q 340 647 382 647 q 260 579 292 647 q 228 410 228 511 q 276 226 228 300 q 406 153 325 153 q 538 215 476 153 q 626 375 599 276 l 626 783 l -17 783 l -17 833 l 1350 833 l 1350 783 l 801 783 m 335 11 q 409 -19 378 11 q 440 -94 440 -50 q 409 -169 440 -139 q 335 -200 378 -200 q 260 -169 290 -200 q 229 -94 229 -139 q 260 -19 229 -50 q 335 11 290 11 z "},"ख़":{"ha":1525,"x_min":-17,"x_max":1542,"o":"m 1542 783 l 1406 783 l 1406 0 l 1231 0 l 1231 261 q 1123 131 1196 179 q 958 83 1050 83 q 788 128 857 83 q 651 21 724 56 q 482 -14 579 -14 q 343 22 403 -14 q 243 107 283 57 q 153 236 203 157 q 67 355 100 317 q -10 401 33 393 q 40 452 10 435 q 106 469 69 469 q 147 464 131 469 q 188 446 163 458 q 224 428 207 435 q 267 422 242 422 q 356 458 321 422 q 390 564 390 494 q 362 692 390 635 q 285 783 333 749 l -17 783 l -17 833 l 1542 833 l 1542 783 m 1231 783 l 438 783 q 531 689 497 749 q 565 563 565 629 q 507 417 565 475 q 347 358 449 358 q 279 369 313 358 q 401 181 350 246 q 490 95 453 117 q 565 74 528 74 q 650 97 604 74 q 738 167 696 119 q 658 376 658 246 q 696 544 658 471 q 799 659 733 618 q 946 700 865 700 q 1110 661 1044 700 q 1175 551 1175 622 q 1133 473 1175 500 q 1031 446 1090 446 q 1008 591 1031 535 q 946 647 986 647 q 865 579 897 647 q 833 410 833 511 q 882 226 833 300 q 1011 153 931 153 q 1142 215 1082 153 q 1231 375 1203 276 l 1231 783 m 193 11 q 267 -19 236 11 q 299 -94 299 -50 q 267 -169 299 -139 q 193 -200 236 -200 q 118 -169 149 -200 q 88 -94 88 -139 q 118 -19 88 -50 q 193 11 149 11 z "},"ग़":{"ha":1049,"x_min":-17,"x_max":1065,"o":"m 340 11 q 415 -19 383 11 q 446 -94 446 -50 q 415 -169 446 -139 q 340 -200 383 -200 q 265 -169 296 -200 q 235 -94 235 -139 q 265 -19 235 -50 q 340 11 296 11 m 1065 833 l 1065 783 l 932 783 l 932 0 l 757 0 l 757 783 l 450 783 q 592 625 543 715 q 640 442 640 535 q 603 288 640 358 q 492 175 565 217 q 318 133 419 133 q 174 164 236 133 q 79 247 113 194 q 46 367 46 300 q 84 497 46 438 q 188 590 122 556 q 332 625 253 625 q 359 610 350 625 q 368 572 368 594 q 295 545 329 572 q 241 472 261 518 q 221 375 221 426 q 254 238 221 288 q 336 188 288 188 q 428 253 392 188 q 465 442 465 319 q 410 656 465 565 q 265 783 356 746 l -17 783 l -17 833 l 1065 833 z "},"ज़":{"ha":1139,"x_min":-17,"x_max":1156,"o":"m 847 583 l 501 583 q 656 468 606 539 q 707 321 707 397 q 663 183 707 243 q 542 91 618 124 q 375 58 467 58 q 212 85 283 58 q 101 156 140 111 q 61 258 61 201 q 112 356 61 315 q 250 397 163 397 q 236 292 236 346 q 274 166 236 213 q 375 119 313 119 q 488 163 444 119 q 532 286 532 206 q 501 414 532 350 q 414 527 469 478 q 286 600 358 576 l 321 636 l 847 636 l 847 783 l -17 783 l -17 833 l 1156 833 l 1156 783 l 1022 783 l 1022 0 l 847 0 l 847 583 m 378 11 q 452 -19 421 11 q 483 -94 483 -50 q 452 -169 483 -139 q 378 -200 421 -200 q 303 -169 333 -200 q 272 -94 272 -139 q 303 -19 272 -50 q 378 11 333 11 z "},"ड़":{"ha":804,"x_min":-17,"x_max":821,"o":"m 389 36 q 535 78 479 36 q 592 196 592 121 q 560 273 592 243 q 483 320 529 303 q 357 358 436 338 q 219 401 272 381 q 131 458 167 421 q 94 553 94 494 q 155 674 94 631 q 317 717 215 717 q 414 709 369 717 q 508 679 458 701 l 508 783 l -17 783 l -17 833 l 821 833 l 821 783 l 683 783 l 683 628 l 542 583 q 456 642 506 621 q 357 664 407 664 q 297 647 324 664 q 271 594 271 631 q 317 528 271 551 q 465 476 364 504 q 622 426 563 450 q 725 355 682 401 q 768 236 768 308 q 711 94 768 151 q 565 10 654 38 q 375 -17 475 -17 q 200 10 276 -17 q 81 81 124 36 q 39 183 39 126 q 90 268 39 233 q 231 303 140 303 q 214 217 214 261 q 260 88 214 139 q 389 36 306 36 m 396 -61 q 470 -92 439 -61 q 501 -167 501 -122 q 470 -242 501 -211 q 396 -272 439 -272 q 321 -242 351 -272 q 290 -167 290 -211 q 321 -92 290 -122 q 396 -61 351 -61 z "},"ढ़":{"ha":851,"x_min":-17,"x_max":868,"o":"m 576 467 q 749 415 679 467 q 819 275 819 363 q 781 153 819 213 q 659 56 743 94 q 444 17 575 17 q 153 101 256 17 q 51 333 51 186 q 105 504 51 431 q 246 618 158 578 q 432 658 333 658 q 518 650 476 658 l 518 783 l -17 783 l -17 833 l 868 833 l 868 783 l 693 783 l 693 622 l 560 581 q 461 597 508 597 q 290 526 354 597 q 226 333 226 454 q 288 137 226 204 q 444 69 350 69 q 598 125 535 69 q 661 286 661 181 q 635 378 661 340 q 574 415 610 415 q 519 385 540 415 q 497 317 497 356 q 515 237 497 268 q 578 194 532 206 q 555 164 578 178 q 503 150 532 150 q 388 193 426 150 q 349 300 349 236 q 412 419 349 372 q 576 467 475 467 m 449 -61 q 523 -92 492 -61 q 554 -167 554 -122 q 523 -242 554 -211 q 449 -272 492 -272 q 374 -242 404 -272 q 343 -167 343 -211 q 374 -92 343 -122 q 449 -61 404 -61 z "},"फ़":{"ha":1299,"x_min":-17,"x_max":1315,"o":"m 767 783 l 767 614 q 958 700 836 700 q 1110 664 1044 700 q 1210 561 1175 628 q 1246 407 1246 494 q 1213 238 1246 311 q 1119 124 1179 164 q 982 83 1058 83 q 895 108 929 83 q 860 169 861 132 q 1016 232 961 169 q 1071 390 1071 294 q 1026 564 1071 497 q 907 631 982 631 q 767 535 822 631 l 767 0 l 592 0 l 592 299 q 498 189 567 236 q 343 142 429 142 q 158 209 226 142 q 89 393 89 276 l 89 783 l -17 783 l -17 833 l 1315 833 l 1315 783 l 767 783 m 592 783 l 264 783 l 264 393 q 297 265 264 310 q 389 221 331 221 q 515 277 460 221 q 592 424 569 333 l 592 783 m 314 11 q 388 -19 357 11 q 419 -94 419 -50 q 388 -169 419 -139 q 314 -200 357 -200 q 239 -169 269 -200 q 208 -94 208 -139 q 239 -19 208 -50 q 314 11 269 11 z "},"य़":{"ha":911,"x_min":-17,"x_max":928,"o":"m 190 11 q 265 -19 233 11 q 296 -94 296 -50 q 265 -169 296 -139 q 190 -200 233 -200 q 115 -169 146 -200 q 85 -94 85 -139 q 115 -19 85 -50 q 190 11 146 11 m 928 783 l 790 783 l 790 0 l 615 0 l 615 250 q 509 151 572 186 q 372 117 446 117 q 206 153 281 117 q 88 254 131 190 q 44 394 44 318 q 69 467 44 439 q 143 494 93 494 q 283 530 232 494 q 335 635 335 565 q 315 719 335 678 q 251 783 296 760 l -17 783 l -17 833 l 928 833 l 928 783 m 403 783 q 482 722 454 764 q 510 635 510 679 q 476 538 510 582 q 383 467 442 493 q 258 442 325 442 q 227 423 235 442 q 219 376 219 404 q 267 227 219 285 q 399 169 315 169 q 493 196 447 169 q 572 265 539 222 q 615 354 604 307 l 615 783 l 403 783 z "},"ॹ":{"ha":1139,"x_min":-17,"x_max":1156,"o":"m 847 583 l 501 583 q 656 468 606 539 q 707 321 707 397 q 663 183 707 243 q 542 91 618 124 q 375 58 467 58 q 212 85 283 58 q 101 156 140 111 q 61 258 61 201 q 112 356 61 315 q 250 397 163 397 q 236 292 236 346 q 274 166 236 213 q 375 119 313 119 q 488 163 444 119 q 532 286 532 206 q 501 414 532 350 q 414 527 469 478 q 286 600 358 576 l 321 636 l 847 636 l 847 783 l -17 783 l -17 833 l 1156 833 l 1156 783 l 1022 783 l 1022 0 l 847 0 l 847 583 m 201 11 q 276 -19 244 11 q 307 -94 307 -50 q 276 -169 307 -139 q 201 -200 244 -200 q 126 -169 157 -200 q 96 -94 96 -139 q 126 -19 96 -50 q 201 11 157 11 m 546 11 q 620 -19 589 11 q 651 -94 651 -50 q 620 -169 651 -139 q 546 -200 589 -200 q 471 -169 501 -200 q 440 -94 440 -139 q 471 -19 440 -50 q 546 11 501 11 m 374 -158 q 448 -189 417 -158 q 479 -264 479 -219 q 448 -339 479 -308 q 374 -369 417 -369 q 299 -339 329 -369 q 268 -264 268 -308 q 299 -189 268 -219 q 374 -158 329 -158 z "},"ॺ":{"ha":911,"x_min":-17,"x_max":928,"o":"m 928 833 l 928 783 l 790 783 l 790 0 l 615 0 l 615 250 q 509 151 572 186 q 372 117 446 117 q 206 153 281 117 q 88 254 131 190 q 44 394 44 318 q 69 467 44 439 q 143 494 93 494 q 283 530 232 494 q 335 635 335 565 q 315 719 335 678 q 251 783 296 760 l -17 783 l -17 833 l 928 833 m 403 783 q 482 722 454 764 q 510 635 510 679 q 492 563 510 597 q 440 501 474 528 l 614 354 l 615 354 l 615 783 l 403 783 m 399 169 q 501 199 451 169 q 581 278 550 229 l 365 460 q 258 442 311 442 q 227 423 235 442 q 219 376 219 404 q 267 227 219 285 q 399 169 315 169 z "},"ॻ":{"ha":1049,"x_min":-17,"x_max":1065,"o":"m 1065 833 l 1065 783 l 932 783 l 932 0 l 757 0 l 757 783 l 450 783 q 592 625 543 715 q 640 442 640 535 q 603 288 640 358 q 492 175 565 217 q 318 133 419 133 q 174 164 236 133 q 79 247 113 194 q 46 367 46 300 q 84 497 46 438 q 188 590 122 556 q 332 625 253 625 q 359 610 350 625 q 368 572 368 594 q 295 545 329 572 q 241 472 261 518 q 221 375 221 426 q 254 238 221 288 q 336 188 288 188 q 428 253 392 188 q 465 442 465 319 q 410 656 465 565 q 265 783 356 746 l -17 783 l -17 833 l 1065 833 m 79 -58 l 596 -58 l 596 -125 l 79 -125 l 79 -58 z "},"ॼ":{"ha":1139,"x_min":-17,"x_max":1156,"o":"m 847 583 l 501 583 q 656 468 606 539 q 707 321 707 397 q 663 183 707 243 q 542 91 618 124 q 375 58 467 58 q 212 85 283 58 q 101 156 140 111 q 61 258 61 201 q 112 356 61 315 q 250 397 163 397 q 236 292 236 346 q 274 166 236 213 q 375 119 313 119 q 488 163 444 119 q 532 286 532 206 q 501 414 532 350 q 414 527 469 478 q 286 600 358 576 l 321 636 l 847 636 l 847 783 l -17 783 l -17 833 l 1156 833 l 1156 783 l 1022 783 l 1022 0 l 847 0 l 847 583 m 639 -125 l 122 -125 l 122 -58 l 639 -58 l 639 -125 z "},"ॾ":{"ha":804,"x_min":-17,"x_max":821,"o":"m 389 36 q 535 78 479 36 q 592 196 592 121 q 560 273 592 243 q 483 320 529 303 q 357 358 436 338 q 219 401 272 381 q 131 458 167 421 q 94 553 94 494 q 155 674 94 631 q 317 717 215 717 q 414 709 369 717 q 508 679 458 701 l 508 783 l -17 783 l -17 833 l 821 833 l 821 783 l 683 783 l 683 628 l 542 583 q 456 642 506 621 q 357 664 407 664 q 297 647 324 664 q 271 594 271 631 q 317 528 271 551 q 465 476 364 504 q 622 426 563 450 q 725 355 682 401 q 768 236 768 308 q 711 94 768 151 q 565 10 654 38 q 375 -17 475 -17 q 200 10 276 -17 q 81 81 124 36 q 39 183 39 126 q 90 268 39 233 q 231 303 140 303 q 214 217 214 261 q 260 88 214 139 q 389 36 306 36 m 661 -125 l 144 -125 l 144 -58 l 661 -58 l 661 -125 z "},"ॿ":{"ha":913,"x_min":-17,"x_max":936,"o":"m 936 833 l 936 783 l 800 783 l 800 0 l 625 0 l 625 261 q 518 131 592 179 q 353 83 444 83 q 196 120 264 83 q 90 223 128 157 q 53 376 53 289 q 91 544 53 471 q 194 659 129 618 q 340 700 260 700 q 504 661 439 700 q 569 551 569 622 q 527 473 569 500 q 425 446 485 446 q 403 591 425 535 q 340 647 381 647 q 268 596 300 647 l 524 203 q 585 276 558 232 q 625 375 611 321 l 625 783 l -17 783 l -17 833 l 936 833 m 228 410 q 276 226 228 300 q 406 153 325 153 q 458 163 429 153 l 236 506 q 228 410 228 463 m 89 -58 l 606 -58 l 606 -125 l 89 -125 l 89 -58 z "},"⁄":{"ha":335,"x_min":18,"x_max":317,"o":"m 317 851 l 89 0 l 18 0 l 243 851 l 317 851 z "},"½":{"ha":1201,"x_min":111,"x_max":1122,"o":"m 444 440 l 444 390 l 113 390 l 113 440 l 219 440 l 219 763 l 111 760 l 111 808 q 205 823 151 808 q 296 858 258 838 l 350 858 l 350 440 l 444 440 m 761 851 l 533 0 l 463 0 l 688 851 l 761 851 m 757 324 q 808 439 763 401 q 939 476 853 476 q 1074 444 1026 476 q 1122 356 1122 413 q 1106 283 1122 317 q 1040 211 1089 250 l 890 97 l 1122 97 l 1122 0 l 754 0 l 754 81 l 924 211 q 980 278 967 247 q 993 356 993 308 q 979 408 993 389 q 939 426 965 426 q 889 398 906 426 q 871 307 872 369 l 757 324 z "},"¼":{"ha":1201,"x_min":96,"x_max":1135,"o":"m 429 440 l 429 390 l 97 390 l 97 440 l 204 440 l 204 763 l 96 760 l 96 808 q 190 823 136 808 q 281 858 243 838 l 335 858 l 335 440 l 429 440 m 761 851 l 533 0 l 463 0 l 688 851 l 761 851 m 1135 81 l 1089 81 l 1089 0 l 961 0 l 961 81 l 719 81 l 719 161 l 897 468 l 1089 468 l 1089 178 l 1135 178 l 1135 81 m 961 178 l 961 422 l 822 178 l 961 178 z "},"¾":{"ha":1201,"x_min":72,"x_max":1135,"o":"m 318 622 q 417 585 381 614 q 453 507 453 557 q 401 417 453 454 q 257 381 349 381 q 122 411 167 381 q 72 515 78 442 l 185 529 q 205 456 188 478 q 257 433 222 433 q 310 451 292 433 q 328 507 328 468 q 314 566 328 547 q 281 588 300 585 q 229 592 261 592 l 183 592 l 183 651 l 231 651 q 301 674 283 651 q 319 749 319 696 q 306 801 319 786 q 258 817 292 817 q 211 792 228 817 q 193 713 194 768 l 81 725 q 130 834 86 801 q 258 867 174 867 q 397 834 349 867 q 446 749 446 801 q 411 665 446 696 q 318 622 376 633 m 761 851 l 533 0 l 463 0 l 688 851 l 761 851 m 1135 81 l 1089 81 l 1089 0 l 961 0 l 961 81 l 719 81 l 719 161 l 897 468 l 1089 468 l 1089 178 l 1135 178 l 1135 81 m 961 178 l 961 422 l 822 178 l 961 178 z "},"₀":{"ha":525,"x_min":61,"x_max":464,"o":"m 263 -226 q 105 -162 149 -226 q 61 18 61 -99 q 105 197 61 133 q 263 261 149 261 q 420 197 376 261 q 464 18 464 133 q 420 -163 464 -100 q 263 -226 376 -226 m 261 -175 q 317 -122 301 -175 q 333 18 333 -69 q 319 168 333 124 q 261 213 304 213 q 205 168 219 213 q 190 18 190 124 q 261 -175 190 -175 z "},"₁":{"ha":525,"x_min":96,"x_max":429,"o":"m 429 -167 l 429 -217 l 97 -217 l 97 -167 l 204 -167 l 204 156 l 96 153 l 96 201 q 190 216 136 201 q 281 251 243 231 l 335 251 l 335 -167 l 429 -167 z "},"₂":{"ha":525,"x_min":78,"x_max":446,"o":"m 81 107 q 131 222 86 185 q 263 260 176 260 q 398 228 350 260 q 446 139 446 196 q 429 67 446 100 q 364 -6 413 33 l 214 -119 l 446 -119 l 446 -217 l 78 -217 l 78 -136 l 247 -6 q 303 61 290 31 q 317 139 317 92 q 303 191 317 172 q 263 210 289 210 q 213 181 229 210 q 194 90 196 153 l 81 107 z "},"₃":{"ha":525,"x_min":72,"x_max":453,"o":"m 318 15 q 453 -100 453 -1 q 401 -190 453 -153 q 257 -226 349 -226 q 122 -196 167 -226 q 72 -92 78 -165 l 185 -78 q 205 -151 188 -129 q 257 -174 222 -174 q 310 -156 292 -174 q 328 -100 328 -139 q 314 -41 328 -60 q 281 -19 300 -22 q 229 -15 261 -15 l 183 -15 l 183 44 l 231 44 q 301 67 283 44 q 319 142 319 89 q 306 194 319 179 q 258 210 292 210 q 211 185 228 210 q 193 106 194 161 l 81 118 q 130 227 86 194 q 258 260 174 260 q 397 227 349 260 q 446 142 446 194 q 411 58 446 89 q 318 15 376 26 z "},"₄":{"ha":525,"x_min":43,"x_max":458,"o":"m 458 -136 l 413 -136 l 413 -217 l 285 -217 l 285 -136 l 43 -136 l 43 -56 l 221 251 l 413 251 l 413 -39 l 458 -39 l 458 -136 m 285 -39 l 285 206 l 146 -39 l 285 -39 z "},"₅":{"ha":525,"x_min":76,"x_max":450,"o":"m 189 -61 q 256 -175 192 -175 q 305 -149 289 -175 q 321 -83 321 -122 q 288 -10 321 -36 q 174 17 256 17 l 101 17 l 118 251 l 415 251 l 415 154 l 163 154 l 157 68 l 233 68 q 395 26 340 68 q 450 -83 450 -17 q 428 -152 450 -119 q 362 -206 406 -185 q 256 -226 318 -226 q 76 -71 88 -226 l 189 -61 z "},"₆":{"ha":525,"x_min":64,"x_max":458,"o":"m 289 65 q 417 31 376 65 q 458 -74 458 -4 q 267 -226 458 -226 q 113 -163 161 -226 q 64 -6 64 -100 q 108 191 64 122 q 268 260 153 260 q 446 115 440 260 l 333 106 q 317 182 335 153 q 268 211 300 211 q 208 174 225 211 q 190 51 192 138 q 289 65 236 65 m 267 -175 q 317 -150 301 -175 q 332 -74 332 -125 q 251 13 332 13 q 189 3 219 13 q 197 -108 189 -69 q 222 -160 206 -146 q 267 -175 239 -175 z "},"₇":{"ha":525,"x_min":71,"x_max":440,"o":"m 339 153 l 71 153 l 71 251 l 440 251 l 440 171 l 231 -217 l 118 -217 l 339 153 z "},"₈":{"ha":525,"x_min":64,"x_max":461,"o":"m 374 24 q 461 -93 461 -14 q 407 -189 461 -151 q 263 -226 353 -226 q 118 -189 172 -226 q 64 -93 64 -151 q 89 -25 64 -51 q 164 18 114 1 q 94 61 117 35 q 71 131 71 88 q 120 224 71 188 q 263 260 169 260 q 406 223 356 260 q 456 131 456 186 q 435 66 456 92 q 374 24 414 40 m 263 211 q 215 188 231 211 q 200 131 200 165 q 217 69 200 89 q 268 46 233 49 l 283 44 l 286 44 q 324 131 324 65 q 309 188 324 165 q 263 211 294 211 m 263 -175 q 314 -156 297 -175 q 331 -93 331 -136 q 312 -28 331 -51 q 264 -3 293 -6 l 251 -1 l 246 0 q 194 -93 194 -14 q 213 -152 194 -129 q 263 -175 231 -175 z "},"₉":{"ha":525,"x_min":63,"x_max":461,"o":"m 267 260 q 414 203 367 260 q 461 50 461 146 q 415 -162 461 -97 q 254 -226 368 -226 q 72 -83 78 -226 l 185 -71 q 201 -149 185 -122 q 254 -175 217 -175 q 313 -140 297 -175 q 331 -21 328 -104 q 286 -33 307 -31 q 235 -35 265 -35 q 63 100 63 -35 q 116 216 63 172 q 267 260 169 260 m 193 108 q 213 42 193 69 q 275 15 232 15 q 331 26 304 15 q 315 164 329 117 q 267 211 301 211 q 211 183 229 211 q 193 108 193 154 z "},"⁰":{"ha":525,"x_min":61,"x_max":464,"o":"m 263 457 q 105 521 149 457 q 61 701 61 585 q 105 881 61 817 q 263 944 149 944 q 420 881 376 944 q 464 701 464 817 q 420 520 464 583 q 263 457 376 457 m 261 508 q 317 561 301 508 q 333 701 333 614 q 319 851 333 807 q 261 896 304 896 q 205 851 219 896 q 190 701 190 807 q 261 508 190 508 z "},"¹":{"ha":525,"x_min":96,"x_max":429,"o":"m 429 517 l 429 467 l 97 467 l 97 517 l 204 517 l 204 839 l 96 836 l 96 885 q 190 899 136 885 q 281 935 243 914 l 335 935 l 335 517 l 429 517 z "},"²":{"ha":525,"x_min":78,"x_max":446,"o":"m 81 790 q 131 906 86 868 q 263 943 176 943 q 398 911 350 943 q 446 822 446 879 q 429 750 446 783 q 364 678 413 717 l 214 564 l 446 564 l 446 467 l 78 467 l 78 547 l 247 678 q 303 744 290 714 q 317 822 317 775 q 303 874 317 856 q 263 893 289 893 q 213 865 229 893 q 194 774 196 836 l 81 790 z "},"³":{"ha":525,"x_min":72,"x_max":453,"o":"m 318 699 q 453 583 453 682 q 401 494 453 531 q 257 457 349 457 q 122 488 167 457 q 72 592 78 518 l 185 606 q 205 532 188 554 q 257 510 222 510 q 310 527 292 510 q 328 583 328 544 q 314 642 328 624 q 281 665 300 661 q 229 668 261 668 l 183 668 l 183 728 l 231 728 q 301 750 283 728 q 319 825 319 772 q 306 878 319 863 q 258 893 292 893 q 211 869 228 893 q 193 789 194 844 l 81 801 q 130 910 86 878 q 258 943 174 943 q 397 910 349 943 q 446 825 446 878 q 411 741 446 772 q 318 699 376 710 z "},"⁴":{"ha":525,"x_min":43,"x_max":458,"o":"m 458 547 l 413 547 l 413 467 l 285 467 l 285 547 l 43 547 l 43 628 l 221 935 l 413 935 l 413 644 l 458 644 l 458 547 m 285 644 l 285 889 l 146 644 l 285 644 z "},"⁵":{"ha":525,"x_min":76,"x_max":450,"o":"m 189 622 q 256 508 192 508 q 305 535 289 508 q 321 600 321 561 q 288 674 321 647 q 174 700 256 700 l 101 700 l 118 935 l 415 935 l 415 838 l 163 838 l 157 751 l 233 751 q 395 709 340 751 q 450 600 450 667 q 428 531 450 564 q 362 478 406 499 q 256 457 318 457 q 76 613 88 457 l 189 622 z "},"⁶":{"ha":525,"x_min":64,"x_max":458,"o":"m 289 749 q 417 714 376 749 q 458 610 458 679 q 267 457 458 457 q 113 520 161 457 q 64 678 64 583 q 108 874 64 806 q 268 943 153 943 q 446 799 440 943 l 333 789 q 317 865 335 836 q 268 894 300 894 q 208 858 225 894 q 190 735 192 821 q 289 749 235 749 m 267 508 q 317 533 301 508 q 332 610 332 558 q 251 696 332 696 q 189 686 219 696 q 197 576 189 614 q 222 523 206 538 q 267 508 239 508 z "},"⁷":{"ha":525,"x_min":71,"x_max":440,"o":"m 339 836 l 71 836 l 71 935 l 440 935 l 440 854 l 231 467 l 118 467 l 339 836 z "},"⁸":{"ha":525,"x_min":64,"x_max":461,"o":"m 374 707 q 461 590 461 669 q 407 494 461 532 q 263 457 353 457 q 118 494 172 457 q 64 590 64 532 q 89 658 64 632 q 164 701 114 685 q 94 744 117 718 q 71 814 71 771 q 120 907 71 871 q 263 943 169 943 q 406 906 356 943 q 456 814 456 869 q 435 749 456 775 q 374 707 414 724 m 263 894 q 215 872 231 894 q 200 814 200 849 q 217 752 200 772 q 268 729 233 732 l 283 728 l 286 728 q 324 814 324 749 q 309 872 324 849 q 263 894 294 894 m 263 508 q 314 528 297 508 q 331 590 331 547 q 312 655 331 632 q 264 681 293 678 l 251 682 l 246 683 q 194 590 194 669 q 213 531 194 554 q 263 508 231 508 z "},"⁹":{"ha":525,"x_min":63,"x_max":461,"o":"m 267 943 q 414 886 367 943 q 461 733 461 829 q 415 522 461 586 q 254 457 368 457 q 72 600 78 457 l 185 613 q 201 535 185 561 q 254 508 217 508 q 313 544 297 508 q 331 663 328 579 q 286 651 307 653 q 235 649 265 649 q 63 783 63 649 q 116 899 63 856 q 267 943 169 943 m 193 792 q 213 726 193 753 q 275 699 232 699 q 331 710 304 699 q 315 847 329 800 q 267 894 301 894 q 211 866 229 894 q 193 792 193 838 z "},"०":{"ha":917,"x_min":97,"x_max":835,"o":"m 492 835 q 678 778 601 835 q 795 631 756 722 q 835 435 835 539 q 791 224 835 324 q 662 61 747 124 q 458 -1 576 -1 q 261 55 343 -1 q 138 203 179 111 q 97 400 97 294 q 142 611 97 511 q 277 773 188 711 q 492 835 367 835 m 425 774 q 310 693 349 774 q 272 488 272 613 q 301 287 272 386 q 381 124 329 188 q 500 60 432 60 q 618 142 576 60 q 660 344 660 224 q 632 547 660 447 q 551 710 604 646 q 425 774 497 774 z "},"१":{"ha":915,"x_min":221,"x_max":715,"o":"m 708 685 q 676 589 708 633 q 567 492 643 544 l 506 449 q 426 389 443 404 q 410 354 410 374 q 454 292 410 328 l 539 231 q 654 146 621 172 q 701 100 688 119 q 715 57 715 81 q 688 -3 715 18 q 617 -25 660 -25 q 564 -19 592 -25 q 515 0 536 -12 q 546 40 546 17 q 535 66 546 53 q 483 110 524 79 q 378 186 442 140 l 285 254 q 235 336 235 293 q 248 382 235 363 q 288 422 261 401 q 388 490 315 443 l 419 513 q 281 553 342 513 q 221 667 221 594 q 294 790 221 746 q 465 833 367 833 q 636 794 564 833 q 708 685 708 754 m 465 774 q 416 748 436 774 q 396 685 396 722 q 418 606 396 642 q 475 553 440 569 q 533 683 533 603 q 513 746 533 718 q 465 774 493 774 z "},"२":{"ha":917,"x_min":115,"x_max":810,"o":"m 493 839 q 654 810 582 839 q 768 731 726 782 q 810 614 810 679 q 747 447 810 524 q 577 326 685 371 q 342 282 469 282 q 594 137 488 183 q 794 90 700 90 q 644 -14 743 -14 q 515 24 590 -14 q 326 133 440 63 q 192 213 240 188 q 115 239 143 239 q 256 335 115 335 q 439 369 351 335 q 581 469 526 404 q 635 617 635 533 q 592 733 635 690 q 493 775 550 775 q 406 739 443 775 q 368 644 368 703 q 418 531 368 578 q 540 485 468 485 q 500 449 533 467 q 426 432 467 432 q 306 458 360 432 q 223 529 253 485 q 193 628 193 574 q 233 740 193 692 q 342 813 274 788 q 493 839 410 839 z "},"३":{"ha":917,"x_min":118,"x_max":806,"o":"m 475 850 q 626 828 560 850 q 728 767 692 806 q 764 683 764 729 q 707 555 764 615 q 551 471 650 494 q 742 382 679 442 q 806 238 806 322 q 756 111 806 169 q 624 18 707 53 q 442 -17 540 -17 q 276 8 350 -17 q 160 77 203 32 q 118 183 118 122 q 145 242 118 215 q 217 285 172 269 q 314 300 263 300 q 294 207 294 258 q 337 88 294 132 q 443 44 379 44 q 579 100 528 44 q 631 239 631 156 q 564 382 631 329 q 392 435 497 435 q 303 418 342 435 l 343 488 q 529 537 469 488 q 589 665 589 586 q 553 753 589 718 q 465 789 517 789 q 379 762 417 789 q 342 699 342 735 q 350 655 342 681 q 372 615 358 629 q 319 585 344 594 q 264 575 293 575 q 193 601 221 575 q 165 671 165 628 q 208 760 165 718 q 321 826 250 801 q 475 850 392 850 z "},"४":{"ha":917,"x_min":176,"x_max":882,"o":"m 538 525 q 588 486 554 511 q 687 404 650 439 q 748 322 724 369 q 772 213 772 275 q 731 84 772 138 q 625 3 690 31 q 485 -24 560 -24 q 348 1 411 -24 q 246 76 285 26 q 207 196 207 125 q 243 357 207 281 q 368 519 279 433 q 267 594 306 561 q 202 676 228 628 q 176 792 176 725 q 224 890 176 853 q 333 928 271 928 q 366 739 333 818 q 457 597 399 660 q 829 850 590 706 q 867 835 851 850 q 882 792 882 821 q 538 525 644 628 m 488 47 q 566 89 535 47 q 597 204 597 131 q 563 345 597 288 q 467 451 529 403 q 399 340 417 392 q 382 225 382 288 q 413 94 382 142 q 488 47 443 47 z "},"५":{"ha":917,"x_min":81,"x_max":835,"o":"m 726 567 q 740 483 726 525 q 779 375 753 442 q 820 263 806 310 q 835 169 835 217 q 790 28 835 82 q 667 -25 744 -25 q 592 -3 622 -25 q 561 43 561 18 q 678 169 678 71 q 663 258 678 215 q 621 363 649 300 q 593 425 601 404 q 508 298 572 346 q 364 250 444 250 q 220 282 285 250 q 118 374 156 314 q 81 514 81 433 q 155 701 81 613 q 364 850 229 789 q 399 835 382 850 q 417 792 417 819 q 254 514 254 676 q 295 376 254 426 q 400 325 336 325 q 486 353 447 325 q 547 430 525 382 q 569 532 569 478 q 616 645 569 607 q 768 683 663 683 q 726 567 726 625 z "},"६":{"ha":917,"x_min":125,"x_max":821,"o":"m 500 842 q 633 826 571 842 q 734 783 696 810 q 772 724 772 756 q 723 674 772 693 q 606 656 674 656 q 555 745 596 710 q 465 781 514 781 q 379 749 414 781 q 344 668 344 718 q 380 577 344 617 q 477 515 415 538 q 613 493 539 493 l 613 432 q 442 405 513 432 q 336 333 372 378 q 300 233 300 288 q 353 92 300 149 q 497 36 407 36 q 648 74 576 36 q 768 193 719 113 l 821 158 q 669 19 761 64 q 465 -25 578 -25 q 294 9 372 -25 q 171 101 217 43 q 125 226 125 158 q 157 331 125 281 q 247 417 189 382 q 378 465 304 453 q 224 536 278 483 q 169 651 169 589 q 262 793 169 744 q 500 842 354 842 z "},"७":{"ha":917,"x_min":79,"x_max":825,"o":"m 551 708 q 688 660 625 708 q 788 530 751 613 q 825 350 825 447 q 790 159 825 244 q 688 24 756 74 q 524 -25 619 -25 q 299 49 400 -25 q 138 262 197 124 q 79 583 79 400 q 109 717 79 663 q 187 798 139 771 q 290 825 235 825 q 254 583 254 689 q 294 310 254 436 q 401 110 335 183 q 540 36 467 36 q 634 95 601 36 q 667 247 667 154 q 664 349 667 285 q 535 292 617 292 q 397 349 451 292 q 343 501 343 406 q 371 605 343 557 q 447 681 399 653 q 551 708 494 708 m 567 353 q 616 375 590 353 q 653 447 642 397 q 611 594 638 540 q 551 647 585 647 q 508 609 524 647 q 492 510 492 571 q 513 399 492 444 q 567 353 533 353 z "},"८":{"ha":917,"x_min":139,"x_max":788,"o":"m 724 782 q 416 504 518 640 q 314 225 314 368 q 360 86 314 136 q 472 36 407 36 q 574 83 535 36 q 613 208 613 129 q 597 314 613 247 q 738 275 688 314 q 788 175 788 236 q 748 73 788 118 q 638 1 708 28 q 476 -25 567 -25 q 308 4 385 -25 q 185 96 232 33 q 139 251 139 158 q 671 839 139 532 q 708 824 693 839 q 724 782 724 810 z "},"९":{"ha":917,"x_min":115,"x_max":807,"o":"m 707 -33 q 619 0 656 -33 q 649 10 639 0 q 658 38 658 21 q 648 71 658 56 q 611 113 638 86 l 219 476 q 115 644 115 572 q 151 741 115 697 q 249 810 188 785 q 383 836 311 836 q 513 815 454 836 q 605 756 571 793 q 639 676 639 719 q 583 571 639 614 q 418 528 528 528 l 378 528 l 682 246 q 780 140 753 179 q 807 58 807 100 q 782 -7 807 19 q 707 -33 757 -33 m 322 581 q 465 676 465 581 q 438 746 465 717 q 371 775 410 775 q 300 748 326 775 q 274 681 274 721 q 286 629 274 656 q 322 581 299 603 z "},"*":{"ha":651,"x_min":26,"x_max":625,"o":"m 407 794 l 351 674 l 301 674 l 244 794 l 244 908 l 407 908 l 407 794 m 182 740 l 282 660 l 267 613 l 138 606 l 26 643 l 71 775 l 182 740 m 514 606 l 386 610 l 369 660 l 467 740 l 578 775 l 625 643 l 514 606 m 161 529 l 274 592 l 313 560 l 286 436 l 217 339 l 93 429 l 161 529 m 364 436 l 336 560 l 378 590 l 488 529 l 558 429 l 433 339 l 364 436 z "},"\\":{"ha":476,"x_min":13,"x_max":464,"o":"m 289 -124 l 13 906 l 188 906 l 464 -124 l 289 -124 z "},"·":{"ha":260,"x_min":35,"x_max":224,"o":"m 129 300 q 63 328 90 300 q 35 396 35 357 q 63 463 35 436 q 129 490 90 490 q 197 463 169 490 q 224 396 224 436 q 196 328 224 356 q 129 300 168 300 z "},"•":{"ha":356,"x_min":33,"x_max":317,"o":"m 175 278 q 75 320 117 278 q 33 419 33 363 q 74 521 33 479 q 175 563 115 563 q 276 521 235 563 q 317 419 317 479 q 276 319 317 361 q 175 278 235 278 z "},":":{"ha":260,"x_min":35,"x_max":224,"o":"m 129 -10 q 63 19 90 -10 q 35 86 35 47 q 63 153 35 126 q 129 181 90 181 q 197 153 169 181 q 224 86 224 126 q 196 18 224 46 q 129 -10 168 -10 m 129 447 q 63 476 90 447 q 35 543 35 504 q 63 610 35 583 q 129 638 90 638 q 197 610 169 638 q 224 543 224 583 q 196 475 224 503 q 129 447 168 447 z "},",":{"ha":260,"x_min":31,"x_max":215,"o":"m 129 181 q 190 153 165 181 q 215 82 215 126 q 171 -51 215 8 q 61 -150 126 -111 l 31 -112 q 61 -69 53 -90 q 69 -18 69 -49 q 57 33 69 1 q 43 94 43 72 q 68 156 43 131 q 129 181 93 181 z "},"…":{"ha":858,"x_min":35,"x_max":824,"o":"m 129 -10 q 63 19 90 -10 q 35 86 35 47 q 63 153 35 126 q 129 181 90 181 q 197 153 169 181 q 224 86 224 126 q 196 18 224 46 q 129 -10 168 -10 m 729 -10 q 663 19 690 -10 q 635 86 635 47 q 663 153 635 126 q 729 181 690 181 q 797 153 769 181 q 824 86 824 126 q 796 18 824 46 q 729 -10 768 -10 m 429 -10 q 363 19 390 -10 q 335 86 335 47 q 363 153 335 126 q 429 181 390 181 q 497 153 469 181 q 524 86 524 126 q 496 18 524 46 q 429 -10 468 -10 z "},"!":{"ha":390,"x_min":99,"x_max":289,"o":"m 282 632 l 246 251 l 143 251 l 107 632 l 107 851 l 282 851 l 282 632 m 194 -10 q 127 19 156 -10 q 99 86 99 47 q 126 153 99 125 q 194 181 154 181 q 261 153 233 181 q 289 86 289 125 q 261 19 289 47 q 194 -10 233 -10 z "},"¡":{"ha":390,"x_min":99,"x_max":289,"o":"m 194 685 q 261 657 233 685 q 289 590 289 629 q 261 522 289 550 q 194 494 233 494 q 126 522 154 494 q 99 590 99 550 q 127 656 99 628 q 194 685 156 685 m 107 -176 l 107 43 l 143 424 l 246 424 l 282 43 l 282 -176 l 107 -176 z "},"#":{"ha":978,"x_min":47,"x_max":931,"o":"m 790 540 l 747 310 l 865 310 l 840 175 l 724 175 l 675 -89 l 500 -89 l 549 175 l 338 175 l 290 -89 l 115 -89 l 163 175 l 47 175 l 71 310 l 188 310 l 229 540 l 114 540 l 139 675 l 254 675 l 303 940 l 478 940 l 429 675 l 639 675 l 688 940 l 863 940 l 814 675 l 931 675 l 907 540 l 790 540 m 615 540 l 404 540 l 363 310 l 572 310 l 615 540 z "},".":{"ha":260,"x_min":35,"x_max":224,"o":"m 129 -10 q 63 19 90 -10 q 35 86 35 47 q 63 153 35 126 q 129 181 90 181 q 197 153 169 181 q 224 86 224 126 q 196 18 224 46 q 129 -10 168 -10 z "},"?":{"ha":599,"x_min":35,"x_max":575,"o":"m 35 636 q 114 808 46 747 q 303 868 182 868 q 453 836 392 868 q 545 751 515 804 q 575 636 575 699 q 510 475 575 540 q 343 379 446 410 l 329 251 l 221 251 l 208 379 q 363 494 318 428 q 408 663 408 560 q 382 767 408 736 q 303 799 356 799 q 218 751 246 799 q 185 615 190 703 l 35 636 m 275 -10 q 209 19 236 -10 q 182 86 182 47 q 209 153 182 125 q 275 181 236 181 q 343 153 315 181 q 371 86 371 125 q 343 19 371 47 q 275 -10 315 -10 z "},"¿":{"ha":586,"x_min":11,"x_max":551,"o":"m 311 685 q 376 656 349 685 q 404 590 404 628 q 377 522 404 550 q 311 494 350 494 q 243 522 271 494 q 215 590 215 550 q 244 657 215 629 q 311 685 272 685 m 551 39 q 472 -133 540 -72 q 283 -193 404 -193 q 133 -161 194 -193 q 41 -76 71 -129 q 11 39 11 -24 q 76 200 11 135 q 243 296 140 265 l 257 424 l 365 424 l 378 296 q 223 181 268 247 q 178 13 178 115 q 204 -92 178 -61 q 283 -124 231 -124 q 368 -76 340 -124 q 401 60 396 -28 l 551 39 z "},"\"":{"ha":490,"x_min":47,"x_max":443,"o":"m 210 771 l 176 539 l 81 539 l 47 771 l 47 851 l 210 851 l 210 771 m 443 771 l 408 539 l 313 539 l 281 771 l 281 851 l 443 851 l 443 771 z "},"'":{"ha":258,"x_min":47,"x_max":210,"o":"m 210 771 l 176 539 l 81 539 l 47 771 l 47 851 l 210 851 l 210 771 z "},";":{"ha":260,"x_min":28,"x_max":217,"o":"m 129 181 q 190 153 165 181 q 215 82 215 126 q 171 -51 215 8 q 61 -150 126 -111 l 31 -112 q 61 -69 53 -90 q 69 -18 69 -49 q 57 33 69 1 q 43 94 43 72 q 68 156 43 131 q 129 181 93 181 m 122 447 q 56 476 83 447 q 28 543 28 504 q 56 610 28 583 q 122 638 83 638 q 190 610 163 638 q 217 543 217 583 q 189 475 217 503 q 122 447 161 447 z "},"/":{"ha":476,"x_min":13,"x_max":464,"o":"m 464 906 l 188 -124 l 13 -124 l 289 906 l 464 906 z "},"_":{"ha":654,"x_min":71,"x_max":583,"o":"m 583 0 l 583 -115 l 71 -115 l 71 0 l 583 0 z "},"{":{"ha":399,"x_min":11,"x_max":388,"o":"m 190 429 q 249 408 225 429 q 272 350 272 388 q 267 288 272 329 q 261 208 261 243 q 388 28 261 28 l 388 -42 q 156 23 228 -42 q 83 194 83 88 q 89 264 83 219 q 92 290 90 275 q 93 324 93 304 q 67 374 93 358 q 11 390 40 390 l 11 461 q 67 477 40 461 q 93 528 93 493 q 92 562 93 547 q 89 588 90 576 q 83 657 83 632 q 156 829 83 765 q 388 893 228 893 l 388 824 q 261 651 261 824 q 267 578 261 622 q 272 518 272 539 q 249 459 272 481 q 190 438 225 438 l 190 429 z "},"}":{"ha":399,"x_min":11,"x_max":388,"o":"m 208 438 q 150 459 174 438 q 126 518 126 481 q 132 578 126 539 q 138 651 138 622 q 11 824 138 824 l 11 893 q 243 829 171 893 q 315 657 315 765 q 310 588 315 632 q 307 562 308 576 q 306 528 306 547 q 332 477 306 493 q 388 461 358 461 l 388 390 q 332 374 358 390 q 306 324 306 358 q 307 290 306 304 q 310 264 308 275 q 315 194 315 219 q 243 23 315 88 q 11 -42 171 -42 l 11 28 q 138 208 138 28 q 132 288 138 243 q 126 350 126 329 q 150 408 126 388 q 208 429 174 429 l 208 438 z "},"[":{"ha":394,"x_min":82,"x_max":383,"o":"m 258 822 l 258 28 l 383 28 l 383 -42 l 82 -42 l 82 893 l 383 893 l 383 822 l 258 822 z "},"]":{"ha":394,"x_min":11,"x_max":313,"o":"m 313 -42 l 11 -42 l 11 28 l 135 28 l 135 822 l 11 822 l 11 893 l 313 893 l 313 -42 z "},"(":{"ha":378,"x_min":36,"x_max":367,"o":"m 367 -42 q 110 94 183 -42 q 36 425 36 229 q 110 756 36 619 q 367 893 183 893 l 367 822 q 253 702 290 822 q 217 425 217 582 q 253 149 217 269 q 367 28 290 28 l 367 -42 z "},")":{"ha":378,"x_min":11,"x_max":342,"o":"m 11 28 q 125 148 89 28 q 161 425 161 268 q 125 702 161 582 q 11 822 89 822 l 11 893 q 269 757 196 893 q 342 425 342 621 q 269 93 342 228 q 11 -42 196 -42 l 11 28 z "},"—":{"ha":1043,"x_min":71,"x_max":972,"o":"m 972 431 l 972 314 l 71 314 l 71 431 l 972 431 z "},"–":{"ha":654,"x_min":71,"x_max":583,"o":"m 583 431 l 583 314 l 71 314 l 71 431 l 583 431 z "},"-":{"ha":551,"x_min":71,"x_max":481,"o":"m 481 431 l 481 314 l 71 314 l 71 431 l 481 431 z "},"­":{"ha":569,"x_min":72,"x_max":518,"o":"m 72 403 l 482 403 l 518 504 l 110 504 l 72 403 z "},"«":{"ha":614,"x_min":35,"x_max":579,"o":"m 304 186 l 250 132 l 35 338 l 35 399 l 250 603 l 304 549 l 176 368 l 304 186 m 579 186 l 522 132 l 310 338 l 310 399 l 522 603 l 579 549 l 449 368 l 579 186 z "},"»":{"ha":614,"x_min":36,"x_max":579,"o":"m 36 549 l 92 603 l 304 399 l 304 338 l 92 132 l 36 186 l 165 368 l 36 549 m 311 549 l 364 603 l 579 399 l 579 338 l 364 132 l 311 186 l 438 368 l 311 549 z "},"‹":{"ha":340,"x_min":35,"x_max":304,"o":"m 304 186 l 250 132 l 35 338 l 35 399 l 250 603 l 304 549 l 176 368 l 304 186 z "},"›":{"ha":340,"x_min":36,"x_max":306,"o":"m 36 549 l 90 603 l 306 399 l 306 338 l 90 132 l 36 186 l 164 368 l 36 549 z "},"„":{"ha":518,"x_min":31,"x_max":475,"o":"m 389 181 q 450 153 425 181 q 475 82 475 126 q 431 -51 475 8 q 321 -150 386 -111 l 290 -112 q 321 -69 313 -90 q 329 -18 329 -49 q 317 33 329 1 q 303 94 303 72 q 328 156 303 131 q 389 181 353 181 m 129 181 q 190 153 165 181 q 215 82 215 126 q 171 -51 215 8 q 61 -150 126 -111 l 31 -112 q 61 -69 53 -90 q 69 -18 69 -49 q 57 33 69 1 q 43 94 43 72 q 68 156 43 131 q 129 181 93 181 z "},"“":{"ha":511,"x_min":44,"x_max":465,"o":"m 131 546 q 70 574 96 546 q 44 644 44 601 q 89 778 44 718 q 199 876 133 838 l 229 839 q 199 796 207 817 q 190 744 190 775 q 203 693 190 725 q 217 632 217 654 q 192 571 217 596 q 131 546 167 546 m 367 546 q 306 574 331 546 q 281 644 281 601 q 325 778 281 718 q 435 876 369 838 l 465 839 q 435 796 443 817 q 426 744 426 775 q 439 693 426 725 q 453 632 453 654 q 428 571 453 596 q 367 546 403 546 z "},"”":{"ha":511,"x_min":46,"x_max":468,"o":"m 144 879 q 206 852 181 879 q 231 781 231 825 q 186 647 231 707 q 76 549 142 588 l 46 586 q 76 629 68 608 q 85 681 85 650 q 72 732 85 700 q 58 793 58 771 q 83 854 58 829 q 144 879 108 879 m 382 879 q 443 852 418 879 q 468 781 468 825 q 424 647 468 707 q 314 549 379 588 l 283 586 q 314 629 306 608 q 322 681 322 650 q 310 732 322 700 q 296 793 296 771 q 321 854 296 829 q 382 879 346 879 z "},"‘":{"ha":274,"x_min":44,"x_max":229,"o":"m 131 546 q 70 574 96 546 q 44 644 44 601 q 89 778 44 718 q 199 876 133 838 l 229 839 q 199 796 207 817 q 190 744 190 775 q 203 693 190 725 q 217 632 217 654 q 192 571 217 596 q 131 546 167 546 z "},"’":{"ha":274,"x_min":46,"x_max":231,"o":"m 144 879 q 206 851 181 879 q 231 781 231 824 q 186 647 231 707 q 76 549 142 588 l 46 586 q 76 629 68 608 q 85 681 85 650 q 72 732 85 700 q 58 793 58 771 q 83 854 58 829 q 144 879 108 879 z "},"‚":{"ha":260,"x_min":31,"x_max":215,"o":"m 129 181 q 190 153 165 181 q 215 82 215 126 q 171 -51 215 8 q 61 -150 126 -111 l 31 -112 q 61 -69 53 -90 q 69 -18 69 -49 q 57 33 69 1 q 43 94 43 72 q 68 156 43 131 q 129 181 93 181 z "},"ॽ":{"ha":742,"x_min":53,"x_max":696,"o":"m 357 833 q 528 803 450 833 q 651 720 606 772 q 696 606 696 668 q 674 485 696 536 q 621 398 653 433 q 536 315 589 363 q 447 228 479 265 q 391 133 414 190 q 368 0 368 76 q 287 35 319 0 q 254 128 254 71 q 290 263 254 207 q 396 389 326 319 q 490 499 460 453 q 521 606 521 544 q 482 731 521 682 q 372 781 443 781 q 254 717 299 781 q 210 521 210 653 q 94 544 136 521 q 53 625 53 567 q 99 733 53 685 q 217 807 146 781 q 357 833 288 833 z "},"।":{"ha":525,"x_min":233,"x_max":408,"o":"m 408 -67 l 233 -67 l 233 900 l 408 900 l 408 -67 z "},"॥":{"ha":919,"x_min":233,"x_max":803,"o":"m 408 -67 l 233 -67 l 233 900 l 408 900 l 408 -67 m 803 -67 l 628 -67 l 628 900 l 803 900 l 803 -67 z "},"॰":{"ha":950,"x_min":117,"x_max":833,"o":"m 489 388 q 661 360 582 388 q 787 288 740 333 q 833 188 833 242 q 783 94 833 138 q 647 26 732 51 q 461 0 561 0 q 289 28 368 0 q 163 103 210 56 q 117 204 117 150 q 167 296 117 254 q 303 363 217 338 q 489 388 389 388 m 433 338 q 341 306 379 338 q 303 228 303 274 q 328 135 303 178 q 399 69 354 93 q 496 44 443 44 q 603 80 558 44 q 647 167 647 115 q 619 252 647 213 q 541 315 590 292 q 433 338 492 338 z "},"ॱ":{"ha":435,"x_min":97,"x_max":338,"o":"m 218 1000 q 133 1035 168 1000 q 97 1119 97 1071 q 132 1206 97 1171 q 218 1240 167 1240 q 303 1206 268 1240 q 338 1119 338 1171 q 303 1035 338 1071 q 218 1000 268 1000 z "}," ":{"ha":1667,"x_min":0,"x_max":0,"o":""}," ":{"ha":1667,"x_min":0,"x_max":0,"o":""}," ":{"ha":2500,"x_min":0,"x_max":0,"o":""}," ":{"ha":833,"x_min":0,"x_max":0,"o":""}," ":{"ha":1049,"x_min":0,"x_max":0,"o":""}," ":{"ha":417,"x_min":0,"x_max":0,"o":""}," ":{"ha":167,"x_min":0,"x_max":0,"o":""}," ":{"ha":589,"x_min":0,"x_max":0,"o":""}," ":{"ha":278,"x_min":0,"x_max":0,"o":""}," ":{"ha":315,"x_min":0,"x_max":0,"o":""}," ":{"ha":333,"x_min":0,"x_max":0,"o":""}," ":{"ha":556,"x_min":0,"x_max":0,"o":""},"‍":{"ha":0,"x_min":0,"x_max":0,"o":""},"‌":{"ha":0,"x_min":0,"x_max":0,"o":""},"":{"ha":0,"x_min":0,"x_max":0,"o":""},"€":{"ha":735,"x_min":28,"x_max":713,"o":"m 713 218 q 643 44 711 106 q 433 -17 575 -17 q 207 63 283 -17 q 108 283 131 142 l 28 283 l 28 386 l 100 386 q 99 425 99 399 q 100 465 99 453 l 28 465 l 28 569 l 110 569 q 433 868 156 868 q 641 808 574 868 q 710 638 708 747 l 558 626 q 524 753 558 708 q 433 799 489 799 q 325 740 361 799 q 279 569 289 681 l 482 569 l 482 465 l 272 465 l 272 425 l 272 386 l 482 386 l 482 283 l 278 283 q 325 112 289 171 q 433 53 361 53 q 525 99 490 53 q 560 228 560 146 l 713 218 z "},"¢":{"ha":735,"x_min":72,"x_max":678,"o":"m 678 286 q 440 47 661 68 l 440 -94 l 324 -94 l 324 49 q 72 425 72 88 q 128 676 72 576 q 324 800 185 776 l 324 944 l 440 944 l 440 806 q 605 726 550 796 q 668 546 660 656 l 532 539 q 495 681 529 625 q 404 738 461 738 q 278 656 311 738 q 246 425 246 574 q 279 199 246 285 q 390 114 313 114 q 502 161 465 114 q 542 296 539 208 l 678 286 z "},"¤":{"ha":735,"x_min":31,"x_max":706,"o":"m 639 425 q 603 274 639 338 l 706 169 l 624 89 l 522 192 q 365 154 458 154 q 217 193 278 154 l 111 89 l 31 169 l 139 281 q 107 425 107 343 q 139 572 107 510 l 31 682 l 111 763 l 218 657 q 381 697 279 697 q 524 663 465 697 l 624 763 l 706 682 l 603 581 q 639 425 639 514 m 365 224 q 458 282 431 224 q 486 425 486 340 q 462 569 486 510 q 381 628 438 628 q 288 569 315 628 q 261 425 261 511 q 286 283 261 342 q 365 224 311 224 z "},"$":{"ha":735,"x_min":72,"x_max":678,"o":"m 678 233 q 429 -6 678 18 l 429 -132 l 313 -132 l 313 -7 q 127 63 182 3 q 72 239 72 124 l 225 250 q 257 110 225 158 q 367 61 289 61 q 475 97 443 61 q 507 204 507 133 q 481 299 507 264 q 397 346 456 333 l 299 361 q 131 438 183 378 q 78 610 78 499 q 133 782 78 719 q 313 856 189 844 l 313 983 l 429 983 l 429 856 q 606 785 553 844 q 660 614 660 726 l 506 601 q 476 743 506 697 q 369 789 446 789 q 277 752 304 789 q 250 643 250 715 q 271 545 250 581 q 344 503 292 510 l 443 492 q 678 233 678 460 z "},"ƒ":{"ha":735,"x_min":113,"x_max":654,"o":"m 421 460 l 601 460 l 601 342 l 421 342 l 421 32 q 398 -137 421 -76 q 311 -226 375 -197 q 125 -256 247 -256 l 113 -186 q 199 -165 171 -186 q 238 -99 228 -144 q 247 35 247 -53 l 247 342 l 129 342 l 129 460 l 247 460 l 247 640 q 483 868 247 868 q 654 821 564 868 l 601 699 q 556 749 581 731 q 497 767 531 767 q 441 743 461 767 q 421 681 421 719 l 421 460 z "},"₣":{"ha":596,"x_min":33,"x_max":571,"o":"m 281 754 l 281 481 l 529 481 l 529 383 l 281 383 l 281 258 l 425 258 l 425 160 l 281 160 l 281 0 l 106 0 l 106 160 l 33 160 l 33 258 l 106 258 l 106 851 l 571 851 l 571 754 l 281 754 z "},"₤":{"ha":735,"x_min":68,"x_max":694,"o":"m 694 136 l 694 0 l 72 0 l 72 103 q 126 163 108 126 q 143 233 143 199 l 68 233 l 68 338 l 143 338 l 143 418 l 68 418 l 68 522 l 143 522 l 143 608 q 208 801 143 733 q 425 868 274 868 q 626 803 567 868 q 685 606 685 738 l 532 594 q 425 799 532 799 q 343 751 365 799 q 321 608 321 703 l 321 522 l 560 522 l 560 418 l 321 418 l 321 338 l 560 338 l 560 233 l 318 233 q 299 178 314 200 q 256 136 285 157 l 694 136 z "},"₹":{"ha":1088,"x_min":108,"x_max":979,"o":"m 979 782 l 701 782 q 766 715 740 758 q 797 618 792 672 l 976 618 l 976 568 l 797 568 q 716 406 788 469 q 514 342 644 342 q 386 354 447 342 q 626 151 511 225 q 829 76 742 76 q 768 10 810 32 q 678 -11 726 -11 q 542 43 615 -11 q 356 204 469 97 q 215 330 268 286 q 113 397 163 374 q 175 451 144 433 q 246 469 206 469 q 285 463 267 469 q 332 443 304 457 q 394 418 368 426 q 453 410 419 410 q 576 452 535 410 q 622 568 618 494 l 108 568 l 108 618 l 622 618 q 578 717 613 674 q 496 782 544 760 l 108 782 l 108 833 l 979 833 l 979 782 z "}}}
